G04 This is an RS-274x file exported by *
G04 gerbv version 2.6A *
G04 More information is available about gerbv at *
G04 http://gerbv.geda-project.org/ *
G04 --End of header info--*
%MOIN*%
%FSLAX34Y34*%
%IPPOS*%
G04 --Define apertures--*
%ADD10R,0.0592X0.0789*%
%ADD11R,0.0592X0.0552*%
%AMMACRO12*
4,1,4,-0.002800,-0.026700,-0.024600,0.010900,0.002800,0.026700,0.024600,-0.010900,-0.002800,-0.026700,0.000000*
%
%ADD12MACRO12*%
%ADD13R,0.0434X0.0867*%
%ADD14R,0.0434X0.0316*%
%ADD15R,0.0177X0.0374*%
%ADD16R,0.0671X0.0789*%
%ADD17R,0.0316X0.0434*%
%ADD18R,0.0533X0.1143*%
%ADD19R,0.0867X0.0434*%
%ADD20R,0.0513X0.0631*%
%ADD21R,0.0828X0.0690*%
%ADD22R,0.0921X0.0252*%
%ADD23R,0.0291X0.0449*%
%ADD24R,0.0197X0.0512*%
%AMMACRO25*
21,1,0.051200,0.004700,0.000000,0.000000,90.000000*
21,1,0.036200,0.019700,0.000000,0.000000,90.000000*
1,1,0.015000,0.002400,0.018100*
1,1,0.015000,0.002400,-0.018100*
1,1,0.015000,-0.002400,-0.018100*
1,1,0.015000,-0.002400,0.018100*
%
%ADD25MACRO25*%
%ADD26O,0.0218X0.0789*%
%ADD27C,0.0879*%
%ADD28R,0.0879X0.0879*%
%ADD29C,0.0474*%
%ADD30C,0.0395*%
%ADD31C,0.0434*%
%ADD32C,0.0710*%
G04 --Start main section--*
G36*
G01X0053374Y0038071D02*
G37*
G36*
G01X0053374Y0037571D02*
G37*
G36*
G01X0053374Y0037071D02*
G37*
G36*
G01X0053374Y0030984D02*
G37*
G36*
G01X0053374Y0030484D02*
G37*
G36*
G01X0053374Y0029984D02*
G37*
G36*
G01X0049841Y0023114D02*
G37*
G36*
G01X0041376Y0023114D02*
G37*
G36*
G01X0032912Y0023114D02*
G37*
G36*
G01X0024447Y0023114D02*
G37*
G36*
G01X0015982Y0023114D02*
G37*
G36*
G01X0049841Y0015240D02*
G37*
G36*
G01X0041376Y0015240D02*
G37*
G36*
G01X0032912Y0015240D02*
G37*
G36*
G01X0024447Y0015240D02*
G37*
G36*
G01X0015982Y0015240D02*
G37*
G54D10*
G01X0013976Y0037844D03*
G01X0013976Y0043218D03*
G01X0012992Y0037844D03*
G01X0014961Y0037844D03*
G54D12*
G01X0012823Y0042981D03*
G01X0013334Y0043276D03*
G54D13*
G01X0014828Y0043179D03*
G01X0015328Y0043179D03*
G01X0015828Y0043179D03*
G54D14*
G01X0012228Y0038024D03*
G01X0012228Y0037433D03*
G01X0013728Y0037124D03*
G01X0013728Y0036533D03*
G54D15*
G01X0015422Y0037096D03*
G01X0015678Y0037096D03*
G01X0015934Y0037096D03*
G01X0015934Y0037962D03*
G01X0015422Y0037962D03*
G54D29*
G01X0014961Y0039055D03*
G01X0012992Y0039055D03*
G01X0014961Y0042008D03*
G01X0012992Y0042008D03*
G54D30*
G01X0014978Y0038229D03*
G01X0015578Y0036679D03*
G01X0015328Y0042729D03*
M02*
