G04 This is an RS-274x file exported by *
G04 gerbv version 2.6A *
G04 More information is available about gerbv at *
G04 http://gerbv.geda-project.org/ *
G04 --End of header info--*
%MOIN*%
%FSLAX34Y34*%
%IPPOS*%
G04 --Define apertures--*
%ADD10C,0.0079*%
%ADD11C,0.0200*%
%ADD12C,0.0100*%
%ADD13R,0.0512X0.0709*%
%ADD14R,0.0512X0.0472*%
%AMMACRO15*
4,1,4,-0.001400,-0.021200,-0.019100,0.009400,0.001400,0.021200,0.019100,-0.009400,-0.001400,-0.021200,0.000000*
%
%ADD15MACRO15*%
%ADD16R,0.0354X0.0787*%
%ADD17R,0.0354X0.0236*%
%ADD18R,0.0138X0.0335*%
%ADD19C,0.0130*%
%ADD20R,0.0591X0.0709*%
%ADD21R,0.0236X0.0354*%
%ADD22R,0.0453X0.1063*%
%ADD23R,0.0787X0.0354*%
%ADD24R,0.0433X0.0551*%
%ADD25R,0.0748X0.0610*%
%ADD26R,0.1161X0.1929*%
%ADD27R,0.0866X0.0197*%
%ADD28R,0.0236X0.0394*%
%ADD29R,0.0157X0.0472*%
%AMMACRO30*
21,1,0.047200,0.004700,0.000000,0.000000,90.000000*
21,1,0.036200,0.015700,0.000000,0.000000,90.000000*
1,1,0.011000,0.002400,0.018100*
1,1,0.011000,0.002400,-0.018100*
1,1,0.011000,-0.002400,-0.018100*
1,1,0.011000,-0.002400,0.018100*
%
%ADD30MACRO30*%
%ADD31O,0.0138X0.0709*%
%ADD32C,0.0070*%
%ADD33C,0.0236*%
%ADD34C,0.0150*%
%ADD35C,0.0800*%
%ADD36R,0.0800X0.0800*%
%ADD37C,0.0394*%
%ADD38C,0.0315*%
%ADD39C,0.0354*%
%ADD40C,0.0630*%
%ADD41C,0.0157*%
G04 --Start main section--*
G36*
G01X0020496Y0042731D02*
G37*
G36*
G01X0015378Y0042731D02*
G01X0015506Y0042731D01*
G01X0015510Y0042733D01*
G01X0015547Y0042743D01*
G01X0015578Y0042715D01*
G01X0015579Y0042713D01*
G01X0015612Y0042691D01*
G01X0015651Y0042683D01*
G01X0015766Y0042683D01*
G01X0015766Y0038142D01*
G01X0015763Y0038129D01*
G01X0015763Y0037902D01*
G01X0015641Y0037780D01*
G01X0015612Y0037789D01*
G01X0015593Y0037802D01*
G01X0015593Y0038129D01*
G01X0015591Y0038142D01*
G01X0015591Y0038291D01*
G01X0015578Y0038355D01*
G01X0015541Y0038410D01*
G01X0015541Y0038410D01*
G01X0015181Y0038770D01*
G01X0015169Y0038778D01*
G01X0015167Y0038839D01*
G01X0015172Y0038843D01*
G01X0015220Y0038905D01*
G01X0015250Y0038978D01*
G01X0015260Y0039055D01*
G01X0015250Y0039133D01*
G01X0015220Y0039205D01*
G01X0015172Y0039267D01*
G01X0015110Y0039314D01*
G01X0015038Y0039344D01*
G01X0014961Y0039355D01*
G01X0014883Y0039344D01*
G01X0014811Y0039314D01*
G01X0014749Y0039267D01*
G01X0014701Y0039205D01*
G01X0014671Y0039133D01*
G01X0014661Y0039055D01*
G01X0014671Y0038978D01*
G01X0014701Y0038905D01*
G01X0014729Y0038869D01*
G01X0014704Y0038819D01*
G01X0013328Y0038819D01*
G01X0013264Y0038807D01*
G01X0013209Y0038770D01*
G01X0013209Y0038770D01*
G01X0012992Y0038553D01*
G01X0012597Y0038948D01*
G01X0012597Y0042159D01*
G01X0012848Y0042411D01*
G01X0013225Y0042411D01*
G01X0013225Y0042411D01*
G01X0013225Y0042411D01*
G01X0014628Y0042411D01*
G01X0014693Y0042423D01*
G01X0014747Y0042460D01*
G01X0014947Y0042660D01*
G01X0014947Y0042660D01*
G01X0014963Y0042683D01*
G01X0015006Y0042683D01*
G01X0015045Y0042691D01*
G01X0015078Y0042713D01*
G01X0015079Y0042715D01*
G01X0015109Y0042743D01*
G01X0015146Y0042733D01*
G01X0015151Y0042731D01*
G01X0015278Y0042731D01*
G01X0015278Y0043179D01*
G01X0015378Y0043179D01*
G01X0015378Y0042731D01*
G37*
G36*
G01X0015378Y0042731D02*
G37*
G36*
G01X0020158Y0038436D02*
G37*
G36*
G01X0015039Y0038436D02*
G01X0015015Y0038390D01*
G01X0014978Y0038397D01*
G01X0014914Y0038384D01*
G01X0014859Y0038348D01*
G01X0014823Y0038293D01*
G01X0014815Y0038253D01*
G01X0014705Y0038253D01*
G01X0014666Y0038237D01*
G01X0014651Y0038199D01*
G01X0014651Y0037894D01*
G01X0014961Y0037894D01*
G01X0014961Y0037794D01*
G01X0014651Y0037794D01*
G01X0014651Y0037490D01*
G01X0014614Y0037447D01*
G01X0014377Y0037447D01*
G01X0014334Y0037490D01*
G01X0014334Y0038199D01*
G01X0014326Y0038238D01*
G01X0014304Y0038271D01*
G01X0014271Y0038293D01*
G01X0014232Y0038301D01*
G01X0013720Y0038301D01*
G01X0013681Y0038293D01*
G01X0013648Y0038271D01*
G01X0013626Y0038238D01*
G01X0013619Y0038199D01*
G01X0013619Y0037490D01*
G01X0013626Y0037451D01*
G01X0013648Y0037418D01*
G01X0013681Y0037396D01*
G01X0013690Y0037394D01*
G01X0013691Y0037392D01*
G01X0013686Y0037344D01*
G01X0013551Y0037344D01*
G01X0013512Y0037336D01*
G01X0013479Y0037314D01*
G01X0013457Y0037281D01*
G01X0013449Y0037242D01*
G01X0013449Y0037006D01*
G01X0013457Y0036967D01*
G01X0013479Y0036934D01*
G01X0013512Y0036912D01*
G01X0013551Y0036904D01*
G01X0013906Y0036904D01*
G01X0013945Y0036912D01*
G01X0013978Y0036934D01*
G01X0014000Y0036967D01*
G01X0014007Y0037006D01*
G01X0014007Y0037141D01*
G01X0014055Y0037161D01*
G01X0014059Y0037160D01*
G01X0014114Y0037123D01*
G01X0014178Y0037111D01*
G01X0014709Y0037111D01*
G01X0014750Y0037070D01*
G01X0014725Y0037023D01*
G01X0014697Y0037029D01*
G01X0014687Y0037029D01*
G01X0014677Y0037031D01*
G01X0014615Y0037031D01*
G01X0014605Y0037029D01*
G01X0014595Y0037029D01*
G01X0014534Y0037017D01*
G01X0014525Y0037013D01*
G01X0014515Y0037011D01*
G01X0014457Y0036987D01*
G01X0014449Y0036982D01*
G01X0014440Y0036978D01*
G01X0014388Y0036944D01*
G01X0014381Y0036936D01*
G01X0014373Y0036931D01*
G01X0014329Y0036887D01*
G01X0014323Y0036879D01*
G01X0014316Y0036872D01*
G01X0014282Y0036820D01*
G01X0014278Y0036811D01*
G01X0014272Y0036802D01*
G01X0014249Y0036745D01*
G01X0014247Y0036735D01*
G01X0014243Y0036726D01*
G01X0014231Y0036665D01*
G01X0014231Y0036655D01*
G01X0014229Y0036645D01*
G01X0014229Y0036583D01*
G01X0014231Y0036573D01*
G01X0014231Y0036563D01*
G01X0014243Y0036502D01*
G01X0014247Y0036493D01*
G01X0014249Y0036483D01*
G01X0014272Y0036426D01*
G01X0014278Y0036418D01*
G01X0014282Y0036408D01*
G01X0014316Y0036357D01*
G01X0014323Y0036350D01*
G01X0014329Y0036341D01*
G01X0014373Y0036297D01*
G01X0014381Y0036292D01*
G01X0014388Y0036285D01*
G01X0014440Y0036250D01*
G01X0014449Y0036246D01*
G01X0014457Y0036241D01*
G01X0014515Y0036217D01*
G01X0014525Y0036215D01*
G01X0014534Y0036211D01*
G01X0014595Y0036199D01*
G01X0014605Y0036199D01*
G01X0014615Y0036197D01*
G01X0014677Y0036197D01*
G01X0014687Y0036199D01*
G01X0014697Y0036199D01*
G01X0014757Y0036211D01*
G01X0014767Y0036215D01*
G01X0014777Y0036217D01*
G01X0014834Y0036241D01*
G01X0014842Y0036246D01*
G01X0014851Y0036250D01*
G01X0014903Y0036285D01*
G01X0014910Y0036292D01*
G01X0014919Y0036297D01*
G01X0014962Y0036341D01*
G01X0014968Y0036350D01*
G01X0014975Y0036357D01*
G01X0015010Y0036408D01*
G01X0015013Y0036418D01*
G01X0015019Y0036426D01*
G01X0015021Y0036430D01*
G01X0015023Y0036432D01*
G01X0015079Y0036440D01*
G01X0015309Y0036210D01*
G01X0015309Y0036210D01*
G01X0015321Y0036202D01*
G01X0015334Y0036134D01*
G01X0015329Y0036126D01*
G01X0011913Y0036126D01*
G01X0011913Y0037849D01*
G01X0011915Y0037849D01*
G01X0011963Y0037857D01*
G01X0011979Y0037834D01*
G01X0012012Y0037812D01*
G01X0012051Y0037804D01*
G01X0012406Y0037804D01*
G01X0012445Y0037812D01*
G01X0012478Y0037834D01*
G01X0012492Y0037856D01*
G01X0012634Y0037856D01*
G01X0012634Y0037490D01*
G01X0012642Y0037451D01*
G01X0012664Y0037418D01*
G01X0012697Y0037396D01*
G01X0012736Y0037388D01*
G01X0013248Y0037388D01*
G01X0013287Y0037396D01*
G01X0013320Y0037418D01*
G01X0013342Y0037451D01*
G01X0013350Y0037490D01*
G01X0013350Y0038199D01*
G01X0013342Y0038238D01*
G01X0013320Y0038271D01*
G01X0013287Y0038293D01*
G01X0013280Y0038294D01*
G01X0013264Y0038349D01*
G01X0013398Y0038483D01*
G01X0014992Y0038483D01*
G01X0015039Y0038436D01*
G37*
G36*
G01X0015039Y0038436D02*
G37*
G36*
G01X0053346Y0038354D02*
G37*
G36*
G01X0017683Y0042987D02*
G37*
G36*
G01X0012565Y0042987D02*
G01X0012712Y0042733D01*
G01X0012659Y0042698D01*
G01X0012309Y0042348D01*
G01X0012273Y0042293D01*
G01X0012260Y0042229D01*
G01X0012260Y0038879D01*
G01X0012273Y0038814D01*
G01X0012309Y0038760D01*
G01X0012721Y0038349D01*
G01X0012704Y0038294D01*
G01X0012697Y0038293D01*
G01X0012664Y0038271D01*
G01X0012642Y0038238D01*
G01X0012634Y0038199D01*
G01X0012634Y0038192D01*
G01X0012492Y0038192D01*
G01X0012478Y0038214D01*
G01X0012445Y0038236D01*
G01X0012406Y0038244D01*
G01X0012051Y0038244D01*
G01X0012012Y0038236D01*
G01X0011979Y0038214D01*
G01X0011963Y0038191D01*
G01X0011915Y0038199D01*
G01X0011913Y0038199D01*
G01X0011913Y0041535D01*
G01X0011912Y0041541D01*
G01X0011930Y0041805D01*
G01X0011982Y0042070D01*
G01X0012069Y0042325D01*
G01X0012189Y0042568D01*
G01X0012339Y0042792D01*
G01X0012508Y0042986D01*
G01X0012554Y0042989D01*
G01X0012565Y0042987D01*
G37*
G36*
G01X0012565Y0042987D02*
G37*
G36*
G01X0053346Y0038098D02*
G37*
G36*
G01X0053346Y0037854D02*
G37*
G36*
G01X0053346Y0037598D02*
G37*
G36*
G01X0053346Y0037354D02*
G37*
G36*
G01X0053346Y0037098D02*
G37*
G36*
G01X0031169Y0041562D02*
G37*
G36*
G01X0024476Y0041562D02*
G37*
G36*
G01X0020496Y0034266D02*
G37*
G36*
G01X0015378Y0034266D02*
G37*
G36*
G01X0053346Y0031268D02*
G37*
G36*
G01X0053346Y0031012D02*
G37*
G36*
G01X0053346Y0030768D02*
G37*
G36*
G01X0053346Y0030512D02*
G37*
G36*
G01X0053346Y0030268D02*
G37*
G36*
G01X0053346Y0030012D02*
G37*
G36*
G01X0020158Y0029971D02*
G37*
G36*
G01X0015039Y0029971D02*
G37*
G36*
G01X0017683Y0034523D02*
G37*
G36*
G01X0012565Y0034523D02*
G37*
G36*
G01X0031169Y0034086D02*
G37*
G36*
G01X0024476Y0034086D02*
G37*
G36*
G01X0053244Y0026033D02*
G37*
G36*
G01X0044780Y0026033D02*
G37*
G36*
G01X0036315Y0026033D02*
G37*
G36*
G01X0027850Y0026033D02*
G37*
G36*
G01X0019386Y0026033D02*
G37*
G36*
G01X0051216Y0026663D02*
G37*
G36*
G01X0042752Y0026663D02*
G37*
G36*
G01X0034287Y0026663D02*
G37*
G36*
G01X0025823Y0026663D02*
G37*
G36*
G01X0017358Y0026663D02*
G37*
G36*
G01X0049966Y0023076D02*
G37*
G36*
G01X0041501Y0023076D02*
G37*
G36*
G01X0033037Y0023076D02*
G37*
G36*
G01X0024572Y0023076D02*
G37*
G36*
G01X0016108Y0023076D02*
G37*
G36*
G01X0050579Y0021724D02*
G37*
G36*
G01X0042114Y0021724D02*
G37*
G36*
G01X0033650Y0021724D02*
G37*
G36*
G01X0025185Y0021724D02*
G37*
G36*
G01X0016721Y0021724D02*
G37*
G36*
G01X0053244Y0018158D02*
G37*
G36*
G01X0044780Y0018158D02*
G37*
G36*
G01X0036315Y0018158D02*
G37*
G36*
G01X0027850Y0018158D02*
G37*
G36*
G01X0019386Y0018158D02*
G37*
G36*
G01X0051216Y0018789D02*
G37*
G36*
G01X0042752Y0018789D02*
G37*
G36*
G01X0034287Y0018789D02*
G37*
G36*
G01X0025823Y0018789D02*
G37*
G36*
G01X0017358Y0018789D02*
G37*
G36*
G01X0049966Y0015202D02*
G37*
G36*
G01X0041501Y0015202D02*
G37*
G36*
G01X0033037Y0015202D02*
G37*
G36*
G01X0024572Y0015202D02*
G37*
G36*
G01X0016108Y0015202D02*
G37*
G36*
G01X0050579Y0013850D02*
G37*
G36*
G01X0042114Y0013850D02*
G37*
G36*
G01X0033650Y0013850D02*
G37*
G36*
G01X0025185Y0013850D02*
G37*
G36*
G01X0016721Y0013850D02*
G37*
%LPC*%
G36*
G01X0020079Y0042307D02*
G37*
G36*
G01X0018110Y0042307D02*
G37*
G36*
G01X0019191Y0041913D02*
G37*
G36*
G01X0018110Y0039355D02*
G37*
G36*
G01X0014961Y0042307D02*
G01X0014883Y0042297D01*
G01X0014811Y0042267D01*
G01X0014749Y0042220D01*
G01X0014701Y0042158D01*
G01X0014671Y0042085D01*
G01X0014661Y0042008D01*
G01X0014671Y0041930D01*
G01X0014701Y0041858D01*
G01X0014749Y0041796D01*
G01X0014811Y0041749D01*
G01X0014883Y0041719D01*
G01X0014961Y0041708D01*
G01X0015038Y0041719D01*
G01X0015110Y0041749D01*
G01X0015172Y0041796D01*
G01X0015220Y0041858D01*
G01X0015250Y0041930D01*
G01X0015260Y0042008D01*
G01X0015250Y0042085D01*
G01X0015220Y0042158D01*
G01X0015172Y0042220D01*
G01X0015110Y0042267D01*
G01X0015038Y0042297D01*
G01X0014961Y0042307D01*
G37*
G36*
G01X0014961Y0042307D02*
G37*
G36*
G01X0012992Y0042307D02*
G01X0012915Y0042297D01*
G01X0012842Y0042267D01*
G01X0012780Y0042220D01*
G01X0012733Y0042158D01*
G01X0012703Y0042085D01*
G01X0012693Y0042008D01*
G01X0012703Y0041930D01*
G01X0012733Y0041858D01*
G01X0012780Y0041796D01*
G01X0012842Y0041749D01*
G01X0012915Y0041719D01*
G01X0012992Y0041708D01*
G01X0013070Y0041719D01*
G01X0013142Y0041749D01*
G01X0013204Y0041796D01*
G01X0013251Y0041858D01*
G01X0013281Y0041930D01*
G01X0013292Y0042008D01*
G01X0013281Y0042085D01*
G01X0013251Y0042158D01*
G01X0013204Y0042220D01*
G01X0013142Y0042267D01*
G01X0013070Y0042297D01*
G01X0012992Y0042307D01*
G37*
G36*
G01X0012992Y0042307D02*
G37*
G36*
G01X0014073Y0041913D02*
G01X0013879Y0041913D01*
G01X0013870Y0041911D01*
G01X0013860Y0041911D01*
G01X0013669Y0041873D01*
G01X0013660Y0041869D01*
G01X0013650Y0041867D01*
G01X0013471Y0041793D01*
G01X0013463Y0041788D01*
G01X0013454Y0041784D01*
G01X0013292Y0041676D01*
G01X0013285Y0041669D01*
G01X0013277Y0041663D01*
G01X0013140Y0041526D01*
G01X0013134Y0041518D01*
G01X0013127Y0041511D01*
G01X0013019Y0041350D01*
G01X0013016Y0041340D01*
G01X0013010Y0041332D01*
G01X0012936Y0041153D01*
G01X0012934Y0041143D01*
G01X0012930Y0041134D01*
G01X0012892Y0040944D01*
G01X0012892Y0040934D01*
G01X0012890Y0040924D01*
G01X0012890Y0040730D01*
G01X0012892Y0040720D01*
G01X0012892Y0040710D01*
G01X0012930Y0040520D01*
G01X0012934Y0040511D01*
G01X0012936Y0040501D01*
G01X0013010Y0040322D01*
G01X0013016Y0040313D01*
G01X0013019Y0040304D01*
G01X0013127Y0040143D01*
G01X0013134Y0040136D01*
G01X0013140Y0040127D01*
G01X0013277Y0039990D01*
G01X0013285Y0039985D01*
G01X0013292Y0039977D01*
G01X0013454Y0039870D01*
G01X0013463Y0039866D01*
G01X0013471Y0039860D01*
G01X0013650Y0039786D01*
G01X0013660Y0039784D01*
G01X0013669Y0039780D01*
G01X0013860Y0039743D01*
G01X0013870Y0039743D01*
G01X0013879Y0039741D01*
G01X0014073Y0039741D01*
G01X0014083Y0039743D01*
G01X0014093Y0039743D01*
G01X0014283Y0039780D01*
G01X0014293Y0039784D01*
G01X0014302Y0039786D01*
G01X0014482Y0039860D01*
G01X0014490Y0039866D01*
G01X0014499Y0039870D01*
G01X0014660Y0039977D01*
G01X0014668Y0039985D01*
G01X0014676Y0039990D01*
G01X0014813Y0040127D01*
G01X0014819Y0040136D01*
G01X0014826Y0040143D01*
G01X0014933Y0040304D01*
G01X0014937Y0040313D01*
G01X0014943Y0040322D01*
G01X0015017Y0040501D01*
G01X0015019Y0040511D01*
G01X0015023Y0040520D01*
G01X0015061Y0040710D01*
G01X0015061Y0040720D01*
G01X0015063Y0040730D01*
G01X0015063Y0040924D01*
G01X0015061Y0040934D01*
G01X0015061Y0040944D01*
G01X0015023Y0041134D01*
G01X0015019Y0041143D01*
G01X0015017Y0041153D01*
G01X0014943Y0041332D01*
G01X0014937Y0041340D01*
G01X0014933Y0041350D01*
G01X0014826Y0041511D01*
G01X0014819Y0041518D01*
G01X0014813Y0041526D01*
G01X0014676Y0041663D01*
G01X0014668Y0041669D01*
G01X0014660Y0041676D01*
G01X0014499Y0041784D01*
G01X0014490Y0041788D01*
G01X0014482Y0041793D01*
G01X0014302Y0041867D01*
G01X0014293Y0041869D01*
G01X0014283Y0041873D01*
G01X0014093Y0041911D01*
G01X0014083Y0041911D01*
G01X0014073Y0041913D01*
G37*
G36*
G01X0014073Y0041913D02*
G37*
G36*
G01X0012992Y0039355D02*
G01X0012915Y0039344D01*
G01X0012842Y0039314D01*
G01X0012780Y0039267D01*
G01X0012733Y0039205D01*
G01X0012703Y0039133D01*
G01X0012693Y0039055D01*
G01X0012703Y0038978D01*
G01X0012733Y0038905D01*
G01X0012780Y0038843D01*
G01X0012842Y0038796D01*
G01X0012915Y0038766D01*
G01X0012992Y0038756D01*
G01X0013070Y0038766D01*
G01X0013142Y0038796D01*
G01X0013204Y0038843D01*
G01X0013251Y0038905D01*
G01X0013281Y0038978D01*
G01X0013292Y0039055D01*
G01X0013281Y0039133D01*
G01X0013251Y0039205D01*
G01X0013204Y0039267D01*
G01X0013142Y0039314D01*
G01X0013070Y0039344D01*
G01X0012992Y0039355D01*
G37*
G36*
G01X0012992Y0039355D02*
G37*
G36*
G01X0017524Y0037606D02*
G37*
G36*
G01X0017296Y0037606D02*
G37*
G36*
G01X0017578Y0037383D02*
G37*
G36*
G01X0017296Y0037383D02*
G37*
G36*
G01X0019024Y0036706D02*
G37*
G36*
G01X0018796Y0036706D02*
G37*
G36*
G01X0019078Y0036483D02*
G37*
G36*
G01X0018796Y0036483D02*
G37*
G36*
G01X0017748Y0037031D02*
G37*
G36*
G01X0012406Y0037606D02*
G01X0012278Y0037606D01*
G01X0012278Y0037483D01*
G01X0012460Y0037483D01*
G01X0012460Y0037552D01*
G01X0012444Y0037590D01*
G01X0012406Y0037606D01*
G37*
G36*
G01X0012406Y0037606D02*
G37*
G36*
G01X0012178Y0037606D02*
G01X0012051Y0037606D01*
G01X0012013Y0037590D01*
G01X0011997Y0037552D01*
G01X0011997Y0037483D01*
G01X0012178Y0037483D01*
G01X0012178Y0037606D01*
G37*
G36*
G01X0012178Y0037606D02*
G37*
G36*
G01X0012460Y0037383D02*
G01X0012278Y0037383D01*
G01X0012278Y0037261D01*
G01X0012406Y0037261D01*
G01X0012444Y0037277D01*
G01X0012460Y0037315D01*
G01X0012460Y0037383D01*
G37*
G36*
G01X0012460Y0037383D02*
G37*
G36*
G01X0012178Y0037383D02*
G01X0011997Y0037383D01*
G01X0011997Y0037315D01*
G01X0012013Y0037277D01*
G01X0012051Y0037261D01*
G01X0012178Y0037261D01*
G01X0012178Y0037383D01*
G37*
G36*
G01X0012178Y0037383D02*
G37*
G36*
G01X0013906Y0036706D02*
G01X0013778Y0036706D01*
G01X0013778Y0036583D01*
G01X0013960Y0036583D01*
G01X0013960Y0036652D01*
G01X0013944Y0036690D01*
G01X0013906Y0036706D01*
G37*
G36*
G01X0013906Y0036706D02*
G37*
G36*
G01X0013678Y0036706D02*
G01X0013551Y0036706D01*
G01X0013513Y0036690D01*
G01X0013497Y0036652D01*
G01X0013497Y0036583D01*
G01X0013678Y0036583D01*
G01X0013678Y0036706D01*
G37*
G36*
G01X0013678Y0036706D02*
G37*
G36*
G01X0013960Y0036483D02*
G01X0013778Y0036483D01*
G01X0013778Y0036361D01*
G01X0013906Y0036361D01*
G01X0013944Y0036377D01*
G01X0013960Y0036415D01*
G01X0013960Y0036483D01*
G37*
G36*
G01X0013960Y0036483D02*
G37*
G36*
G01X0013678Y0036483D02*
G01X0013497Y0036483D01*
G01X0013497Y0036415D01*
G01X0013513Y0036377D01*
G01X0013551Y0036361D01*
G01X0013678Y0036361D01*
G01X0013678Y0036483D01*
G37*
G36*
G01X0013678Y0036483D02*
G37*
G36*
G01X0012629Y0037031D02*
G01X0012567Y0037031D01*
G01X0012558Y0037029D01*
G01X0012548Y0037029D01*
G01X0012487Y0037017D01*
G01X0012477Y0037013D01*
G01X0012468Y0037011D01*
G01X0012410Y0036987D01*
G01X0012402Y0036982D01*
G01X0012393Y0036978D01*
G01X0012341Y0036944D01*
G01X0012334Y0036936D01*
G01X0012326Y0036931D01*
G01X0012282Y0036887D01*
G01X0012276Y0036879D01*
G01X0012269Y0036872D01*
G01X0012235Y0036820D01*
G01X0012231Y0036811D01*
G01X0012225Y0036802D01*
G01X0012201Y0036745D01*
G01X0012199Y0036735D01*
G01X0012196Y0036726D01*
G01X0012183Y0036665D01*
G01X0012183Y0036655D01*
G01X0012182Y0036645D01*
G01X0012182Y0036583D01*
G01X0012183Y0036573D01*
G01X0012183Y0036563D01*
G01X0012196Y0036502D01*
G01X0012199Y0036493D01*
G01X0012201Y0036483D01*
G01X0012225Y0036426D01*
G01X0012231Y0036418D01*
G01X0012235Y0036408D01*
G01X0012269Y0036357D01*
G01X0012276Y0036350D01*
G01X0012282Y0036341D01*
G01X0012326Y0036297D01*
G01X0012334Y0036292D01*
G01X0012341Y0036285D01*
G01X0012393Y0036250D01*
G01X0012402Y0036246D01*
G01X0012410Y0036241D01*
G01X0012468Y0036217D01*
G01X0012477Y0036215D01*
G01X0012487Y0036211D01*
G01X0012548Y0036199D01*
G01X0012558Y0036199D01*
G01X0012567Y0036197D01*
G01X0012629Y0036197D01*
G01X0012639Y0036199D01*
G01X0012649Y0036199D01*
G01X0012710Y0036211D01*
G01X0012719Y0036215D01*
G01X0012729Y0036217D01*
G01X0012787Y0036241D01*
G01X0012795Y0036246D01*
G01X0012804Y0036250D01*
G01X0012856Y0036285D01*
G01X0012863Y0036292D01*
G01X0012871Y0036297D01*
G01X0012915Y0036341D01*
G01X0012921Y0036350D01*
G01X0012928Y0036357D01*
G01X0012962Y0036408D01*
G01X0012966Y0036418D01*
G01X0012972Y0036426D01*
G01X0012995Y0036483D01*
G01X0012997Y0036493D01*
G01X0013001Y0036502D01*
G01X0013013Y0036563D01*
G01X0013013Y0036573D01*
G01X0013015Y0036583D01*
G01X0013015Y0036645D01*
G01X0013013Y0036655D01*
G01X0013013Y0036665D01*
G01X0013001Y0036726D01*
G01X0012997Y0036735D01*
G01X0012995Y0036745D01*
G01X0012972Y0036802D01*
G01X0012966Y0036811D01*
G01X0012962Y0036820D01*
G01X0012928Y0036872D01*
G01X0012921Y0036879D01*
G01X0012915Y0036887D01*
G01X0012871Y0036931D01*
G01X0012863Y0036936D01*
G01X0012856Y0036944D01*
G01X0012804Y0036978D01*
G01X0012795Y0036982D01*
G01X0012787Y0036987D01*
G01X0012729Y0037011D01*
G01X0012719Y0037013D01*
G01X0012710Y0037017D01*
G01X0012649Y0037029D01*
G01X0012639Y0037029D01*
G01X0012629Y0037031D01*
G37*
G36*
G01X0012629Y0037031D02*
G37*
G36*
G01X0032480Y0040422D02*
G37*
G36*
G01X0030512Y0040422D02*
G37*
G36*
G01X0031574Y0039831D02*
G37*
G36*
G01X0032480Y0037469D02*
G37*
G36*
G01X0030512Y0037469D02*
G37*
G36*
G01X0033889Y0036110D02*
G37*
G36*
G01X0032736Y0036446D02*
G37*
G36*
G01X0032430Y0036446D02*
G37*
G36*
G01X0031495Y0036853D02*
G37*
G36*
G01X0032838Y0035939D02*
G37*
G36*
G01X0032430Y0035939D02*
G37*
G36*
G01X0025787Y0040422D02*
G37*
G36*
G01X0023819Y0040422D02*
G37*
G36*
G01X0024881Y0039831D02*
G37*
G36*
G01X0025787Y0037469D02*
G37*
G36*
G01X0023819Y0037469D02*
G37*
G36*
G01X0027196Y0036110D02*
G37*
G36*
G01X0026043Y0036446D02*
G37*
G36*
G01X0025737Y0036446D02*
G37*
G36*
G01X0024802Y0036853D02*
G37*
G36*
G01X0026145Y0035939D02*
G37*
G36*
G01X0025737Y0035939D02*
G37*
G36*
G01X0020079Y0033843D02*
G37*
G36*
G01X0018110Y0033843D02*
G37*
G36*
G01X0019191Y0033448D02*
G37*
G36*
G01X0018110Y0030890D02*
G37*
G36*
G01X0014961Y0033843D02*
G37*
G36*
G01X0012992Y0033843D02*
G37*
G36*
G01X0014073Y0033448D02*
G37*
G36*
G01X0012992Y0030890D02*
G37*
G36*
G01X0017524Y0029141D02*
G37*
G36*
G01X0017296Y0029141D02*
G37*
G36*
G01X0017578Y0028919D02*
G37*
G36*
G01X0017296Y0028919D02*
G37*
G36*
G01X0019024Y0028241D02*
G37*
G36*
G01X0018796Y0028241D02*
G37*
G36*
G01X0019078Y0028019D02*
G37*
G36*
G01X0018796Y0028019D02*
G37*
G36*
G01X0017748Y0028567D02*
G37*
G36*
G01X0012406Y0029141D02*
G37*
G36*
G01X0012178Y0029141D02*
G37*
G36*
G01X0012460Y0028919D02*
G37*
G36*
G01X0012178Y0028919D02*
G37*
G36*
G01X0013906Y0028241D02*
G37*
G36*
G01X0013678Y0028241D02*
G37*
G36*
G01X0013960Y0028019D02*
G37*
G36*
G01X0013678Y0028019D02*
G37*
G36*
G01X0012629Y0028567D02*
G37*
G36*
G01X0032480Y0032946D02*
G37*
G36*
G01X0030512Y0032946D02*
G37*
G36*
G01X0031574Y0032355D02*
G37*
G36*
G01X0032480Y0029994D02*
G37*
G36*
G01X0030512Y0029994D02*
G37*
G36*
G01X0033889Y0028634D02*
G37*
G36*
G01X0032736Y0028970D02*
G37*
G36*
G01X0032430Y0028970D02*
G37*
G36*
G01X0031495Y0029377D02*
G37*
G36*
G01X0032838Y0028464D02*
G37*
G36*
G01X0032430Y0028464D02*
G37*
G36*
G01X0025787Y0032946D02*
G37*
G36*
G01X0023819Y0032946D02*
G37*
G36*
G01X0024881Y0032355D02*
G37*
G36*
G01X0025787Y0029994D02*
G37*
G36*
G01X0023819Y0029994D02*
G37*
G36*
G01X0027196Y0028634D02*
G37*
G36*
G01X0026043Y0028970D02*
G37*
G36*
G01X0025737Y0028970D02*
G37*
G36*
G01X0024802Y0029377D02*
G37*
G36*
G01X0026145Y0028464D02*
G37*
G36*
G01X0025737Y0028464D02*
G37*
G36*
G01X0049175Y0025889D02*
G37*
G36*
G01X0049277Y0025619D02*
G37*
G36*
G01X0050483Y0025224D02*
G37*
G36*
G01X0050213Y0025224D02*
G37*
G36*
G01X0047268Y0025002D02*
G37*
G36*
G01X0040711Y0025889D02*
G37*
G36*
G01X0040813Y0025619D02*
G37*
G36*
G01X0042018Y0025224D02*
G37*
G36*
G01X0041748Y0025224D02*
G37*
G36*
G01X0038803Y0025002D02*
G37*
G36*
G01X0032246Y0025889D02*
G37*
G36*
G01X0032348Y0025619D02*
G37*
G36*
G01X0033554Y0025224D02*
G37*
G36*
G01X0033284Y0025224D02*
G37*
G36*
G01X0030339Y0025002D02*
G37*
G36*
G01X0023782Y0025889D02*
G37*
G36*
G01X0023884Y0025619D02*
G37*
G36*
G01X0025089Y0025224D02*
G37*
G36*
G01X0024819Y0025224D02*
G37*
G36*
G01X0021874Y0025002D02*
G37*
G36*
G01X0015317Y0025889D02*
G37*
G36*
G01X0015419Y0025619D02*
G37*
G36*
G01X0016625Y0025224D02*
G37*
G36*
G01X0016355Y0025224D02*
G37*
G36*
G01X0013409Y0025002D02*
G37*
G36*
G01X0050450Y0022924D02*
G37*
G36*
G01X0041986Y0022924D02*
G37*
G36*
G01X0033521Y0022924D02*
G37*
G36*
G01X0025056Y0022924D02*
G37*
G36*
G01X0016592Y0022924D02*
G37*
G36*
G01X0051141Y0020703D02*
G37*
G36*
G01X0042677Y0020703D02*
G37*
G36*
G01X0034212Y0020703D02*
G37*
G36*
G01X0025747Y0020703D02*
G37*
G36*
G01X0017283Y0020703D02*
G37*
G36*
G01X0049175Y0018015D02*
G37*
G36*
G01X0049277Y0017745D02*
G37*
G36*
G01X0050483Y0017350D02*
G37*
G36*
G01X0050213Y0017350D02*
G37*
G36*
G01X0047268Y0017128D02*
G37*
G36*
G01X0040711Y0018015D02*
G37*
G36*
G01X0040813Y0017745D02*
G37*
G36*
G01X0042018Y0017350D02*
G37*
G36*
G01X0041748Y0017350D02*
G37*
G36*
G01X0038803Y0017128D02*
G37*
G36*
G01X0032246Y0018015D02*
G37*
G36*
G01X0032348Y0017745D02*
G37*
G36*
G01X0033554Y0017350D02*
G37*
G36*
G01X0033284Y0017350D02*
G37*
G36*
G01X0030339Y0017128D02*
G37*
G36*
G01X0023782Y0018015D02*
G37*
G36*
G01X0023884Y0017745D02*
G37*
G36*
G01X0025089Y0017350D02*
G37*
G36*
G01X0024819Y0017350D02*
G37*
G36*
G01X0021874Y0017128D02*
G37*
G36*
G01X0015317Y0018015D02*
G37*
G36*
G01X0015419Y0017745D02*
G37*
G36*
G01X0016625Y0017350D02*
G37*
G36*
G01X0016355Y0017350D02*
G37*
G36*
G01X0013409Y0017128D02*
G37*
G36*
G01X0050450Y0015050D02*
G37*
G36*
G01X0041986Y0015050D02*
G37*
G36*
G01X0033521Y0015050D02*
G37*
G36*
G01X0025056Y0015050D02*
G37*
G36*
G01X0016592Y0015050D02*
G37*
G36*
G01X0051141Y0012829D02*
G37*
G36*
G01X0042677Y0012829D02*
G37*
G36*
G01X0034212Y0012829D02*
G37*
G36*
G01X0025747Y0012829D02*
G37*
G36*
G01X0017283Y0012829D02*
G37*
%LPD*%
G54D12*
G01X0013334Y0043276D02*
G01X0013392Y0043218D01*
G01X0015828Y0043179D02*
G01X0015934Y0043073D01*
G54D13*
G01X0013976Y0037844D03*
G01X0013976Y0043218D03*
G01X0012992Y0037844D03*
G01X0014961Y0037844D03*
G54D15*
G01X0012823Y0042981D03*
G01X0013334Y0043276D03*
G54D16*
G01X0014828Y0043179D03*
G01X0015328Y0043179D03*
G01X0015828Y0043179D03*
G54D17*
G01X0012228Y0038024D03*
G01X0012228Y0037433D03*
G01X0013728Y0037124D03*
G01X0013728Y0036533D03*
G54D18*
G01X0015422Y0037096D03*
G01X0015678Y0037096D03*
G01X0015934Y0037096D03*
G01X0015934Y0037962D03*
G01X0015422Y0037962D03*
G54D19*
G01X0012778Y0042579D02*
G01X0013225Y0042579D01*
G01X0012428Y0042229D02*
G01X0012778Y0042579D01*
G01X0012428Y0038879D02*
G01X0012428Y0042229D01*
G01X0012813Y0038024D02*
G01X0012992Y0037844D01*
G01X0012328Y0038024D02*
G01X0012813Y0038024D01*
G01X0015178Y0036579D02*
G01X0015178Y0036879D01*
G01X0014778Y0037279D02*
G01X0015178Y0036879D01*
G01X0014178Y0037279D02*
G01X0014778Y0037279D01*
G01X0013976Y0037481D02*
G01X0013976Y0037844D01*
G01X0013976Y0037372D02*
G01X0013976Y0037481D01*
G01X0013728Y0037124D02*
G01X0013976Y0037372D01*
G01X0013976Y0037481D02*
G01X0014178Y0037279D01*
G01X0014978Y0037927D02*
G01X0014978Y0038229D01*
G01X0015062Y0038651D02*
G01X0015422Y0038291D01*
G01X0013328Y0038651D02*
G01X0015062Y0038651D01*
G01X0015422Y0037962D02*
G01X0015422Y0038291D01*
G01X0012992Y0038315D02*
G01X0013328Y0038651D01*
G01X0014928Y0037877D02*
G01X0014961Y0037844D01*
G01X0015728Y0036329D02*
G01X0015934Y0036535D01*
G01X0015178Y0036579D02*
G01X0015428Y0036329D01*
G01X0015428Y0036329D02*
G01X0015728Y0036329D01*
G01X0015578Y0036679D02*
G01X0015678Y0036779D01*
G01X0015422Y0037323D02*
G01X0015934Y0037835D01*
G01X0015422Y0037096D02*
G01X0015422Y0037323D01*
G01X0012992Y0037844D02*
G01X0012992Y0038315D01*
G01X0012428Y0038879D02*
G01X0012992Y0038315D01*
G01X0012823Y0042981D02*
G01X0013225Y0042579D01*
G01X0013225Y0042579D02*
G01X0014628Y0042579D01*
G01X0014628Y0042579D02*
G01X0014828Y0042779D01*
G01X0014828Y0042779D02*
G01X0014828Y0043179D01*
G01X0013392Y0043218D02*
G01X0013976Y0043218D01*
G01X0015678Y0036779D02*
G01X0015678Y0037096D01*
G01X0015934Y0036535D02*
G01X0015934Y0037096D01*
G01X0015934Y0037835D02*
G01X0015934Y0037962D01*
G01X0015934Y0037962D02*
G01X0015934Y0043073D01*
G01X0014928Y0037877D02*
G01X0014978Y0037927D01*
G54D37*
G01X0014961Y0039055D03*
G01X0012992Y0039055D03*
G01X0014961Y0042008D03*
G01X0012992Y0042008D03*
G54D38*
G01X0014978Y0038229D03*
G01X0015578Y0036679D03*
G01X0015328Y0042729D03*
M02*
