G04 This is an RS-274x file exported by *
G04 gerbv version 2.6A *
G04 More information is available about gerbv at *
G04 http://gerbv.geda-project.org/ *
G04 --End of header info--*
%MOIN*%
%FSLAX34Y34*%
%IPPOS*%
G04 --Define apertures--*
%ADD10C,0.0100*%
%ADD11C,0.0236*%
%ADD12C,0.0079*%
%ADD13C,0.0079*%
%ADD14C,0.0125*%
%ADD15C,0.0081*%
%ADD16C,0.0127*%
%ADD17C,0.0039*%
%ADD18C,0.0050*%
%ADD19C,0.0197*%
%ADD20C,0.0118*%
%ADD21C,0.0059*%
%ADD22C,0.0098*%
G04 --Start main section--*
G36*
G01X0017756Y0041781D02*
G37*
G36*
G01X0012638Y0041781D02*
G01X0012582Y0041781D01*
G01X0012582Y0041898D01*
G01X0012537Y0041898D01*
G01X0012537Y0041798D01*
G01X0012484Y0041798D01*
G01X0012484Y0041898D01*
G01X0012378Y0041898D01*
G01X0012378Y0041979D01*
G01X0012638Y0041979D01*
G01X0012638Y0041781D01*
G37*
G36*
G01X0012638Y0041781D02*
G37*
G36*
G01X0017756Y0041668D02*
G37*
G36*
G01X0017684Y0041668D02*
G37*
G36*
G01X0012638Y0041668D02*
G01X0012588Y0041668D01*
G01X0012588Y0041739D01*
G01X0012638Y0041739D01*
G01X0012638Y0041668D01*
G37*
G36*
G01X0012638Y0041668D02*
G37*
G36*
G01X0012566Y0041668D02*
G01X0012378Y0041668D01*
G01X0012378Y0041739D01*
G01X0012566Y0041739D01*
G01X0012566Y0041668D01*
G37*
G36*
G01X0012566Y0041668D02*
G37*
G36*
G01X0017684Y0041555D02*
G37*
G36*
G01X0012566Y0041555D02*
G01X0012535Y0041555D01*
G01X0012536Y0041554D01*
G01X0012539Y0041552D01*
G01X0012542Y0041549D01*
G01X0012546Y0041545D01*
G01X0012551Y0041541D01*
G01X0012555Y0041536D01*
G01X0012559Y0041530D01*
G01X0012562Y0041525D01*
G01X0012563Y0041524D01*
G01X0012564Y0041522D01*
G01X0012565Y0041519D01*
G01X0012567Y0041514D01*
G01X0012568Y0041509D01*
G01X0012569Y0041502D01*
G01X0012570Y0041495D01*
G01X0012570Y0041487D01*
G01X0012570Y0041486D01*
G01X0012570Y0041485D01*
G01X0012570Y0041484D01*
G01X0012570Y0041482D01*
G01X0012569Y0041476D01*
G01X0012568Y0041470D01*
G01X0012566Y0041462D01*
G01X0012563Y0041455D01*
G01X0012559Y0041447D01*
G01X0012552Y0041440D01*
G01X0012551Y0041439D01*
G01X0012549Y0041437D01*
G01X0012545Y0041435D01*
G01X0012539Y0041431D01*
G01X0012531Y0041428D01*
G01X0012522Y0041426D01*
G01X0012510Y0041424D01*
G01X0012498Y0041423D01*
G01X0012378Y0041423D01*
G01X0012378Y0041495D01*
G01X0012484Y0041495D01*
G01X0012488Y0041496D01*
G01X0012491Y0041496D01*
G01X0012499Y0041498D01*
G01X0012503Y0041500D01*
G01X0012507Y0041502D01*
G01X0012507Y0041502D01*
G01X0012508Y0041503D01*
G01X0012509Y0041505D01*
G01X0012510Y0041507D01*
G01X0012512Y0041510D01*
G01X0012513Y0041512D01*
G01X0012514Y0041516D01*
G01X0012514Y0041520D01*
G01X0012514Y0041521D01*
G01X0012514Y0041523D01*
G01X0012514Y0041525D01*
G01X0012513Y0041528D01*
G01X0012512Y0041531D01*
G01X0012510Y0041535D01*
G01X0012507Y0041538D01*
G01X0012504Y0041542D01*
G01X0012504Y0041542D01*
G01X0012502Y0041543D01*
G01X0012499Y0041544D01*
G01X0012496Y0041545D01*
G01X0012491Y0041547D01*
G01X0012485Y0041548D01*
G01X0012477Y0041549D01*
G01X0012468Y0041550D01*
G01X0012378Y0041550D01*
G01X0012378Y0041622D01*
G01X0012566Y0041622D01*
G01X0012566Y0041555D01*
G37*
G36*
G01X0012566Y0041555D02*
G37*
G36*
G01X0017606Y0041388D02*
G37*
G36*
G01X0012488Y0041388D02*
G01X0012491Y0041388D01*
G01X0012496Y0041388D01*
G01X0012505Y0041386D01*
G01X0012516Y0041384D01*
G01X0012527Y0041380D01*
G01X0012538Y0041375D01*
G01X0012542Y0041372D01*
G01X0012547Y0041368D01*
G01X0012548Y0041368D01*
G01X0012548Y0041367D01*
G01X0012550Y0041366D01*
G01X0012551Y0041364D01*
G01X0012555Y0041360D01*
G01X0012559Y0041353D01*
G01X0012563Y0041345D01*
G01X0012567Y0041335D01*
G01X0012569Y0041325D01*
G01X0012570Y0041318D01*
G01X0012570Y0041312D01*
G01X0012570Y0041312D01*
G01X0012570Y0041311D01*
G01X0012570Y0041308D01*
G01X0012570Y0041305D01*
G01X0012569Y0041300D01*
G01X0012568Y0041294D01*
G01X0012567Y0041288D01*
G01X0012565Y0041282D01*
G01X0012563Y0041276D01*
G01X0012562Y0041275D01*
G01X0012561Y0041273D01*
G01X0012560Y0041271D01*
G01X0012557Y0041267D01*
G01X0012553Y0041263D01*
G01X0012549Y0041259D01*
G01X0012544Y0041254D01*
G01X0012538Y0041249D01*
G01X0012566Y0041249D01*
G01X0012566Y0041182D01*
G01X0012377Y0041182D01*
G01X0012374Y0041182D01*
G01X0012370Y0041183D01*
G01X0012365Y0041184D01*
G01X0012359Y0041185D01*
G01X0012353Y0041187D01*
G01X0012347Y0041189D01*
G01X0012347Y0041190D01*
G01X0012344Y0041191D01*
G01X0012341Y0041192D01*
G01X0012338Y0041195D01*
G01X0012334Y0041197D01*
G01X0012329Y0041201D01*
G01X0012325Y0041205D01*
G01X0012321Y0041210D01*
G01X0012321Y0041210D01*
G01X0012320Y0041212D01*
G01X0012318Y0041214D01*
G01X0012315Y0041218D01*
G01X0012313Y0041223D01*
G01X0012311Y0041228D01*
G01X0012309Y0041234D01*
G01X0012307Y0041241D01*
G01X0012307Y0041242D01*
G01X0012306Y0041245D01*
G01X0012306Y0041248D01*
G01X0012305Y0041254D01*
G01X0012304Y0041260D01*
G01X0012303Y0041268D01*
G01X0012302Y0041276D01*
G01X0012302Y0041285D01*
G01X0012302Y0041285D01*
G01X0012302Y0041287D01*
G01X0012302Y0041290D01*
G01X0012303Y0041294D01*
G01X0012303Y0041299D01*
G01X0012303Y0041304D01*
G01X0012304Y0041310D01*
G01X0012305Y0041316D01*
G01X0012306Y0041329D01*
G01X0012309Y0041342D01*
G01X0012311Y0041348D01*
G01X0012314Y0041353D01*
G01X0012316Y0041359D01*
G01X0012319Y0041363D01*
G01X0012320Y0041364D01*
G01X0012323Y0041366D01*
G01X0012326Y0041370D01*
G01X0012332Y0041373D01*
G01X0012338Y0041377D01*
G01X0012346Y0041380D01*
G01X0012355Y0041383D01*
G01X0012359Y0041383D01*
G01X0012365Y0041384D01*
G01X0012374Y0041384D01*
G01X0012366Y0041314D01*
G01X0012366Y0041314D01*
G01X0012365Y0041313D01*
G01X0012363Y0041313D01*
G01X0012361Y0041312D01*
G01X0012357Y0041309D01*
G01X0012355Y0041308D01*
G01X0012353Y0041306D01*
G01X0012353Y0041305D01*
G01X0012352Y0041304D01*
G01X0012351Y0041302D01*
G01X0012350Y0041300D01*
G01X0012349Y0041297D01*
G01X0012348Y0041294D01*
G01X0012348Y0041290D01*
G01X0012347Y0041286D01*
G01X0012347Y0041285D01*
G01X0012347Y0041283D01*
G01X0012348Y0041280D01*
G01X0012348Y0041277D01*
G01X0012349Y0041273D01*
G01X0012351Y0041269D01*
G01X0012353Y0041265D01*
G01X0012356Y0041262D01*
G01X0012356Y0041262D01*
G01X0012358Y0041261D01*
G01X0012359Y0041260D01*
G01X0012362Y0041258D01*
G01X0012367Y0041256D01*
G01X0012371Y0041256D01*
G01X0012377Y0041255D01*
G01X0012384Y0041254D01*
G01X0012412Y0041254D01*
G01X0012412Y0041255D01*
G01X0012411Y0041256D01*
G01X0012408Y0041258D01*
G01X0012406Y0041261D01*
G01X0012402Y0041264D01*
G01X0012400Y0041268D01*
G01X0012397Y0041272D01*
G01X0012394Y0041275D01*
G01X0012394Y0041276D01*
G01X0012393Y0041278D01*
G01X0012392Y0041282D01*
G01X0012390Y0041286D01*
G01X0012389Y0041292D01*
G01X0012387Y0041298D01*
G01X0012386Y0041305D01*
G01X0012386Y0041312D01*
G01X0012386Y0041312D01*
G01X0012386Y0041313D01*
G01X0012386Y0041316D01*
G01X0012386Y0041318D01*
G01X0012387Y0041321D01*
G01X0012388Y0041325D01*
G01X0012390Y0041334D01*
G01X0012392Y0041338D01*
G01X0012394Y0041343D01*
G01X0012396Y0041348D01*
G01X0012400Y0041353D01*
G01X0012403Y0041358D01*
G01X0012408Y0041363D01*
G01X0012413Y0041368D01*
G01X0012419Y0041373D01*
G01X0012419Y0041373D01*
G01X0012420Y0041373D01*
G01X0012421Y0041374D01*
G01X0012423Y0041375D01*
G01X0012425Y0041377D01*
G01X0012428Y0041378D01*
G01X0012431Y0041379D01*
G01X0012435Y0041381D01*
G01X0012444Y0041384D01*
G01X0012455Y0041387D01*
G01X0012467Y0041388D01*
G01X0012481Y0041389D01*
G01X0012485Y0041389D01*
G01X0012488Y0041388D01*
G37*
G36*
G01X0012488Y0041388D02*
G37*
G36*
G01X0017597Y0041147D02*
G37*
G36*
G01X0012479Y0041147D02*
G01X0012482Y0041146D01*
G01X0012487Y0041146D01*
G01X0012492Y0041145D01*
G01X0012497Y0041144D01*
G01X0012508Y0041141D01*
G01X0012514Y0041138D01*
G01X0012520Y0041135D01*
G01X0012526Y0041132D01*
G01X0012532Y0041128D01*
G01X0012538Y0041124D01*
G01X0012543Y0041119D01*
G01X0012543Y0041119D01*
G01X0012544Y0041118D01*
G01X0012545Y0041116D01*
G01X0012547Y0041114D01*
G01X0012549Y0041111D01*
G01X0012551Y0041107D01*
G01X0012554Y0041104D01*
G01X0012557Y0041099D01*
G01X0012559Y0041094D01*
G01X0012562Y0041088D01*
G01X0012564Y0041081D01*
G01X0012566Y0041074D01*
G01X0012568Y0041067D01*
G01X0012569Y0041059D01*
G01X0012570Y0041050D01*
G01X0012570Y0041041D01*
G01X0012570Y0041041D01*
G01X0012570Y0041039D01*
G01X0012570Y0041037D01*
G01X0012570Y0041035D01*
G01X0012570Y0041031D01*
G01X0012570Y0041027D01*
G01X0012569Y0041018D01*
G01X0012568Y0041008D01*
G01X0012565Y0040998D01*
G01X0012562Y0040987D01*
G01X0012558Y0040978D01*
G01X0012558Y0040977D01*
G01X0012558Y0040977D01*
G01X0012556Y0040974D01*
G01X0012553Y0040970D01*
G01X0012549Y0040965D01*
G01X0012544Y0040958D01*
G01X0012538Y0040953D01*
G01X0012531Y0040947D01*
G01X0012523Y0040942D01*
G01X0012522Y0040942D01*
G01X0012522Y0040941D01*
G01X0012520Y0040941D01*
G01X0012518Y0040940D01*
G01X0012516Y0040939D01*
G01X0012513Y0040938D01*
G01X0012507Y0040936D01*
G01X0012498Y0040933D01*
G01X0012488Y0040932D01*
G01X0012476Y0040930D01*
G01X0012463Y0040930D01*
G01X0012455Y0040930D01*
G01X0012455Y0041074D01*
G01X0012454Y0041074D01*
G01X0012452Y0041073D01*
G01X0012448Y0041073D01*
G01X0012445Y0041072D01*
G01X0012436Y0041069D01*
G01X0012432Y0041067D01*
G01X0012428Y0041065D01*
G01X0012428Y0041064D01*
G01X0012427Y0041063D01*
G01X0012425Y0041061D01*
G01X0012422Y0041057D01*
G01X0012420Y0041054D01*
G01X0012418Y0041049D01*
G01X0012417Y0041044D01*
G01X0012416Y0041037D01*
G01X0012416Y0041037D01*
G01X0012416Y0041036D01*
G01X0012417Y0041034D01*
G01X0012417Y0041031D01*
G01X0012419Y0041025D01*
G01X0012420Y0041021D01*
G01X0012421Y0041018D01*
G01X0012421Y0041017D01*
G01X0012422Y0041017D01*
G01X0012424Y0041014D01*
G01X0012426Y0041012D01*
G01X0012428Y0041010D01*
G01X0012430Y0041007D01*
G01X0012434Y0041005D01*
G01X0012427Y0040934D01*
G01X0012427Y0040934D01*
G01X0012426Y0040935D01*
G01X0012424Y0040936D01*
G01X0012422Y0040937D01*
G01X0012418Y0040940D01*
G01X0012411Y0040945D01*
G01X0012405Y0040951D01*
G01X0012398Y0040958D01*
G01X0012392Y0040965D01*
G01X0012386Y0040974D01*
G01X0012386Y0040974D01*
G01X0012386Y0040975D01*
G01X0012385Y0040976D01*
G01X0012385Y0040978D01*
G01X0012384Y0040980D01*
G01X0012383Y0040983D01*
G01X0012381Y0040986D01*
G01X0012380Y0040990D01*
G01X0012379Y0040995D01*
G01X0012378Y0041000D01*
G01X0012377Y0041005D01*
G01X0012376Y0041011D01*
G01X0012375Y0041017D01*
G01X0012375Y0041024D01*
G01X0012374Y0041031D01*
G01X0012374Y0041039D01*
G01X0012374Y0041040D01*
G01X0012374Y0041041D01*
G01X0012374Y0041043D01*
G01X0012374Y0041046D01*
G01X0012375Y0041049D01*
G01X0012375Y0041052D01*
G01X0012376Y0041061D01*
G01X0012376Y0041070D01*
G01X0012378Y0041080D01*
G01X0012381Y0041090D01*
G01X0012385Y0041098D01*
G01X0012385Y0041099D01*
G01X0012386Y0041101D01*
G01X0012389Y0041106D01*
G01X0012393Y0041110D01*
G01X0012397Y0041116D01*
G01X0012403Y0041122D01*
G01X0012410Y0041128D01*
G01X0012418Y0041133D01*
G01X0012418Y0041133D01*
G01X0012419Y0041134D01*
G01X0012420Y0041135D01*
G01X0012422Y0041135D01*
G01X0012427Y0041138D01*
G01X0012433Y0041140D01*
G01X0012441Y0041143D01*
G01X0012450Y0041145D01*
G01X0012460Y0041147D01*
G01X0012472Y0041147D01*
G01X0012476Y0041147D01*
G01X0012479Y0041147D01*
G37*
G36*
G01X0012479Y0041147D02*
G37*
G36*
G01X0017684Y0040828D02*
G37*
G36*
G01X0012566Y0040828D02*
G01X0012535Y0040828D01*
G01X0012536Y0040828D01*
G01X0012539Y0040827D01*
G01X0012542Y0040825D01*
G01X0012546Y0040822D01*
G01X0012555Y0040816D01*
G01X0012560Y0040812D01*
G01X0012563Y0040809D01*
G01X0012563Y0040808D01*
G01X0012564Y0040807D01*
G01X0012565Y0040804D01*
G01X0012567Y0040801D01*
G01X0012568Y0040798D01*
G01X0012569Y0040793D01*
G01X0012570Y0040788D01*
G01X0012570Y0040783D01*
G01X0012570Y0040782D01*
G01X0012570Y0040780D01*
G01X0012570Y0040776D01*
G01X0012569Y0040772D01*
G01X0012568Y0040767D01*
G01X0012566Y0040761D01*
G01X0012564Y0040755D01*
G01X0012560Y0040748D01*
G01X0012509Y0040770D01*
G01X0012509Y0040771D01*
G01X0012510Y0040772D01*
G01X0012511Y0040774D01*
G01X0012512Y0040777D01*
G01X0012514Y0040784D01*
G01X0012515Y0040787D01*
G01X0012515Y0040790D01*
G01X0012515Y0040791D01*
G01X0012515Y0040792D01*
G01X0012514Y0040795D01*
G01X0012513Y0040798D01*
G01X0012512Y0040802D01*
G01X0012509Y0040805D01*
G01X0012507Y0040809D01*
G01X0012503Y0040812D01*
G01X0012502Y0040813D01*
G01X0012499Y0040814D01*
G01X0012498Y0040815D01*
G01X0012495Y0040816D01*
G01X0012492Y0040817D01*
G01X0012489Y0040818D01*
G01X0012485Y0040819D01*
G01X0012481Y0040820D01*
G01X0012475Y0040821D01*
G01X0012470Y0040821D01*
G01X0012463Y0040822D01*
G01X0012457Y0040823D01*
G01X0012449Y0040823D01*
G01X0012378Y0040823D01*
G01X0012378Y0040896D01*
G01X0012566Y0040896D01*
G01X0012566Y0040828D01*
G37*
G36*
G01X0012566Y0040828D02*
G37*
G36*
G01X0017756Y0040516D02*
G37*
G36*
G01X0012638Y0040516D02*
G01X0012582Y0040516D01*
G01X0012582Y0040651D01*
G01X0012541Y0040651D01*
G01X0012541Y0040526D01*
G01X0012488Y0040526D01*
G01X0012488Y0040651D01*
G01X0012437Y0040651D01*
G01X0012437Y0040512D01*
G01X0012378Y0040512D01*
G01X0012378Y0040731D01*
G01X0012638Y0040731D01*
G01X0012638Y0040516D01*
G37*
G36*
G01X0012638Y0040516D02*
G37*
G36*
G01X0017684Y0040407D02*
G37*
G36*
G01X0012566Y0040407D02*
G01X0012535Y0040407D01*
G01X0012536Y0040407D01*
G01X0012539Y0040405D01*
G01X0012542Y0040402D01*
G01X0012546Y0040398D01*
G01X0012551Y0040393D01*
G01X0012555Y0040388D01*
G01X0012559Y0040383D01*
G01X0012562Y0040377D01*
G01X0012563Y0040376D01*
G01X0012564Y0040374D01*
G01X0012565Y0040371D01*
G01X0012567Y0040367D01*
G01X0012568Y0040361D01*
G01X0012569Y0040354D01*
G01X0012570Y0040347D01*
G01X0012570Y0040339D01*
G01X0012570Y0040339D01*
G01X0012570Y0040338D01*
G01X0012570Y0040336D01*
G01X0012570Y0040335D01*
G01X0012569Y0040329D01*
G01X0012568Y0040322D01*
G01X0012566Y0040315D01*
G01X0012563Y0040307D01*
G01X0012559Y0040300D01*
G01X0012552Y0040292D01*
G01X0012551Y0040292D01*
G01X0012549Y0040290D01*
G01X0012545Y0040287D01*
G01X0012539Y0040284D01*
G01X0012531Y0040281D01*
G01X0012522Y0040278D01*
G01X0012510Y0040276D01*
G01X0012498Y0040275D01*
G01X0012378Y0040275D01*
G01X0012378Y0040348D01*
G01X0012484Y0040348D01*
G01X0012488Y0040348D01*
G01X0012491Y0040349D01*
G01X0012499Y0040351D01*
G01X0012503Y0040352D01*
G01X0012507Y0040354D01*
G01X0012507Y0040355D01*
G01X0012508Y0040356D01*
G01X0012509Y0040357D01*
G01X0012510Y0040359D01*
G01X0012512Y0040362D01*
G01X0012513Y0040365D01*
G01X0012514Y0040369D01*
G01X0012514Y0040373D01*
G01X0012514Y0040373D01*
G01X0012514Y0040375D01*
G01X0012514Y0040378D01*
G01X0012513Y0040380D01*
G01X0012512Y0040384D01*
G01X0012510Y0040388D01*
G01X0012507Y0040391D01*
G01X0012504Y0040394D01*
G01X0012504Y0040395D01*
G01X0012502Y0040396D01*
G01X0012499Y0040397D01*
G01X0012496Y0040398D01*
G01X0012491Y0040400D01*
G01X0012485Y0040401D01*
G01X0012477Y0040402D01*
G01X0012468Y0040402D01*
G01X0012378Y0040402D01*
G01X0012378Y0040474D01*
G01X0012566Y0040474D01*
G01X0012566Y0040407D01*
G37*
G36*
G01X0012566Y0040407D02*
G37*
G36*
G01X0017600Y0040240D02*
G37*
G36*
G01X0012481Y0040240D02*
G01X0012488Y0040240D01*
G01X0012496Y0040239D01*
G01X0012504Y0040237D01*
G01X0012512Y0040235D01*
G01X0012519Y0040231D01*
G01X0012520Y0040231D01*
G01X0012522Y0040230D01*
G01X0012524Y0040229D01*
G01X0012528Y0040226D01*
G01X0012532Y0040223D01*
G01X0012536Y0040220D01*
G01X0012541Y0040216D01*
G01X0012545Y0040212D01*
G01X0012545Y0040211D01*
G01X0012547Y0040209D01*
G01X0012549Y0040207D01*
G01X0012551Y0040204D01*
G01X0012554Y0040200D01*
G01X0012557Y0040195D01*
G01X0012559Y0040190D01*
G01X0012561Y0040186D01*
G01X0012561Y0040185D01*
G01X0012562Y0040185D01*
G01X0012563Y0040182D01*
G01X0012564Y0040177D01*
G01X0012566Y0040171D01*
G01X0012568Y0040163D01*
G01X0012569Y0040154D01*
G01X0012570Y0040143D01*
G01X0012570Y0040132D01*
G01X0012570Y0040131D01*
G01X0012570Y0040130D01*
G01X0012570Y0040127D01*
G01X0012570Y0040124D01*
G01X0012570Y0040120D01*
G01X0012569Y0040116D01*
G01X0012569Y0040111D01*
G01X0012568Y0040106D01*
G01X0012566Y0040094D01*
G01X0012563Y0040083D01*
G01X0012560Y0040072D01*
G01X0012557Y0040066D01*
G01X0012554Y0040062D01*
G01X0012554Y0040061D01*
G01X0012553Y0040061D01*
G01X0012551Y0040058D01*
G01X0012547Y0040054D01*
G01X0012542Y0040048D01*
G01X0012535Y0040043D01*
G01X0012526Y0040037D01*
G01X0012517Y0040032D01*
G01X0012506Y0040028D01*
G01X0012497Y0040095D01*
G01X0012497Y0040095D01*
G01X0012498Y0040096D01*
G01X0012501Y0040097D01*
G01X0012503Y0040098D01*
G01X0012509Y0040101D01*
G01X0012512Y0040104D01*
G01X0012515Y0040107D01*
G01X0012515Y0040108D01*
G01X0012516Y0040108D01*
G01X0012516Y0040110D01*
G01X0012518Y0040113D01*
G01X0012519Y0040117D01*
G01X0012520Y0040120D01*
G01X0012521Y0040125D01*
G01X0012521Y0040130D01*
G01X0012521Y0040131D01*
G01X0012521Y0040133D01*
G01X0012521Y0040136D01*
G01X0012520Y0040140D01*
G01X0012518Y0040145D01*
G01X0012516Y0040150D01*
G01X0012513Y0040154D01*
G01X0012508Y0040159D01*
G01X0012508Y0040159D01*
G01X0012506Y0040161D01*
G01X0012503Y0040162D01*
G01X0012499Y0040164D01*
G01X0012493Y0040166D01*
G01X0012487Y0040168D01*
G01X0012479Y0040169D01*
G01X0012470Y0040170D01*
G01X0012466Y0040170D01*
G01X0012462Y0040169D01*
G01X0012456Y0040168D01*
G01X0012451Y0040167D01*
G01X0012445Y0040165D01*
G01X0012439Y0040162D01*
G01X0012435Y0040159D01*
G01X0012434Y0040158D01*
G01X0012433Y0040157D01*
G01X0012431Y0040154D01*
G01X0012429Y0040151D01*
G01X0012427Y0040147D01*
G01X0012425Y0040142D01*
G01X0012423Y0040137D01*
G01X0012423Y0040131D01*
G01X0012423Y0040130D01*
G01X0012423Y0040128D01*
G01X0012423Y0040126D01*
G01X0012424Y0040122D01*
G01X0012425Y0040119D01*
G01X0012426Y0040115D01*
G01X0012428Y0040111D01*
G01X0012430Y0040107D01*
G01X0012430Y0040107D01*
G01X0012431Y0040106D01*
G01X0012433Y0040104D01*
G01X0012436Y0040102D01*
G01X0012438Y0040100D01*
G01X0012442Y0040097D01*
G01X0012447Y0040094D01*
G01X0012452Y0040092D01*
G01X0012445Y0040024D01*
G01X0012444Y0040024D01*
G01X0012441Y0040025D01*
G01X0012437Y0040026D01*
G01X0012432Y0040028D01*
G01X0012426Y0040031D01*
G01X0012420Y0040034D01*
G01X0012413Y0040038D01*
G01X0012407Y0040043D01*
G01X0012406Y0040043D01*
G01X0012404Y0040045D01*
G01X0012402Y0040048D01*
G01X0012398Y0040052D01*
G01X0012394Y0040056D01*
G01X0012390Y0040062D01*
G01X0012386Y0040069D01*
G01X0012383Y0040076D01*
G01X0012382Y0040077D01*
G01X0012381Y0040080D01*
G01X0012380Y0040084D01*
G01X0012378Y0040090D01*
G01X0012377Y0040097D01*
G01X0012376Y0040106D01*
G01X0012375Y0040116D01*
G01X0012374Y0040126D01*
G01X0012374Y0040127D01*
G01X0012374Y0040128D01*
G01X0012374Y0040129D01*
G01X0012374Y0040131D01*
G01X0012375Y0040137D01*
G01X0012375Y0040144D01*
G01X0012376Y0040152D01*
G01X0012376Y0040160D01*
G01X0012377Y0040169D01*
G01X0012379Y0040177D01*
G01X0012380Y0040178D01*
G01X0012380Y0040180D01*
G01X0012382Y0040184D01*
G01X0012384Y0040188D01*
G01X0012386Y0040194D01*
G01X0012389Y0040199D01*
G01X0012393Y0040205D01*
G01X0012397Y0040211D01*
G01X0012398Y0040211D01*
G01X0012400Y0040213D01*
G01X0012402Y0040215D01*
G01X0012406Y0040219D01*
G01X0012410Y0040222D01*
G01X0012415Y0040226D01*
G01X0012420Y0040230D01*
G01X0012427Y0040233D01*
G01X0012428Y0040233D01*
G01X0012430Y0040234D01*
G01X0012433Y0040235D01*
G01X0012438Y0040237D01*
G01X0012445Y0040239D01*
G01X0012453Y0040240D01*
G01X0012461Y0040240D01*
G01X0012471Y0040241D01*
G01X0012476Y0040241D01*
G01X0012481Y0040240D01*
G37*
G36*
G01X0012481Y0040240D02*
G37*
G36*
G01X0017597Y0039999D02*
G37*
G36*
G01X0012479Y0039999D02*
G01X0012482Y0039999D01*
G01X0012487Y0039998D01*
G01X0012491Y0039997D01*
G01X0012497Y0039996D01*
G01X0012508Y0039993D01*
G01X0012514Y0039990D01*
G01X0012520Y0039987D01*
G01X0012525Y0039984D01*
G01X0012532Y0039980D01*
G01X0012537Y0039976D01*
G01X0012542Y0039971D01*
G01X0012543Y0039970D01*
G01X0012544Y0039969D01*
G01X0012545Y0039968D01*
G01X0012547Y0039966D01*
G01X0012549Y0039963D01*
G01X0012551Y0039959D01*
G01X0012554Y0039955D01*
G01X0012557Y0039950D01*
G01X0012559Y0039945D01*
G01X0012561Y0039939D01*
G01X0012564Y0039933D01*
G01X0012566Y0039925D01*
G01X0012568Y0039918D01*
G01X0012569Y0039910D01*
G01X0012570Y0039901D01*
G01X0012570Y0039892D01*
G01X0012570Y0039892D01*
G01X0012570Y0039890D01*
G01X0012570Y0039887D01*
G01X0012570Y0039883D01*
G01X0012569Y0039879D01*
G01X0012568Y0039873D01*
G01X0012568Y0039867D01*
G01X0012566Y0039861D01*
G01X0012565Y0039854D01*
G01X0012562Y0039847D01*
G01X0012560Y0039840D01*
G01X0012557Y0039833D01*
G01X0012552Y0039826D01*
G01X0012548Y0039819D01*
G01X0012543Y0039813D01*
G01X0012537Y0039807D01*
G01X0012537Y0039807D01*
G01X0012536Y0039806D01*
G01X0012534Y0039805D01*
G01X0012533Y0039803D01*
G01X0012530Y0039802D01*
G01X0012527Y0039800D01*
G01X0012524Y0039798D01*
G01X0012519Y0039795D01*
G01X0012510Y0039791D01*
G01X0012499Y0039787D01*
G01X0012486Y0039784D01*
G01X0012480Y0039784D01*
G01X0012472Y0039784D01*
G01X0012468Y0039784D01*
G01X0012465Y0039784D01*
G01X0012462Y0039784D01*
G01X0012457Y0039785D01*
G01X0012453Y0039786D01*
G01X0012447Y0039787D01*
G01X0012436Y0039791D01*
G01X0012430Y0039793D01*
G01X0012424Y0039796D01*
G01X0012419Y0039799D01*
G01X0012412Y0039803D01*
G01X0012407Y0039807D01*
G01X0012402Y0039812D01*
G01X0012401Y0039813D01*
G01X0012401Y0039814D01*
G01X0012399Y0039815D01*
G01X0012397Y0039818D01*
G01X0012395Y0039820D01*
G01X0012393Y0039824D01*
G01X0012390Y0039828D01*
G01X0012388Y0039833D01*
G01X0012385Y0039838D01*
G01X0012383Y0039845D01*
G01X0012380Y0039851D01*
G01X0012378Y0039858D01*
G01X0012376Y0039866D01*
G01X0012376Y0039874D01*
G01X0012375Y0039883D01*
G01X0012374Y0039892D01*
G01X0012374Y0039893D01*
G01X0012374Y0039894D01*
G01X0012374Y0039897D01*
G01X0012375Y0039900D01*
G01X0012375Y0039904D01*
G01X0012376Y0039908D01*
G01X0012376Y0039913D01*
G01X0012377Y0039918D01*
G01X0012380Y0039930D01*
G01X0012384Y0039942D01*
G01X0012389Y0039954D01*
G01X0012393Y0039960D01*
G01X0012397Y0039966D01*
G01X0012397Y0039966D01*
G01X0012398Y0039967D01*
G01X0012400Y0039969D01*
G01X0012402Y0039971D01*
G01X0012405Y0039974D01*
G01X0012408Y0039977D01*
G01X0012412Y0039979D01*
G01X0012417Y0039983D01*
G01X0012422Y0039986D01*
G01X0012428Y0039989D01*
G01X0012434Y0039992D01*
G01X0012440Y0039994D01*
G01X0012447Y0039996D01*
G01X0012455Y0039998D01*
G01X0012463Y0039999D01*
G01X0012472Y0040000D01*
G01X0012476Y0040000D01*
G01X0012479Y0039999D01*
G37*
G36*
G01X0012479Y0039999D02*
G37*
G36*
G01X0030024Y0039777D02*
G37*
G36*
G01X0023331Y0039777D02*
G37*
G36*
G01X0017600Y0039758D02*
G37*
G36*
G01X0012481Y0039758D02*
G01X0012486Y0039758D01*
G01X0012490Y0039757D01*
G01X0012495Y0039756D01*
G01X0012500Y0039755D01*
G01X0012512Y0039752D01*
G01X0012524Y0039749D01*
G01X0012535Y0039743D01*
G01X0012541Y0039740D01*
G01X0012545Y0039736D01*
G01X0012546Y0039735D01*
G01X0012546Y0039735D01*
G01X0012548Y0039733D01*
G01X0012549Y0039732D01*
G01X0012553Y0039727D01*
G01X0012558Y0039720D01*
G01X0012562Y0039712D01*
G01X0012567Y0039703D01*
G01X0012569Y0039691D01*
G01X0012570Y0039685D01*
G01X0012570Y0039679D01*
G01X0012570Y0039678D01*
G01X0012570Y0039676D01*
G01X0012570Y0039673D01*
G01X0012570Y0039669D01*
G01X0012569Y0039664D01*
G01X0012568Y0039659D01*
G01X0012567Y0039654D01*
G01X0012565Y0039649D01*
G01X0012564Y0039648D01*
G01X0012564Y0039646D01*
G01X0012562Y0039644D01*
G01X0012560Y0039641D01*
G01X0012558Y0039637D01*
G01X0012555Y0039633D01*
G01X0012551Y0039628D01*
G01X0012548Y0039624D01*
G01X0012638Y0039624D01*
G01X0012638Y0039551D01*
G01X0012378Y0039551D01*
G01X0012378Y0039619D01*
G01X0012406Y0039619D01*
G01X0012405Y0039619D01*
G01X0012403Y0039621D01*
G01X0012400Y0039624D01*
G01X0012396Y0039627D01*
G01X0012393Y0039632D01*
G01X0012388Y0039636D01*
G01X0012385Y0039640D01*
G01X0012382Y0039645D01*
G01X0012382Y0039645D01*
G01X0012381Y0039648D01*
G01X0012380Y0039651D01*
G01X0012378Y0039655D01*
G01X0012376Y0039660D01*
G01X0012376Y0039666D01*
G01X0012375Y0039672D01*
G01X0012374Y0039679D01*
G01X0012374Y0039680D01*
G01X0012374Y0039681D01*
G01X0012374Y0039683D01*
G01X0012375Y0039686D01*
G01X0012375Y0039689D01*
G01X0012376Y0039693D01*
G01X0012378Y0039701D01*
G01X0012381Y0039711D01*
G01X0012384Y0039715D01*
G01X0012386Y0039720D01*
G01X0012390Y0039725D01*
G01X0012393Y0039730D01*
G01X0012398Y0039734D01*
G01X0012403Y0039738D01*
G01X0012403Y0039738D01*
G01X0012404Y0039739D01*
G01X0012406Y0039740D01*
G01X0012408Y0039741D01*
G01X0012411Y0039743D01*
G01X0012414Y0039744D01*
G01X0012419Y0039746D01*
G01X0012423Y0039748D01*
G01X0012428Y0039750D01*
G01X0012433Y0039752D01*
G01X0012445Y0039755D01*
G01X0012459Y0039757D01*
G01X0012474Y0039758D01*
G01X0012479Y0039758D01*
G01X0012481Y0039758D01*
G37*
G36*
G01X0012481Y0039758D02*
G37*
G36*
G01X0030024Y0039674D02*
G37*
G36*
G01X0023331Y0039674D02*
G37*
G36*
G01X0037272Y0039549D02*
G37*
G36*
G01X0037737Y0039543D02*
G37*
G36*
G01X0029953Y0039432D02*
G37*
G36*
G01X0023260Y0039432D02*
G37*
G36*
G01X0017597Y0039516D02*
G37*
G36*
G01X0012479Y0039516D02*
G01X0012482Y0039515D01*
G01X0012487Y0039515D01*
G01X0012492Y0039514D01*
G01X0012497Y0039513D01*
G01X0012508Y0039510D01*
G01X0012514Y0039507D01*
G01X0012520Y0039504D01*
G01X0012526Y0039501D01*
G01X0012532Y0039497D01*
G01X0012538Y0039493D01*
G01X0012543Y0039488D01*
G01X0012543Y0039488D01*
G01X0012544Y0039487D01*
G01X0012545Y0039486D01*
G01X0012547Y0039483D01*
G01X0012549Y0039480D01*
G01X0012551Y0039477D01*
G01X0012554Y0039473D01*
G01X0012557Y0039468D01*
G01X0012559Y0039463D01*
G01X0012562Y0039457D01*
G01X0012564Y0039451D01*
G01X0012566Y0039443D01*
G01X0012568Y0039436D01*
G01X0012569Y0039428D01*
G01X0012570Y0039419D01*
G01X0012570Y0039410D01*
G01X0012570Y0039410D01*
G01X0012570Y0039408D01*
G01X0012570Y0039407D01*
G01X0012570Y0039404D01*
G01X0012570Y0039400D01*
G01X0012570Y0039396D01*
G01X0012569Y0039387D01*
G01X0012568Y0039377D01*
G01X0012565Y0039367D01*
G01X0012562Y0039356D01*
G01X0012558Y0039347D01*
G01X0012558Y0039346D01*
G01X0012558Y0039346D01*
G01X0012556Y0039343D01*
G01X0012553Y0039339D01*
G01X0012549Y0039334D01*
G01X0012544Y0039328D01*
G01X0012538Y0039322D01*
G01X0012531Y0039316D01*
G01X0012523Y0039311D01*
G01X0012522Y0039311D01*
G01X0012522Y0039311D01*
G01X0012520Y0039310D01*
G01X0012518Y0039309D01*
G01X0012516Y0039308D01*
G01X0012513Y0039307D01*
G01X0012507Y0039305D01*
G01X0012498Y0039303D01*
G01X0012488Y0039301D01*
G01X0012476Y0039299D01*
G01X0012463Y0039299D01*
G01X0012455Y0039299D01*
G01X0012455Y0039443D01*
G01X0012454Y0039443D01*
G01X0012452Y0039443D01*
G01X0012448Y0039442D01*
G01X0012445Y0039441D01*
G01X0012436Y0039438D01*
G01X0012432Y0039436D01*
G01X0012428Y0039434D01*
G01X0012428Y0039434D01*
G01X0012427Y0039432D01*
G01X0012425Y0039430D01*
G01X0012422Y0039426D01*
G01X0012420Y0039423D01*
G01X0012418Y0039418D01*
G01X0012417Y0039413D01*
G01X0012416Y0039407D01*
G01X0012416Y0039406D01*
G01X0012416Y0039405D01*
G01X0012417Y0039403D01*
G01X0012417Y0039400D01*
G01X0012419Y0039394D01*
G01X0012420Y0039390D01*
G01X0012421Y0039387D01*
G01X0012421Y0039386D01*
G01X0012422Y0039386D01*
G01X0012424Y0039383D01*
G01X0012426Y0039381D01*
G01X0012428Y0039379D01*
G01X0012430Y0039376D01*
G01X0012434Y0039374D01*
G01X0012427Y0039303D01*
G01X0012427Y0039303D01*
G01X0012426Y0039304D01*
G01X0012424Y0039305D01*
G01X0012422Y0039306D01*
G01X0012418Y0039310D01*
G01X0012411Y0039314D01*
G01X0012405Y0039320D01*
G01X0012398Y0039327D01*
G01X0012392Y0039334D01*
G01X0012386Y0039343D01*
G01X0012386Y0039343D01*
G01X0012386Y0039344D01*
G01X0012385Y0039345D01*
G01X0012385Y0039347D01*
G01X0012384Y0039349D01*
G01X0012383Y0039352D01*
G01X0012381Y0039355D01*
G01X0012380Y0039359D01*
G01X0012379Y0039364D01*
G01X0012378Y0039369D01*
G01X0012377Y0039374D01*
G01X0012376Y0039380D01*
G01X0012375Y0039386D01*
G01X0012375Y0039393D01*
G01X0012374Y0039400D01*
G01X0012374Y0039408D01*
G01X0012374Y0039409D01*
G01X0012374Y0039410D01*
G01X0012374Y0039412D01*
G01X0012374Y0039415D01*
G01X0012375Y0039418D01*
G01X0012375Y0039421D01*
G01X0012376Y0039430D01*
G01X0012376Y0039439D01*
G01X0012378Y0039449D01*
G01X0012381Y0039459D01*
G01X0012385Y0039467D01*
G01X0012385Y0039468D01*
G01X0012386Y0039470D01*
G01X0012389Y0039475D01*
G01X0012393Y0039479D01*
G01X0012397Y0039485D01*
G01X0012403Y0039491D01*
G01X0012410Y0039497D01*
G01X0012418Y0039503D01*
G01X0012418Y0039503D01*
G01X0012419Y0039503D01*
G01X0012420Y0039504D01*
G01X0012422Y0039504D01*
G01X0012427Y0039507D01*
G01X0012433Y0039509D01*
G01X0012441Y0039512D01*
G01X0012450Y0039514D01*
G01X0012460Y0039516D01*
G01X0012472Y0039516D01*
G01X0012476Y0039516D01*
G01X0012479Y0039516D01*
G37*
G36*
G01X0012479Y0039516D02*
G37*
G36*
G01X0037846Y0039552D02*
G37*
G36*
G01X0036839Y0039536D02*
G37*
G36*
G01X0017684Y0039197D02*
G37*
G36*
G01X0012566Y0039197D02*
G01X0012535Y0039197D01*
G01X0012536Y0039197D01*
G01X0012539Y0039196D01*
G01X0012542Y0039194D01*
G01X0012546Y0039191D01*
G01X0012555Y0039185D01*
G01X0012560Y0039181D01*
G01X0012563Y0039178D01*
G01X0012563Y0039177D01*
G01X0012564Y0039176D01*
G01X0012565Y0039173D01*
G01X0012567Y0039171D01*
G01X0012568Y0039167D01*
G01X0012569Y0039162D01*
G01X0012570Y0039157D01*
G01X0012570Y0039152D01*
G01X0012570Y0039151D01*
G01X0012570Y0039149D01*
G01X0012570Y0039145D01*
G01X0012569Y0039141D01*
G01X0012568Y0039136D01*
G01X0012566Y0039130D01*
G01X0012564Y0039124D01*
G01X0012560Y0039117D01*
G01X0012509Y0039139D01*
G01X0012509Y0039140D01*
G01X0012510Y0039141D01*
G01X0012511Y0039144D01*
G01X0012512Y0039146D01*
G01X0012514Y0039153D01*
G01X0012515Y0039156D01*
G01X0012515Y0039159D01*
G01X0012515Y0039160D01*
G01X0012515Y0039162D01*
G01X0012514Y0039164D01*
G01X0012513Y0039167D01*
G01X0012512Y0039171D01*
G01X0012509Y0039174D01*
G01X0012507Y0039178D01*
G01X0012503Y0039181D01*
G01X0012502Y0039182D01*
G01X0012499Y0039183D01*
G01X0012498Y0039184D01*
G01X0012495Y0039185D01*
G01X0012492Y0039186D01*
G01X0012489Y0039187D01*
G01X0012485Y0039188D01*
G01X0012481Y0039189D01*
G01X0012475Y0039190D01*
G01X0012470Y0039190D01*
G01X0012463Y0039191D01*
G01X0012457Y0039192D01*
G01X0012449Y0039192D01*
G01X0012378Y0039192D01*
G01X0012378Y0039265D01*
G01X0012566Y0039265D01*
G01X0012566Y0039197D01*
G37*
G36*
G01X0012566Y0039197D02*
G37*
G36*
G01X0029953Y0039194D02*
G37*
G36*
G01X0023260Y0039194D02*
G37*
G36*
G01X0017684Y0038931D02*
G37*
G36*
G01X0012566Y0038931D02*
G01X0012447Y0038894D01*
G01X0012566Y0038856D01*
G01X0012566Y0038784D01*
G01X0012378Y0038864D01*
G01X0012378Y0038927D01*
G01X0012566Y0039005D01*
G01X0012566Y0038931D01*
G37*
G36*
G01X0012566Y0038931D02*
G37*
G36*
G01X0030024Y0038826D02*
G37*
G36*
G01X0023331Y0038826D02*
G37*
G36*
G01X0017690Y0038754D02*
G37*
G36*
G01X0012572Y0038754D02*
G01X0012572Y0038753D01*
G01X0012573Y0038751D01*
G01X0012574Y0038749D01*
G01X0012575Y0038746D01*
G01X0012577Y0038742D01*
G01X0012580Y0038734D01*
G01X0012584Y0038725D01*
G01X0012589Y0038716D01*
G01X0012594Y0038706D01*
G01X0012600Y0038698D01*
G01X0012600Y0038698D01*
G01X0012601Y0038697D01*
G01X0012603Y0038695D01*
G01X0012607Y0038691D01*
G01X0012612Y0038686D01*
G01X0012618Y0038681D01*
G01X0012625Y0038676D01*
G01X0012633Y0038671D01*
G01X0012642Y0038666D01*
G01X0012642Y0038606D01*
G01X0012378Y0038606D01*
G01X0012378Y0038679D01*
G01X0012551Y0038679D01*
G01X0012550Y0038680D01*
G01X0012548Y0038682D01*
G01X0012546Y0038686D01*
G01X0012542Y0038690D01*
G01X0012539Y0038695D01*
G01X0012535Y0038701D01*
G01X0012532Y0038707D01*
G01X0012528Y0038714D01*
G01X0012528Y0038715D01*
G01X0012527Y0038716D01*
G01X0012525Y0038720D01*
G01X0012524Y0038725D01*
G01X0012521Y0038731D01*
G01X0012518Y0038738D01*
G01X0012516Y0038746D01*
G01X0012513Y0038755D01*
G01X0012572Y0038755D01*
G01X0012572Y0038754D01*
G37*
G36*
G01X0012572Y0038754D02*
G37*
G36*
G01X0037926Y0038550D02*
G37*
G36*
G01X0030024Y0038439D02*
G37*
G36*
G01X0023331Y0038439D02*
G37*
G36*
G01X0029953Y0038330D02*
G37*
G36*
G01X0023260Y0038330D02*
G37*
G36*
G01X0036659Y0038544D02*
G37*
G36*
G01X0036192Y0038551D02*
G37*
G36*
G01X0037315Y0038561D02*
G37*
G36*
G01X0036949Y0038562D02*
G37*
G36*
G01X0029868Y0038163D02*
G37*
G36*
G01X0023175Y0038163D02*
G37*
G36*
G01X0029865Y0037922D02*
G37*
G36*
G01X0023172Y0037922D02*
G37*
G36*
G01X0029868Y0037680D02*
G37*
G36*
G01X0023175Y0037680D02*
G37*
G36*
G01X0029865Y0037438D02*
G37*
G36*
G01X0023172Y0037438D02*
G37*
G36*
G01X0037632Y0037556D02*
G37*
G36*
G01X0037933Y0037554D02*
G37*
G36*
G01X0037078Y0037562D02*
G37*
G36*
G01X0029953Y0037120D02*
G37*
G36*
G01X0023260Y0037120D02*
G37*
G36*
G01X0029953Y0036853D02*
G37*
G36*
G01X0023260Y0036853D02*
G37*
G36*
G01X0029959Y0036677D02*
G37*
G36*
G01X0023266Y0036677D02*
G37*
G36*
G01X0037926Y0036538D02*
G37*
G36*
G01X0036378Y0036553D02*
G37*
G36*
G01X0040108Y0036512D02*
G37*
G36*
G01X0036966Y0036530D02*
G37*
G36*
G01X0037315Y0036549D02*
G37*
G36*
G01X0036701Y0036548D02*
G37*
G36*
G01X0043798Y0036530D02*
G37*
G36*
G01X0043110Y0036530D02*
G37*
G36*
G01X0041170Y0036501D02*
G37*
G36*
G01X0044867Y0036508D02*
G37*
G36*
G01X0041761Y0036508D02*
G37*
G36*
G01X0042276Y0036538D02*
G37*
G36*
G01X0044263Y0036523D02*
G37*
G36*
G01X0040567Y0036523D02*
G37*
G36*
G01X0037579Y0035546D02*
G37*
G36*
G01X0037247Y0035546D02*
G37*
G36*
G01X0044504Y0035678D02*
G37*
G36*
G01X0042206Y0035663D02*
G37*
G36*
G01X0040931Y0035682D02*
G37*
G36*
G01X0037920Y0035555D02*
G37*
G36*
G01X0041522Y0035678D02*
G37*
G36*
G01X0040269Y0035678D02*
G37*
G36*
G01X0043578Y0035693D02*
G37*
G36*
G01X0043015Y0035694D02*
G37*
G36*
G01X0017756Y0033316D02*
G37*
G36*
G01X0012638Y0033316D02*
G37*
G36*
G01X0017756Y0033203D02*
G37*
G36*
G01X0017684Y0033203D02*
G37*
G36*
G01X0012638Y0033203D02*
G37*
G36*
G01X0012566Y0033203D02*
G37*
G36*
G01X0017684Y0033090D02*
G37*
G36*
G01X0012566Y0033090D02*
G37*
G36*
G01X0017606Y0032924D02*
G37*
G36*
G01X0012488Y0032924D02*
G37*
G36*
G01X0017597Y0032682D02*
G37*
G36*
G01X0012479Y0032682D02*
G37*
G36*
G01X0037272Y0032462D02*
G37*
G36*
G01X0037737Y0032456D02*
G37*
G36*
G01X0030024Y0032301D02*
G37*
G36*
G01X0023331Y0032301D02*
G37*
G36*
G01X0017684Y0032364D02*
G37*
G36*
G01X0012566Y0032364D02*
G37*
G36*
G01X0037846Y0032466D02*
G37*
G36*
G01X0036839Y0032449D02*
G37*
G36*
G01X0030024Y0032198D02*
G37*
G36*
G01X0023331Y0032198D02*
G37*
G36*
G01X0017756Y0032052D02*
G37*
G36*
G01X0012638Y0032052D02*
G37*
G36*
G01X0029953Y0031956D02*
G37*
G36*
G01X0023260Y0031956D02*
G37*
G36*
G01X0017684Y0031943D02*
G37*
G36*
G01X0012566Y0031943D02*
G37*
G36*
G01X0017600Y0031776D02*
G37*
G36*
G01X0012481Y0031776D02*
G37*
G36*
G01X0029953Y0031719D02*
G37*
G36*
G01X0023260Y0031719D02*
G37*
G36*
G01X0037926Y0031463D02*
G37*
G36*
G01X0017597Y0031535D02*
G37*
G36*
G01X0012479Y0031535D02*
G37*
G36*
G01X0030024Y0031351D02*
G37*
G36*
G01X0023331Y0031351D02*
G37*
G36*
G01X0036659Y0031457D02*
G37*
G36*
G01X0017600Y0031293D02*
G37*
G36*
G01X0012481Y0031293D02*
G37*
G36*
G01X0036192Y0031465D02*
G37*
G36*
G01X0037315Y0031474D02*
G37*
G36*
G01X0036949Y0031475D02*
G37*
G36*
G01X0030024Y0030963D02*
G37*
G36*
G01X0023331Y0030963D02*
G37*
G36*
G01X0017597Y0031051D02*
G37*
G36*
G01X0012479Y0031051D02*
G37*
G36*
G01X0029953Y0030854D02*
G37*
G36*
G01X0023260Y0030854D02*
G37*
G36*
G01X0017684Y0030733D02*
G37*
G36*
G01X0012566Y0030733D02*
G37*
G36*
G01X0029868Y0030687D02*
G37*
G36*
G01X0023175Y0030687D02*
G37*
G36*
G01X0017684Y0030466D02*
G37*
G36*
G01X0012566Y0030466D02*
G37*
G36*
G01X0029865Y0030446D02*
G37*
G36*
G01X0023172Y0030446D02*
G37*
G36*
G01X0017690Y0030290D02*
G37*
G36*
G01X0012572Y0030290D02*
G37*
G36*
G01X0037632Y0030470D02*
G37*
G36*
G01X0037933Y0030467D02*
G37*
G36*
G01X0037078Y0030475D02*
G37*
G36*
G01X0029868Y0030204D02*
G37*
G36*
G01X0023175Y0030204D02*
G37*
G36*
G01X0029865Y0029962D02*
G37*
G36*
G01X0023172Y0029962D02*
G37*
G36*
G01X0029953Y0029644D02*
G37*
G36*
G01X0023260Y0029644D02*
G37*
G36*
G01X0037926Y0029452D02*
G37*
G36*
G01X0036378Y0029466D02*
G37*
G36*
G01X0040108Y0029426D02*
G37*
G36*
G01X0029953Y0029377D02*
G37*
G36*
G01X0023260Y0029377D02*
G37*
G36*
G01X0036966Y0029443D02*
G37*
G36*
G01X0029959Y0029201D02*
G37*
G36*
G01X0023266Y0029201D02*
G37*
G36*
G01X0037315Y0029463D02*
G37*
G36*
G01X0036701Y0029462D02*
G37*
G36*
G01X0043798Y0029443D02*
G37*
G36*
G01X0043110Y0029443D02*
G37*
G36*
G01X0041170Y0029415D02*
G37*
G36*
G01X0044867Y0029421D02*
G37*
G36*
G01X0041761Y0029421D02*
G37*
G36*
G01X0042276Y0029452D02*
G37*
G36*
G01X0044263Y0029437D02*
G37*
G36*
G01X0040567Y0029437D02*
G37*
G36*
G01X0037579Y0028459D02*
G37*
G36*
G01X0037247Y0028459D02*
G37*
G36*
G01X0044504Y0028592D02*
G37*
G36*
G01X0042206Y0028577D02*
G37*
G36*
G01X0040931Y0028595D02*
G37*
G36*
G01X0037920Y0028469D02*
G37*
G36*
G01X0041522Y0028592D02*
G37*
G36*
G01X0040269Y0028592D02*
G37*
G36*
G01X0043578Y0028606D02*
G37*
G36*
G01X0043015Y0028607D02*
G37*
G36*
G01X0048155Y0026174D02*
G37*
G36*
G01X0039691Y0026174D02*
G37*
G36*
G01X0031226Y0026174D02*
G37*
G36*
G01X0022761Y0026174D02*
G37*
G36*
G01X0014297Y0026174D02*
G37*
G36*
G01X0049091Y0026174D02*
G37*
G36*
G01X0040626Y0026174D02*
G37*
G36*
G01X0032162Y0026174D02*
G37*
G36*
G01X0023697Y0026174D02*
G37*
G36*
G01X0015233Y0026174D02*
G37*
G36*
G01X0049388Y0026174D02*
G37*
G36*
G01X0048762Y0026174D02*
G37*
G36*
G01X0040923Y0026174D02*
G37*
G36*
G01X0040298Y0026174D02*
G37*
G36*
G01X0032459Y0026174D02*
G37*
G36*
G01X0031833Y0026174D02*
G37*
G36*
G01X0023994Y0026174D02*
G37*
G36*
G01X0023369Y0026174D02*
G37*
G36*
G01X0015530Y0026174D02*
G37*
G36*
G01X0014904Y0026174D02*
G37*
G36*
G01X0048588Y0026391D02*
G37*
G36*
G01X0048333Y0026395D02*
G37*
G36*
G01X0040124Y0026391D02*
G37*
G36*
G01X0039869Y0026395D02*
G37*
G36*
G01X0031659Y0026391D02*
G37*
G36*
G01X0031404Y0026395D02*
G37*
G36*
G01X0023194Y0026391D02*
G37*
G36*
G01X0022939Y0026395D02*
G37*
G36*
G01X0014730Y0026391D02*
G37*
G36*
G01X0014475Y0026395D02*
G37*
G36*
G01X0050573Y0021697D02*
G37*
G36*
G01X0042108Y0021697D02*
G37*
G36*
G01X0033643Y0021697D02*
G37*
G36*
G01X0025179Y0021697D02*
G37*
G36*
G01X0016714Y0021697D02*
G37*
G36*
G01X0050514Y0021187D02*
G37*
G36*
G01X0042049Y0021187D02*
G37*
G36*
G01X0033585Y0021187D02*
G37*
G36*
G01X0025120Y0021187D02*
G37*
G36*
G01X0016656Y0021187D02*
G37*
G36*
G01X0048155Y0018300D02*
G37*
G36*
G01X0039691Y0018300D02*
G37*
G36*
G01X0031226Y0018300D02*
G37*
G36*
G01X0022761Y0018300D02*
G37*
G36*
G01X0014297Y0018300D02*
G37*
G36*
G01X0049091Y0018300D02*
G37*
G36*
G01X0040626Y0018300D02*
G37*
G36*
G01X0032162Y0018300D02*
G37*
G36*
G01X0023697Y0018300D02*
G37*
G36*
G01X0015233Y0018300D02*
G37*
G36*
G01X0049388Y0018300D02*
G37*
G36*
G01X0048762Y0018300D02*
G37*
G36*
G01X0040923Y0018300D02*
G37*
G36*
G01X0040298Y0018300D02*
G37*
G36*
G01X0032459Y0018300D02*
G37*
G36*
G01X0031833Y0018300D02*
G37*
G36*
G01X0023994Y0018300D02*
G37*
G36*
G01X0023369Y0018300D02*
G37*
G36*
G01X0015530Y0018300D02*
G37*
G36*
G01X0014904Y0018300D02*
G37*
G36*
G01X0048588Y0018517D02*
G37*
G36*
G01X0048333Y0018521D02*
G37*
G36*
G01X0040124Y0018517D02*
G37*
G36*
G01X0039869Y0018521D02*
G37*
G36*
G01X0031659Y0018517D02*
G37*
G36*
G01X0031404Y0018521D02*
G37*
G36*
G01X0023194Y0018517D02*
G37*
G36*
G01X0022939Y0018521D02*
G37*
G36*
G01X0014730Y0018517D02*
G37*
G36*
G01X0014475Y0018521D02*
G37*
G36*
G01X0050573Y0013823D02*
G37*
G36*
G01X0042108Y0013823D02*
G37*
G36*
G01X0033643Y0013823D02*
G37*
G36*
G01X0025179Y0013823D02*
G37*
G36*
G01X0016714Y0013823D02*
G37*
G36*
G01X0050514Y0013313D02*
G37*
G36*
G01X0042049Y0013313D02*
G37*
G36*
G01X0033585Y0013313D02*
G37*
G36*
G01X0025120Y0013313D02*
G37*
G36*
G01X0016656Y0013313D02*
G37*
%LPC*%
G36*
G01X0017593Y0041317D02*
G37*
G36*
G01X0012475Y0041317D02*
G01X0012472Y0041317D01*
G01X0012468Y0041317D01*
G01X0012463Y0041316D01*
G01X0012458Y0041315D01*
G01X0012453Y0041313D01*
G01X0012448Y0041311D01*
G01X0012444Y0041308D01*
G01X0012444Y0041308D01*
G01X0012443Y0041307D01*
G01X0012441Y0041305D01*
G01X0012439Y0041302D01*
G01X0012437Y0041299D01*
G01X0012436Y0041295D01*
G01X0012435Y0041291D01*
G01X0012435Y0041286D01*
G01X0012435Y0041285D01*
G01X0012435Y0041283D01*
G01X0012435Y0041281D01*
G01X0012436Y0041278D01*
G01X0012437Y0041274D01*
G01X0012439Y0041270D01*
G01X0012441Y0041266D01*
G01X0012445Y0041263D01*
G01X0012445Y0041263D01*
G01X0012446Y0041262D01*
G01X0012449Y0041260D01*
G01X0012453Y0041258D01*
G01X0012457Y0041256D01*
G01X0012462Y0041255D01*
G01X0012469Y0041254D01*
G01X0012476Y0041254D01*
G01X0012479Y0041254D01*
G01X0012483Y0041254D01*
G01X0012487Y0041255D01*
G01X0012492Y0041256D01*
G01X0012498Y0041258D01*
G01X0012503Y0041260D01*
G01X0012507Y0041264D01*
G01X0012507Y0041264D01*
G01X0012509Y0041265D01*
G01X0012511Y0041267D01*
G01X0012513Y0041270D01*
G01X0012515Y0041273D01*
G01X0012516Y0041277D01*
G01X0012518Y0041282D01*
G01X0012518Y0041287D01*
G01X0012518Y0041287D01*
G01X0012518Y0041289D01*
G01X0012518Y0041291D01*
G01X0012517Y0041295D01*
G01X0012516Y0041299D01*
G01X0012514Y0041302D01*
G01X0012511Y0041306D01*
G01X0012508Y0041309D01*
G01X0012507Y0041309D01*
G01X0012506Y0041310D01*
G01X0012504Y0041311D01*
G01X0012500Y0041313D01*
G01X0012496Y0041315D01*
G01X0012490Y0041316D01*
G01X0012483Y0041317D01*
G01X0012475Y0041317D01*
G37*
G36*
G01X0012475Y0041317D02*
G37*
G36*
G01X0017607Y0041074D02*
G37*
G36*
G01X0012489Y0041074D02*
G01X0012489Y0041003D01*
G01X0012490Y0041003D01*
G01X0012492Y0041003D01*
G01X0012496Y0041004D01*
G01X0012500Y0041005D01*
G01X0012505Y0041007D01*
G01X0012510Y0041009D01*
G01X0012515Y0041011D01*
G01X0012518Y0041014D01*
G01X0012519Y0041015D01*
G01X0012520Y0041016D01*
G01X0012521Y0041018D01*
G01X0012523Y0041020D01*
G01X0012525Y0041024D01*
G01X0012526Y0041028D01*
G01X0012527Y0041033D01*
G01X0012528Y0041038D01*
G01X0012528Y0041039D01*
G01X0012528Y0041041D01*
G01X0012527Y0041045D01*
G01X0012526Y0041048D01*
G01X0012524Y0041053D01*
G01X0012522Y0041057D01*
G01X0012519Y0041062D01*
G01X0012514Y0041066D01*
G01X0012514Y0041066D01*
G01X0012513Y0041067D01*
G01X0012510Y0041068D01*
G01X0012508Y0041069D01*
G01X0012504Y0041071D01*
G01X0012500Y0041072D01*
G01X0012495Y0041073D01*
G01X0012489Y0041074D01*
G37*
G36*
G01X0012489Y0041074D02*
G37*
G36*
G01X0017590Y0039927D02*
G01X0017585Y0039927D01*
G01X0017581Y0039927D01*
G01X0017575Y0039926D01*
G01X0017570Y0039925D01*
G01X0017564Y0039923D01*
G01X0017558Y0039921D01*
G01X0017553Y0039917D01*
G01X0017552Y0039917D01*
G01X0017551Y0039916D01*
G01X0017549Y0039913D01*
G01X0017547Y0039910D01*
G01X0017545Y0039907D01*
G01X0017543Y0039902D01*
G01X0017541Y0039897D01*
G01X0017541Y0039892D01*
G01X0017541Y0039891D01*
G01X0017541Y0039889D01*
G01X0017541Y0039886D01*
G01X0017542Y0039883D01*
G01X0017544Y0039879D01*
G01X0017546Y0039874D01*
G01X0017548Y0039870D01*
G01X0017552Y0039866D01*
G01X0017553Y0039866D01*
G01X0017555Y0039865D01*
G01X0017557Y0039863D01*
G01X0017562Y0039861D01*
G01X0017567Y0039859D01*
G01X0017574Y0039857D01*
G01X0017581Y0039856D01*
G01X0017591Y0039856D01*
G01X0017594Y0039856D01*
G01X0017599Y0039856D01*
G01X0017604Y0039857D01*
G01X0017610Y0039858D01*
G01X0017616Y0039860D01*
G01X0017622Y0039863D01*
G01X0017627Y0039866D01*
G01X0017627Y0039867D01*
G01X0017628Y0039868D01*
G01X0017630Y0039870D01*
G01X0017633Y0039873D01*
G01X0017635Y0039877D01*
G01X0017637Y0039881D01*
G01X0017638Y0039886D01*
G01X0017639Y0039891D01*
G01X0017639Y0039892D01*
G01X0017639Y0039894D01*
G01X0017638Y0039897D01*
G01X0017637Y0039900D01*
G01X0017636Y0039905D01*
G01X0017634Y0039909D01*
G01X0017631Y0039913D01*
G01X0017627Y0039917D01*
G01X0017626Y0039918D01*
G01X0017624Y0039919D01*
G01X0017621Y0039921D01*
G01X0017618Y0039922D01*
G01X0017612Y0039924D01*
G01X0017606Y0039926D01*
G01X0017598Y0039927D01*
G01X0017590Y0039927D01*
G37*
G36*
G01X0017590Y0039927D02*
G37*
G36*
G01X0012472Y0039927D02*
G01X0012467Y0039927D01*
G01X0012463Y0039927D01*
G01X0012457Y0039926D01*
G01X0012452Y0039925D01*
G01X0012446Y0039923D01*
G01X0012440Y0039921D01*
G01X0012435Y0039917D01*
G01X0012434Y0039917D01*
G01X0012433Y0039916D01*
G01X0012431Y0039913D01*
G01X0012429Y0039910D01*
G01X0012427Y0039907D01*
G01X0012425Y0039902D01*
G01X0012423Y0039897D01*
G01X0012423Y0039892D01*
G01X0012423Y0039891D01*
G01X0012423Y0039889D01*
G01X0012423Y0039886D01*
G01X0012424Y0039883D01*
G01X0012426Y0039879D01*
G01X0012428Y0039874D01*
G01X0012430Y0039870D01*
G01X0012434Y0039866D01*
G01X0012435Y0039866D01*
G01X0012437Y0039865D01*
G01X0012439Y0039863D01*
G01X0012444Y0039861D01*
G01X0012449Y0039859D01*
G01X0012455Y0039857D01*
G01X0012463Y0039856D01*
G01X0012472Y0039856D01*
G01X0012476Y0039856D01*
G01X0012481Y0039856D01*
G01X0012486Y0039857D01*
G01X0012492Y0039858D01*
G01X0012498Y0039860D01*
G01X0012504Y0039863D01*
G01X0012508Y0039866D01*
G01X0012509Y0039867D01*
G01X0012510Y0039868D01*
G01X0012512Y0039870D01*
G01X0012515Y0039873D01*
G01X0012517Y0039877D01*
G01X0012519Y0039881D01*
G01X0012520Y0039886D01*
G01X0012521Y0039891D01*
G01X0012521Y0039892D01*
G01X0012521Y0039894D01*
G01X0012520Y0039897D01*
G01X0012519Y0039900D01*
G01X0012518Y0039905D01*
G01X0012516Y0039909D01*
G01X0012513Y0039913D01*
G01X0012508Y0039917D01*
G01X0012508Y0039918D01*
G01X0012506Y0039919D01*
G01X0012503Y0039921D01*
G01X0012499Y0039922D01*
G01X0012494Y0039924D01*
G01X0012488Y0039926D01*
G01X0012480Y0039927D01*
G01X0012472Y0039927D01*
G37*
G36*
G01X0012472Y0039927D02*
G37*
G36*
G01X0017589Y0039686D02*
G01X0017585Y0039686D01*
G01X0017581Y0039686D01*
G01X0017576Y0039685D01*
G01X0017571Y0039684D01*
G01X0017565Y0039682D01*
G01X0017560Y0039680D01*
G01X0017555Y0039678D01*
G01X0017555Y0039677D01*
G01X0017554Y0039676D01*
G01X0017552Y0039674D01*
G01X0017550Y0039671D01*
G01X0017548Y0039669D01*
G01X0017546Y0039665D01*
G01X0017545Y0039661D01*
G01X0017545Y0039656D01*
G01X0017545Y0039655D01*
G01X0017545Y0039653D01*
G01X0017545Y0039651D01*
G01X0017546Y0039648D01*
G01X0017547Y0039644D01*
G01X0017549Y0039640D01*
G01X0017552Y0039636D01*
G01X0017555Y0039633D01*
G01X0017556Y0039633D01*
G01X0017557Y0039632D01*
G01X0017560Y0039630D01*
G01X0017564Y0039628D01*
G01X0017568Y0039627D01*
G01X0017574Y0039625D01*
G01X0017582Y0039624D01*
G01X0017591Y0039624D01*
G01X0017594Y0039624D01*
G01X0017598Y0039624D01*
G01X0017603Y0039625D01*
G01X0017609Y0039626D01*
G01X0017614Y0039627D01*
G01X0017619Y0039630D01*
G01X0017624Y0039633D01*
G01X0017624Y0039634D01*
G01X0017626Y0039635D01*
G01X0017627Y0039637D01*
G01X0017629Y0039640D01*
G01X0017631Y0039643D01*
G01X0017633Y0039647D01*
G01X0017634Y0039652D01*
G01X0017635Y0039657D01*
G01X0017635Y0039657D01*
G01X0017635Y0039659D01*
G01X0017634Y0039661D01*
G01X0017633Y0039664D01*
G01X0017632Y0039668D01*
G01X0017630Y0039671D01*
G01X0017627Y0039675D01*
G01X0017624Y0039678D01*
G01X0017623Y0039679D01*
G01X0017622Y0039679D01*
G01X0017619Y0039680D01*
G01X0017616Y0039682D01*
G01X0017610Y0039684D01*
G01X0017605Y0039685D01*
G01X0017597Y0039686D01*
G01X0017589Y0039686D01*
G37*
G36*
G01X0017589Y0039686D02*
G37*
G36*
G01X0012471Y0039686D02*
G01X0012467Y0039686D01*
G01X0012463Y0039686D01*
G01X0012458Y0039685D01*
G01X0012453Y0039684D01*
G01X0012447Y0039682D01*
G01X0012442Y0039680D01*
G01X0012437Y0039678D01*
G01X0012437Y0039677D01*
G01X0012436Y0039676D01*
G01X0012434Y0039674D01*
G01X0012432Y0039671D01*
G01X0012430Y0039669D01*
G01X0012428Y0039665D01*
G01X0012427Y0039661D01*
G01X0012427Y0039656D01*
G01X0012427Y0039655D01*
G01X0012427Y0039653D01*
G01X0012427Y0039651D01*
G01X0012428Y0039648D01*
G01X0012429Y0039644D01*
G01X0012431Y0039640D01*
G01X0012434Y0039636D01*
G01X0012437Y0039633D01*
G01X0012437Y0039633D01*
G01X0012439Y0039632D01*
G01X0012442Y0039630D01*
G01X0012446Y0039628D01*
G01X0012450Y0039627D01*
G01X0012456Y0039625D01*
G01X0012464Y0039624D01*
G01X0012472Y0039624D01*
G01X0012476Y0039624D01*
G01X0012480Y0039624D01*
G01X0012485Y0039625D01*
G01X0012490Y0039626D01*
G01X0012496Y0039627D01*
G01X0012501Y0039630D01*
G01X0012506Y0039633D01*
G01X0012506Y0039634D01*
G01X0012507Y0039635D01*
G01X0012509Y0039637D01*
G01X0012511Y0039640D01*
G01X0012513Y0039643D01*
G01X0012515Y0039647D01*
G01X0012516Y0039652D01*
G01X0012516Y0039657D01*
G01X0012516Y0039657D01*
G01X0012516Y0039659D01*
G01X0012516Y0039661D01*
G01X0012515Y0039664D01*
G01X0012514Y0039668D01*
G01X0012512Y0039671D01*
G01X0012509Y0039675D01*
G01X0012506Y0039678D01*
G01X0012505Y0039679D01*
G01X0012504Y0039679D01*
G01X0012501Y0039680D01*
G01X0012498Y0039682D01*
G01X0012492Y0039684D01*
G01X0012487Y0039685D01*
G01X0012479Y0039686D01*
G01X0012471Y0039686D01*
G37*
G36*
G01X0012471Y0039686D02*
G37*
G36*
G01X0037695Y0039347D02*
G37*
G36*
G01X0017607Y0039443D02*
G01X0017607Y0039372D01*
G01X0017608Y0039372D01*
G01X0017610Y0039373D01*
G01X0017614Y0039373D01*
G01X0017618Y0039374D01*
G01X0017623Y0039376D01*
G01X0017628Y0039378D01*
G01X0017633Y0039380D01*
G01X0017636Y0039383D01*
G01X0017637Y0039384D01*
G01X0017638Y0039385D01*
G01X0017639Y0039387D01*
G01X0017641Y0039390D01*
G01X0017643Y0039393D01*
G01X0017645Y0039397D01*
G01X0017645Y0039402D01*
G01X0017646Y0039408D01*
G01X0017646Y0039408D01*
G01X0017646Y0039410D01*
G01X0017645Y0039414D01*
G01X0017644Y0039417D01*
G01X0017643Y0039422D01*
G01X0017640Y0039426D01*
G01X0017637Y0039431D01*
G01X0017632Y0039435D01*
G01X0017632Y0039435D01*
G01X0017631Y0039436D01*
G01X0017628Y0039437D01*
G01X0017626Y0039438D01*
G01X0017622Y0039440D01*
G01X0017618Y0039441D01*
G01X0017613Y0039442D01*
G01X0017607Y0039443D01*
G37*
G36*
G01X0017607Y0039443D02*
G37*
G36*
G01X0012489Y0039443D02*
G01X0012489Y0039372D01*
G01X0012490Y0039372D01*
G01X0012492Y0039373D01*
G01X0012496Y0039373D01*
G01X0012500Y0039374D01*
G01X0012505Y0039376D01*
G01X0012510Y0039378D01*
G01X0012515Y0039380D01*
G01X0012518Y0039383D01*
G01X0012519Y0039384D01*
G01X0012520Y0039385D01*
G01X0012521Y0039387D01*
G01X0012523Y0039390D01*
G01X0012525Y0039393D01*
G01X0012526Y0039397D01*
G01X0012527Y0039402D01*
G01X0012528Y0039408D01*
G01X0012528Y0039408D01*
G01X0012528Y0039410D01*
G01X0012527Y0039414D01*
G01X0012526Y0039417D01*
G01X0012524Y0039422D01*
G01X0012522Y0039426D01*
G01X0012519Y0039431D01*
G01X0012514Y0039435D01*
G01X0012514Y0039435D01*
G01X0012513Y0039436D01*
G01X0012510Y0039437D01*
G01X0012508Y0039438D01*
G01X0012504Y0039440D01*
G01X0012500Y0039441D01*
G01X0012495Y0039442D01*
G01X0012489Y0039443D01*
G37*
G36*
G01X0012489Y0039443D02*
G37*
G36*
G01X0029859Y0038827D02*
G01X0029855Y0038827D01*
G01X0029851Y0038827D01*
G01X0029846Y0038826D01*
G01X0029840Y0038825D01*
G01X0029834Y0038824D01*
G01X0029829Y0038821D01*
G01X0029824Y0038818D01*
G01X0029824Y0038818D01*
G01X0029822Y0038816D01*
G01X0029821Y0038815D01*
G01X0029819Y0038812D01*
G01X0029817Y0038808D01*
G01X0029815Y0038805D01*
G01X0029814Y0038800D01*
G01X0029813Y0038795D01*
G01X0029813Y0038795D01*
G01X0029813Y0038793D01*
G01X0029814Y0038790D01*
G01X0029815Y0038788D01*
G01X0029816Y0038784D01*
G01X0029818Y0038781D01*
G01X0029820Y0038777D01*
G01X0029824Y0038773D01*
G01X0029824Y0038773D01*
G01X0029826Y0038772D01*
G01X0029828Y0038771D01*
G01X0029832Y0038769D01*
G01X0029837Y0038767D01*
G01X0029844Y0038766D01*
G01X0029851Y0038765D01*
G01X0029860Y0038764D01*
G01X0029863Y0038764D01*
G01X0029867Y0038765D01*
G01X0029872Y0038765D01*
G01X0029878Y0038767D01*
G01X0029883Y0038768D01*
G01X0029888Y0038771D01*
G01X0029892Y0038773D01*
G01X0029893Y0038774D01*
G01X0029894Y0038775D01*
G01X0029896Y0038777D01*
G01X0029898Y0038779D01*
G01X0029900Y0038782D01*
G01X0029901Y0038786D01*
G01X0029903Y0038789D01*
G01X0029903Y0038794D01*
G01X0029903Y0038794D01*
G01X0029903Y0038796D01*
G01X0029903Y0038799D01*
G01X0029902Y0038802D01*
G01X0029900Y0038806D01*
G01X0029898Y0038810D01*
G01X0029896Y0038814D01*
G01X0029892Y0038818D01*
G01X0029892Y0038818D01*
G01X0029890Y0038819D01*
G01X0029888Y0038821D01*
G01X0029884Y0038823D01*
G01X0029880Y0038824D01*
G01X0029874Y0038826D01*
G01X0029867Y0038827D01*
G01X0029859Y0038827D01*
G37*
G36*
G01X0029859Y0038827D02*
G37*
G36*
G01X0023166Y0038827D02*
G01X0023162Y0038827D01*
G01X0023158Y0038827D01*
G01X0023153Y0038826D01*
G01X0023147Y0038825D01*
G01X0023141Y0038824D01*
G01X0023136Y0038821D01*
G01X0023131Y0038818D01*
G01X0023131Y0038818D01*
G01X0023129Y0038816D01*
G01X0023128Y0038815D01*
G01X0023126Y0038812D01*
G01X0023124Y0038808D01*
G01X0023122Y0038805D01*
G01X0023121Y0038800D01*
G01X0023120Y0038795D01*
G01X0023120Y0038795D01*
G01X0023120Y0038793D01*
G01X0023121Y0038790D01*
G01X0023122Y0038788D01*
G01X0023123Y0038784D01*
G01X0023125Y0038781D01*
G01X0023127Y0038777D01*
G01X0023131Y0038773D01*
G01X0023131Y0038773D01*
G01X0023133Y0038772D01*
G01X0023136Y0038771D01*
G01X0023139Y0038769D01*
G01X0023145Y0038767D01*
G01X0023151Y0038766D01*
G01X0023158Y0038765D01*
G01X0023167Y0038764D01*
G01X0023171Y0038764D01*
G01X0023174Y0038765D01*
G01X0023179Y0038765D01*
G01X0023185Y0038767D01*
G01X0023190Y0038768D01*
G01X0023195Y0038771D01*
G01X0023199Y0038773D01*
G01X0023200Y0038774D01*
G01X0023201Y0038775D01*
G01X0023203Y0038777D01*
G01X0023205Y0038779D01*
G01X0023207Y0038782D01*
G01X0023208Y0038786D01*
G01X0023210Y0038789D01*
G01X0023210Y0038794D01*
G01X0023210Y0038794D01*
G01X0023210Y0038796D01*
G01X0023210Y0038799D01*
G01X0023209Y0038802D01*
G01X0023207Y0038806D01*
G01X0023206Y0038810D01*
G01X0023203Y0038814D01*
G01X0023199Y0038818D01*
G01X0023199Y0038818D01*
G01X0023197Y0038819D01*
G01X0023195Y0038821D01*
G01X0023191Y0038823D01*
G01X0023187Y0038824D01*
G01X0023181Y0038826D01*
G01X0023174Y0038827D01*
G01X0023166Y0038827D01*
G37*
G36*
G01X0023166Y0038827D02*
G37*
G36*
G01X0036179Y0038496D02*
G37*
G36*
G01X0036942Y0038508D02*
G37*
G36*
G01X0029858Y0037850D02*
G37*
G36*
G01X0023165Y0037850D02*
G37*
G36*
G01X0029857Y0037608D02*
G01X0029853Y0037608D01*
G01X0029850Y0037608D01*
G01X0029845Y0037607D01*
G01X0029839Y0037607D01*
G01X0029834Y0037605D01*
G01X0029828Y0037603D01*
G01X0029824Y0037600D01*
G01X0029823Y0037599D01*
G01X0029822Y0037598D01*
G01X0029820Y0037597D01*
G01X0029818Y0037594D01*
G01X0029817Y0037591D01*
G01X0029815Y0037587D01*
G01X0029814Y0037583D01*
G01X0029813Y0037578D01*
G01X0029813Y0037578D01*
G01X0029813Y0037576D01*
G01X0029814Y0037573D01*
G01X0029815Y0037570D01*
G01X0029816Y0037567D01*
G01X0029818Y0037563D01*
G01X0029820Y0037559D01*
G01X0029824Y0037555D01*
G01X0029824Y0037555D01*
G01X0029826Y0037554D01*
G01X0029828Y0037553D01*
G01X0029832Y0037551D01*
G01X0029837Y0037549D01*
G01X0029843Y0037547D01*
G01X0029851Y0037546D01*
G01X0029859Y0037546D01*
G01X0029863Y0037546D01*
G01X0029867Y0037546D01*
G01X0029871Y0037547D01*
G01X0029877Y0037548D01*
G01X0029882Y0037550D01*
G01X0029888Y0037552D01*
G01X0029892Y0037555D01*
G01X0029893Y0037556D01*
G01X0029894Y0037557D01*
G01X0029896Y0037559D01*
G01X0029898Y0037562D01*
G01X0029900Y0037565D01*
G01X0029901Y0037569D01*
G01X0029903Y0037574D01*
G01X0029903Y0037579D01*
G01X0029903Y0037580D01*
G01X0029903Y0037581D01*
G01X0029903Y0037583D01*
G01X0029902Y0037587D01*
G01X0029900Y0037590D01*
G01X0029898Y0037593D01*
G01X0029896Y0037597D01*
G01X0029892Y0037600D01*
G01X0029892Y0037601D01*
G01X0029890Y0037602D01*
G01X0029888Y0037603D01*
G01X0029884Y0037604D01*
G01X0029879Y0037606D01*
G01X0029873Y0037607D01*
G01X0029866Y0037608D01*
G01X0029857Y0037608D01*
G37*
G36*
G01X0029857Y0037608D02*
G37*
G36*
G01X0023164Y0037608D02*
G01X0023161Y0037608D01*
G01X0023157Y0037608D01*
G01X0023152Y0037607D01*
G01X0023146Y0037607D01*
G01X0023141Y0037605D01*
G01X0023136Y0037603D01*
G01X0023131Y0037600D01*
G01X0023130Y0037599D01*
G01X0023129Y0037598D01*
G01X0023127Y0037597D01*
G01X0023126Y0037594D01*
G01X0023124Y0037591D01*
G01X0023122Y0037587D01*
G01X0023121Y0037583D01*
G01X0023120Y0037578D01*
G01X0023120Y0037578D01*
G01X0023120Y0037576D01*
G01X0023121Y0037573D01*
G01X0023122Y0037570D01*
G01X0023123Y0037567D01*
G01X0023125Y0037563D01*
G01X0023127Y0037559D01*
G01X0023131Y0037555D01*
G01X0023131Y0037555D01*
G01X0023133Y0037554D01*
G01X0023136Y0037553D01*
G01X0023139Y0037551D01*
G01X0023144Y0037549D01*
G01X0023150Y0037547D01*
G01X0023158Y0037546D01*
G01X0023166Y0037546D01*
G01X0023170Y0037546D01*
G01X0023174Y0037546D01*
G01X0023179Y0037547D01*
G01X0023184Y0037548D01*
G01X0023189Y0037550D01*
G01X0023195Y0037552D01*
G01X0023199Y0037555D01*
G01X0023200Y0037556D01*
G01X0023201Y0037557D01*
G01X0023203Y0037559D01*
G01X0023205Y0037562D01*
G01X0023207Y0037565D01*
G01X0023208Y0037569D01*
G01X0023210Y0037574D01*
G01X0023210Y0037579D01*
G01X0023210Y0037580D01*
G01X0023210Y0037581D01*
G01X0023210Y0037583D01*
G01X0023209Y0037587D01*
G01X0023207Y0037590D01*
G01X0023206Y0037593D01*
G01X0023203Y0037597D01*
G01X0023199Y0037600D01*
G01X0023199Y0037601D01*
G01X0023197Y0037602D01*
G01X0023195Y0037603D01*
G01X0023191Y0037604D01*
G01X0023186Y0037606D01*
G01X0023180Y0037607D01*
G01X0023173Y0037608D01*
G01X0023164Y0037608D01*
G37*
G36*
G01X0023164Y0037608D02*
G37*
G36*
G01X0029876Y0037365D02*
G01X0029876Y0037294D01*
G01X0029877Y0037294D01*
G01X0029879Y0037295D01*
G01X0029883Y0037296D01*
G01X0029887Y0037297D01*
G01X0029892Y0037298D01*
G01X0029897Y0037300D01*
G01X0029901Y0037302D01*
G01X0029905Y0037306D01*
G01X0029906Y0037306D01*
G01X0029906Y0037307D01*
G01X0029908Y0037309D01*
G01X0029910Y0037312D01*
G01X0029912Y0037316D01*
G01X0029913Y0037319D01*
G01X0029914Y0037325D01*
G01X0029915Y0037330D01*
G01X0029915Y0037331D01*
G01X0029915Y0037333D01*
G01X0029914Y0037336D01*
G01X0029913Y0037340D01*
G01X0029911Y0037344D01*
G01X0029909Y0037349D01*
G01X0029906Y0037353D01*
G01X0029901Y0037357D01*
G01X0029900Y0037358D01*
G01X0029899Y0037358D01*
G01X0029897Y0037359D01*
G01X0029895Y0037361D01*
G01X0029891Y0037362D01*
G01X0029887Y0037363D01*
G01X0029881Y0037364D01*
G01X0029876Y0037365D01*
G37*
G36*
G01X0029876Y0037365D02*
G37*
G36*
G01X0023183Y0037365D02*
G01X0023183Y0037294D01*
G01X0023184Y0037294D01*
G01X0023186Y0037295D01*
G01X0023190Y0037296D01*
G01X0023194Y0037297D01*
G01X0023199Y0037298D01*
G01X0023204Y0037300D01*
G01X0023208Y0037302D01*
G01X0023212Y0037306D01*
G01X0023213Y0037306D01*
G01X0023214Y0037307D01*
G01X0023215Y0037309D01*
G01X0023217Y0037312D01*
G01X0023219Y0037316D01*
G01X0023220Y0037319D01*
G01X0023221Y0037325D01*
G01X0023222Y0037330D01*
G01X0023222Y0037331D01*
G01X0023222Y0037333D01*
G01X0023221Y0037336D01*
G01X0023220Y0037340D01*
G01X0023218Y0037344D01*
G01X0023216Y0037349D01*
G01X0023213Y0037353D01*
G01X0023208Y0037357D01*
G01X0023207Y0037358D01*
G01X0023206Y0037358D01*
G01X0023204Y0037359D01*
G01X0023202Y0037361D01*
G01X0023198Y0037362D01*
G01X0023194Y0037363D01*
G01X0023188Y0037364D01*
G01X0023183Y0037365D01*
G37*
G36*
G01X0023183Y0037365D02*
G37*
G36*
G01X0037071Y0037508D02*
G37*
G36*
G01X0040043Y0036201D02*
G37*
G36*
G01X0044242Y0036413D02*
G37*
G36*
G01X0040547Y0036413D02*
G37*
G36*
G01X0037569Y0035495D02*
G37*
G36*
G01X0037237Y0035495D02*
G37*
G36*
G01X0042110Y0035318D02*
G37*
G36*
G01X0041501Y0035568D02*
G37*
G36*
G01X0040248Y0035568D02*
G37*
G36*
G01X0042995Y0035584D02*
G37*
G36*
G01X0017593Y0032852D02*
G37*
G36*
G01X0012475Y0032852D02*
G37*
G36*
G01X0017607Y0032609D02*
G01X0017607Y0032538D01*
G01X0017608Y0032538D01*
G01X0017610Y0032539D01*
G01X0017614Y0032540D01*
G01X0017618Y0032541D01*
G01X0017623Y0032542D01*
G01X0017628Y0032544D01*
G01X0017633Y0032546D01*
G01X0017636Y0032550D01*
G01X0017637Y0032550D01*
G01X0017638Y0032551D01*
G01X0017639Y0032554D01*
G01X0017641Y0032556D01*
G01X0017643Y0032560D01*
G01X0017645Y0032563D01*
G01X0017645Y0032569D01*
G01X0017646Y0032574D01*
G01X0017646Y0032575D01*
G01X0017646Y0032577D01*
G01X0017645Y0032580D01*
G01X0017644Y0032584D01*
G01X0017643Y0032588D01*
G01X0017640Y0032593D01*
G01X0017637Y0032597D01*
G01X0017632Y0032601D01*
G01X0017632Y0032602D01*
G01X0017631Y0032602D01*
G01X0017628Y0032603D01*
G01X0017626Y0032605D01*
G01X0017622Y0032606D01*
G01X0017618Y0032607D01*
G01X0017613Y0032608D01*
G01X0017607Y0032609D01*
G37*
G36*
G01X0017607Y0032609D02*
G37*
G36*
G01X0012489Y0032609D02*
G37*
G36*
G01X0037695Y0032260D02*
G37*
G36*
G01X0017590Y0031463D02*
G01X0017585Y0031463D01*
G01X0017581Y0031462D01*
G01X0017575Y0031461D01*
G01X0017570Y0031460D01*
G01X0017564Y0031459D01*
G01X0017558Y0031456D01*
G01X0017553Y0031453D01*
G01X0017552Y0031452D01*
G01X0017551Y0031451D01*
G01X0017549Y0031449D01*
G01X0017547Y0031446D01*
G01X0017545Y0031442D01*
G01X0017543Y0031438D01*
G01X0017541Y0031432D01*
G01X0017541Y0031427D01*
G01X0017541Y0031427D01*
G01X0017541Y0031424D01*
G01X0017541Y0031422D01*
G01X0017542Y0031418D01*
G01X0017544Y0031414D01*
G01X0017546Y0031410D01*
G01X0017548Y0031406D01*
G01X0017552Y0031402D01*
G01X0017553Y0031401D01*
G01X0017555Y0031400D01*
G01X0017557Y0031398D01*
G01X0017562Y0031397D01*
G01X0017567Y0031395D01*
G01X0017574Y0031393D01*
G01X0017581Y0031392D01*
G01X0017591Y0031391D01*
G01X0017594Y0031391D01*
G01X0017599Y0031392D01*
G01X0017604Y0031393D01*
G01X0017610Y0031394D01*
G01X0017616Y0031396D01*
G01X0017622Y0031398D01*
G01X0017627Y0031402D01*
G01X0017627Y0031402D01*
G01X0017628Y0031404D01*
G01X0017630Y0031406D01*
G01X0017633Y0031408D01*
G01X0017635Y0031412D01*
G01X0017637Y0031416D01*
G01X0017638Y0031422D01*
G01X0017639Y0031427D01*
G01X0017639Y0031427D01*
G01X0017639Y0031429D01*
G01X0017638Y0031432D01*
G01X0017637Y0031436D01*
G01X0017636Y0031440D01*
G01X0017634Y0031444D01*
G01X0017631Y0031449D01*
G01X0017627Y0031453D01*
G01X0017626Y0031453D01*
G01X0017624Y0031454D01*
G01X0017621Y0031456D01*
G01X0017618Y0031458D01*
G01X0017612Y0031459D01*
G01X0017606Y0031461D01*
G01X0017598Y0031462D01*
G01X0017590Y0031463D01*
G37*
G36*
G01X0017590Y0031463D02*
G37*
G36*
G01X0012472Y0031463D02*
G01X0012467Y0031463D01*
G01X0012463Y0031462D01*
G01X0012457Y0031461D01*
G01X0012452Y0031460D01*
G01X0012446Y0031459D01*
G01X0012440Y0031456D01*
G01X0012435Y0031453D01*
G01X0012434Y0031452D01*
G01X0012433Y0031451D01*
G01X0012431Y0031449D01*
G01X0012429Y0031446D01*
G01X0012427Y0031442D01*
G01X0012425Y0031438D01*
G01X0012423Y0031432D01*
G01X0012423Y0031427D01*
G01X0012423Y0031427D01*
G01X0012423Y0031424D01*
G01X0012423Y0031422D01*
G01X0012424Y0031418D01*
G01X0012426Y0031414D01*
G01X0012428Y0031410D01*
G01X0012430Y0031406D01*
G01X0012434Y0031402D01*
G01X0012435Y0031401D01*
G01X0012437Y0031400D01*
G01X0012439Y0031398D01*
G01X0012444Y0031397D01*
G01X0012449Y0031395D01*
G01X0012455Y0031393D01*
G01X0012463Y0031392D01*
G01X0012472Y0031391D01*
G01X0012476Y0031391D01*
G01X0012481Y0031392D01*
G01X0012486Y0031393D01*
G01X0012492Y0031394D01*
G01X0012498Y0031396D01*
G01X0012504Y0031398D01*
G01X0012508Y0031402D01*
G01X0012509Y0031402D01*
G01X0012510Y0031404D01*
G01X0012512Y0031406D01*
G01X0012515Y0031408D01*
G01X0012517Y0031412D01*
G01X0012519Y0031416D01*
G01X0012520Y0031422D01*
G01X0012521Y0031427D01*
G01X0012521Y0031427D01*
G01X0012521Y0031429D01*
G01X0012520Y0031432D01*
G01X0012519Y0031436D01*
G01X0012518Y0031440D01*
G01X0012516Y0031444D01*
G01X0012513Y0031449D01*
G01X0012508Y0031453D01*
G01X0012508Y0031453D01*
G01X0012506Y0031454D01*
G01X0012503Y0031456D01*
G01X0012499Y0031458D01*
G01X0012494Y0031459D01*
G01X0012488Y0031461D01*
G01X0012480Y0031462D01*
G01X0012472Y0031463D01*
G37*
G36*
G01X0012472Y0031463D02*
G37*
G36*
G01X0029859Y0031352D02*
G01X0029855Y0031352D01*
G01X0029851Y0031351D01*
G01X0029846Y0031351D01*
G01X0029840Y0031349D01*
G01X0029834Y0031348D01*
G01X0029829Y0031346D01*
G01X0029824Y0031343D01*
G01X0029824Y0031342D01*
G01X0029822Y0031341D01*
G01X0029821Y0031339D01*
G01X0029819Y0031336D01*
G01X0029817Y0031333D01*
G01X0029815Y0031329D01*
G01X0029814Y0031324D01*
G01X0029813Y0031319D01*
G01X0029813Y0031319D01*
G01X0029813Y0031317D01*
G01X0029814Y0031315D01*
G01X0029815Y0031312D01*
G01X0029816Y0031308D01*
G01X0029818Y0031305D01*
G01X0029820Y0031301D01*
G01X0029824Y0031298D01*
G01X0029824Y0031297D01*
G01X0029826Y0031296D01*
G01X0029828Y0031295D01*
G01X0029832Y0031293D01*
G01X0029837Y0031292D01*
G01X0029844Y0031290D01*
G01X0029851Y0031289D01*
G01X0029860Y0031289D01*
G01X0029863Y0031289D01*
G01X0029867Y0031289D01*
G01X0029872Y0031290D01*
G01X0029878Y0031291D01*
G01X0029883Y0031293D01*
G01X0029888Y0031295D01*
G01X0029892Y0031298D01*
G01X0029893Y0031298D01*
G01X0029894Y0031299D01*
G01X0029896Y0031301D01*
G01X0029898Y0031303D01*
G01X0029900Y0031306D01*
G01X0029901Y0031310D01*
G01X0029903Y0031314D01*
G01X0029903Y0031318D01*
G01X0029903Y0031319D01*
G01X0029903Y0031320D01*
G01X0029903Y0031323D01*
G01X0029902Y0031327D01*
G01X0029900Y0031330D01*
G01X0029898Y0031335D01*
G01X0029896Y0031338D01*
G01X0029892Y0031342D01*
G01X0029892Y0031343D01*
G01X0029890Y0031344D01*
G01X0029888Y0031345D01*
G01X0029884Y0031347D01*
G01X0029880Y0031349D01*
G01X0029874Y0031350D01*
G01X0029867Y0031351D01*
G01X0029859Y0031352D01*
G37*
G36*
G01X0029859Y0031352D02*
G37*
G36*
G01X0023166Y0031352D02*
G01X0023162Y0031352D01*
G01X0023158Y0031351D01*
G01X0023153Y0031351D01*
G01X0023147Y0031349D01*
G01X0023141Y0031348D01*
G01X0023136Y0031346D01*
G01X0023131Y0031343D01*
G01X0023131Y0031342D01*
G01X0023129Y0031341D01*
G01X0023128Y0031339D01*
G01X0023126Y0031336D01*
G01X0023124Y0031333D01*
G01X0023122Y0031329D01*
G01X0023121Y0031324D01*
G01X0023120Y0031319D01*
G01X0023120Y0031319D01*
G01X0023120Y0031317D01*
G01X0023121Y0031315D01*
G01X0023122Y0031312D01*
G01X0023123Y0031308D01*
G01X0023125Y0031305D01*
G01X0023127Y0031301D01*
G01X0023131Y0031298D01*
G01X0023131Y0031297D01*
G01X0023133Y0031296D01*
G01X0023136Y0031295D01*
G01X0023139Y0031293D01*
G01X0023145Y0031292D01*
G01X0023151Y0031290D01*
G01X0023158Y0031289D01*
G01X0023167Y0031289D01*
G01X0023171Y0031289D01*
G01X0023174Y0031289D01*
G01X0023179Y0031290D01*
G01X0023185Y0031291D01*
G01X0023190Y0031293D01*
G01X0023195Y0031295D01*
G01X0023199Y0031298D01*
G01X0023200Y0031298D01*
G01X0023201Y0031299D01*
G01X0023203Y0031301D01*
G01X0023205Y0031303D01*
G01X0023207Y0031306D01*
G01X0023208Y0031310D01*
G01X0023210Y0031314D01*
G01X0023210Y0031318D01*
G01X0023210Y0031319D01*
G01X0023210Y0031320D01*
G01X0023210Y0031323D01*
G01X0023209Y0031327D01*
G01X0023207Y0031330D01*
G01X0023206Y0031335D01*
G01X0023203Y0031338D01*
G01X0023199Y0031342D01*
G01X0023199Y0031343D01*
G01X0023197Y0031344D01*
G01X0023195Y0031345D01*
G01X0023191Y0031347D01*
G01X0023187Y0031349D01*
G01X0023181Y0031350D01*
G01X0023174Y0031351D01*
G01X0023166Y0031352D01*
G37*
G36*
G01X0023166Y0031352D02*
G37*
G36*
G01X0017589Y0031222D02*
G37*
G36*
G01X0012471Y0031222D02*
G37*
G36*
G01X0036179Y0031409D02*
G37*
G36*
G01X0036942Y0031421D02*
G37*
G36*
G01X0017607Y0030978D02*
G01X0017607Y0030907D01*
G01X0017608Y0030907D01*
G01X0017610Y0030908D01*
G01X0017614Y0030909D01*
G01X0017618Y0030910D01*
G01X0017623Y0030911D01*
G01X0017628Y0030913D01*
G01X0017633Y0030916D01*
G01X0017636Y0030919D01*
G01X0017637Y0030919D01*
G01X0017638Y0030920D01*
G01X0017639Y0030923D01*
G01X0017641Y0030925D01*
G01X0017643Y0030929D01*
G01X0017645Y0030933D01*
G01X0017645Y0030938D01*
G01X0017646Y0030943D01*
G01X0017646Y0030944D01*
G01X0017646Y0030946D01*
G01X0017645Y0030949D01*
G01X0017644Y0030953D01*
G01X0017643Y0030957D01*
G01X0017640Y0030962D01*
G01X0017637Y0030966D01*
G01X0017632Y0030970D01*
G01X0017632Y0030971D01*
G01X0017631Y0030971D01*
G01X0017628Y0030972D01*
G01X0017626Y0030974D01*
G01X0017622Y0030975D01*
G01X0017618Y0030977D01*
G01X0017613Y0030977D01*
G01X0017607Y0030978D01*
G37*
G36*
G01X0017607Y0030978D02*
G37*
G36*
G01X0012489Y0030978D02*
G37*
G36*
G01X0029858Y0030374D02*
G37*
G36*
G01X0023165Y0030374D02*
G37*
G36*
G01X0037071Y0030421D02*
G37*
G36*
G01X0029857Y0030133D02*
G37*
G36*
G01X0023164Y0030133D02*
G37*
G36*
G01X0029876Y0029890D02*
G37*
G36*
G01X0023183Y0029890D02*
G37*
G36*
G01X0040043Y0029114D02*
G37*
G36*
G01X0044242Y0029326D02*
G37*
G36*
G01X0040547Y0029326D02*
G37*
G36*
G01X0037569Y0028408D02*
G37*
G36*
G01X0037237Y0028408D02*
G37*
G36*
G01X0042110Y0028231D02*
G37*
G36*
G01X0041501Y0028481D02*
G37*
G36*
G01X0040248Y0028481D02*
G37*
G36*
G01X0042995Y0028498D02*
G37*
G36*
G01X0048323Y0026338D02*
G37*
G36*
G01X0039859Y0026338D02*
G37*
G36*
G01X0031394Y0026338D02*
G01X0031391Y0026338D01*
G01X0031388Y0026338D01*
G01X0031384Y0026337D01*
G01X0031379Y0026335D01*
G01X0031374Y0026332D01*
G01X0031369Y0026329D01*
G01X0031364Y0026324D01*
G01X0031364Y0026324D01*
G01X0031363Y0026321D01*
G01X0031360Y0026318D01*
G01X0031359Y0026314D01*
G01X0031357Y0026308D01*
G01X0031354Y0026300D01*
G01X0031353Y0026291D01*
G01X0031353Y0026282D01*
G01X0031353Y0026281D01*
G01X0031353Y0026280D01*
G01X0031353Y0026279D01*
G01X0031353Y0026277D01*
G01X0031353Y0026272D01*
G01X0031354Y0026265D01*
G01X0031355Y0026259D01*
G01X0031358Y0026252D01*
G01X0031360Y0026245D01*
G01X0031364Y0026239D01*
G01X0031365Y0026238D01*
G01X0031366Y0026237D01*
G01X0031369Y0026235D01*
G01X0031372Y0026232D01*
G01X0031377Y0026230D01*
G01X0031382Y0026228D01*
G01X0031388Y0026226D01*
G01X0031394Y0026225D01*
G01X0031397Y0026225D01*
G01X0031400Y0026226D01*
G01X0031404Y0026227D01*
G01X0031409Y0026229D01*
G01X0031414Y0026231D01*
G01X0031419Y0026234D01*
G01X0031423Y0026238D01*
G01X0031424Y0026239D01*
G01X0031425Y0026241D01*
G01X0031427Y0026244D01*
G01X0031429Y0026249D01*
G01X0031431Y0026255D01*
G01X0031433Y0026263D01*
G01X0031435Y0026272D01*
G01X0031435Y0026283D01*
G01X0031435Y0026283D01*
G01X0031435Y0026284D01*
G01X0031435Y0026287D01*
G01X0031435Y0026292D01*
G01X0031433Y0026298D01*
G01X0031432Y0026305D01*
G01X0031430Y0026312D01*
G01X0031427Y0026319D01*
G01X0031423Y0026324D01*
G01X0031423Y0026325D01*
G01X0031421Y0026326D01*
G01X0031419Y0026329D01*
G01X0031415Y0026331D01*
G01X0031411Y0026334D01*
G01X0031406Y0026336D01*
G01X0031400Y0026338D01*
G01X0031394Y0026338D01*
G37*
G36*
G01X0031394Y0026338D02*
G37*
G36*
G01X0022930Y0026338D02*
G37*
G36*
G01X0014465Y0026338D02*
G37*
G36*
G01X0048323Y0018464D02*
G37*
G36*
G01X0039859Y0018464D02*
G01X0039856Y0018464D01*
G01X0039852Y0018464D01*
G01X0039848Y0018463D01*
G01X0039843Y0018461D01*
G01X0039839Y0018458D01*
G01X0039834Y0018455D01*
G01X0039829Y0018450D01*
G01X0039828Y0018450D01*
G01X0039827Y0018447D01*
G01X0039825Y0018444D01*
G01X0039823Y0018440D01*
G01X0039821Y0018434D01*
G01X0039819Y0018426D01*
G01X0039818Y0018417D01*
G01X0039817Y0018408D01*
G01X0039817Y0018407D01*
G01X0039817Y0018406D01*
G01X0039817Y0018405D01*
G01X0039817Y0018403D01*
G01X0039818Y0018398D01*
G01X0039819Y0018391D01*
G01X0039820Y0018385D01*
G01X0039822Y0018378D01*
G01X0039825Y0018371D01*
G01X0039829Y0018365D01*
G01X0039829Y0018364D01*
G01X0039831Y0018363D01*
G01X0039834Y0018361D01*
G01X0039837Y0018358D01*
G01X0039841Y0018356D01*
G01X0039846Y0018354D01*
G01X0039852Y0018352D01*
G01X0039858Y0018351D01*
G01X0039861Y0018351D01*
G01X0039865Y0018352D01*
G01X0039869Y0018353D01*
G01X0039873Y0018355D01*
G01X0039878Y0018357D01*
G01X0039883Y0018360D01*
G01X0039888Y0018364D01*
G01X0039888Y0018365D01*
G01X0039889Y0018367D01*
G01X0039892Y0018370D01*
G01X0039894Y0018375D01*
G01X0039896Y0018381D01*
G01X0039898Y0018389D01*
G01X0039899Y0018398D01*
G01X0039900Y0018409D01*
G01X0039900Y0018409D01*
G01X0039900Y0018410D01*
G01X0039900Y0018413D01*
G01X0039899Y0018418D01*
G01X0039898Y0018424D01*
G01X0039897Y0018431D01*
G01X0039895Y0018438D01*
G01X0039892Y0018445D01*
G01X0039888Y0018450D01*
G01X0039887Y0018451D01*
G01X0039885Y0018452D01*
G01X0039883Y0018455D01*
G01X0039880Y0018457D01*
G01X0039876Y0018460D01*
G01X0039871Y0018462D01*
G01X0039865Y0018464D01*
G01X0039859Y0018464D01*
G37*
G36*
G01X0039859Y0018464D02*
G37*
G36*
G01X0031394Y0018464D02*
G01X0031391Y0018464D01*
G01X0031388Y0018464D01*
G01X0031384Y0018463D01*
G01X0031379Y0018461D01*
G01X0031374Y0018458D01*
G01X0031369Y0018455D01*
G01X0031364Y0018450D01*
G01X0031364Y0018450D01*
G01X0031363Y0018447D01*
G01X0031360Y0018444D01*
G01X0031359Y0018440D01*
G01X0031357Y0018434D01*
G01X0031354Y0018426D01*
G01X0031353Y0018417D01*
G01X0031353Y0018408D01*
G01X0031353Y0018407D01*
G01X0031353Y0018406D01*
G01X0031353Y0018405D01*
G01X0031353Y0018403D01*
G01X0031353Y0018398D01*
G01X0031354Y0018391D01*
G01X0031355Y0018385D01*
G01X0031358Y0018378D01*
G01X0031360Y0018371D01*
G01X0031364Y0018365D01*
G01X0031365Y0018364D01*
G01X0031366Y0018363D01*
G01X0031369Y0018361D01*
G01X0031372Y0018358D01*
G01X0031377Y0018356D01*
G01X0031382Y0018354D01*
G01X0031388Y0018352D01*
G01X0031394Y0018351D01*
G01X0031397Y0018351D01*
G01X0031400Y0018352D01*
G01X0031404Y0018353D01*
G01X0031409Y0018355D01*
G01X0031414Y0018357D01*
G01X0031419Y0018360D01*
G01X0031423Y0018364D01*
G01X0031424Y0018365D01*
G01X0031425Y0018367D01*
G01X0031427Y0018370D01*
G01X0031429Y0018375D01*
G01X0031431Y0018381D01*
G01X0031433Y0018389D01*
G01X0031435Y0018398D01*
G01X0031435Y0018409D01*
G01X0031435Y0018409D01*
G01X0031435Y0018410D01*
G01X0031435Y0018413D01*
G01X0031435Y0018418D01*
G01X0031433Y0018424D01*
G01X0031432Y0018431D01*
G01X0031430Y0018438D01*
G01X0031427Y0018445D01*
G01X0031423Y0018450D01*
G01X0031423Y0018451D01*
G01X0031421Y0018452D01*
G01X0031419Y0018455D01*
G01X0031415Y0018457D01*
G01X0031411Y0018460D01*
G01X0031406Y0018462D01*
G01X0031400Y0018464D01*
G01X0031394Y0018464D01*
G37*
G36*
G01X0031394Y0018464D02*
G37*
G36*
G01X0022930Y0018464D02*
G37*
G36*
G01X0014465Y0018464D02*
G37*
%LPD*%
G54D10*
G01X0016142Y0040827D02*
G75*
G03X0014352Y0042959I-002165J0000000D01*
G01X0013600Y0042959D02*
G75*
G03X0011811Y0040827I0000376J-002132D01*
G01X0015266Y0037105D02*
G75*
G03X0015266Y0037105I-000033J0000000D01*
G01X0011811Y0038268D02*
G01X0011811Y0040827D01*
G01X0016142Y0038268D02*
G01X0016142Y0040827D01*
G01X0011811Y0038268D02*
G01X0016142Y0038268D01*
G54D17*
G01X0015236Y0036614D02*
G75*
G03X0015236Y0036614I-000591J0000000D01*
G01X0013189Y0036614D02*
G75*
G03X0013189Y0036614I-000591J0000000D01*
G01X0015285Y0037421D02*
G75*
G03X0015285Y0037650I0000000J0000114D01*
G01X0016072Y0037293D02*
G01X0016072Y0037765D01*
G01X0015285Y0037650D02*
G01X0015285Y0037765D01*
G01X0015285Y0037293D02*
G01X0015285Y0037421D01*
G54D18*
G01X0013113Y0043152D02*
G01X0013190Y0043197D01*
G01X0013054Y0043255D02*
G01X0013164Y0043065D01*
G01X0012986Y0043215D02*
G01X0013096Y0043025D01*
G01X0012968Y0043069D02*
G01X0013045Y0043113D01*
G01X0012232Y0037687D02*
G01X0012232Y0037598D01*
G01X0012130Y0037687D02*
G01X0012350Y0037687D01*
G01X0012130Y0037765D02*
G01X0012350Y0037765D01*
G01X0012232Y0037854D02*
G01X0012232Y0037765D01*
G01X0013731Y0036787D02*
G01X0013731Y0036698D01*
G01X0013630Y0036787D02*
G01X0013850Y0036787D01*
G01X0013630Y0036865D02*
G01X0013850Y0036865D01*
G01X0013731Y0036954D02*
G01X0013731Y0036865D01*
M02*
