G04 Layer_Physical_Order=1*
G04 Layer_Color=255*
%FSAX24Y24*%
%MOIN*%
G70*
G01*
G75*
%ADD10R,0.0787X0.0354*%
%ADD11R,0.0236X0.0354*%
%ADD12R,0.0709X0.0591*%
%ADD13R,0.0354X0.0236*%
%ADD14R,0.1063X0.0453*%
%ADD15R,0.0433X0.0551*%
%ADD16R,0.0610X0.0748*%
%ADD17R,0.1929X0.1161*%
%ADD18R,0.0197X0.0866*%
%ADD19R,0.0394X0.0236*%
%ADD20R,0.0472X0.0157*%
G04:AMPARAMS|DCode=21|XSize=47.2mil|YSize=15.7mil|CornerRadius=5.5mil|HoleSize=0mil|Usage=FLASHONLY|Rotation=0.000|XOffset=0mil|YOffset=0mil|HoleType=Round|Shape=RoundedRectangle|*
%AMROUNDEDRECTD21*
21,1,0.0472,0.0047,0,0,0.0*
21,1,0.0362,0.0157,0,0,0.0*
1,1,0.0110,0.0181,-0.0024*
1,1,0.0110,-0.0181,-0.0024*
1,1,0.0110,-0.0181,0.0024*
1,1,0.0110,0.0181,0.0024*
%
%ADD21ROUNDEDRECTD21*%
%ADD22O,0.0709X0.0138*%
%ADD23R,0.0335X0.0138*%
%ADD24C,0.0197*%
%ADD25C,0.0200*%
%ADD26C,0.0070*%
%ADD27C,0.0100*%
%ADD28C,0.0300*%
%ADD29C,0.0150*%
%ADD30C,0.0354*%
%ADD31C,0.0276*%
%ADD32C,0.0630*%
%ADD33C,0.0157*%
G36*
X013412Y017984D02*
X013707Y017688D01*
X013704Y017673D01*
Y017535D01*
X013710Y017508D01*
X013725Y017485D01*
X013748Y017469D01*
X013776Y017464D01*
X013951D01*
X013960Y017450D01*
X014029Y017404D01*
X014110Y017388D01*
X014191Y017404D01*
X014260Y017450D01*
X014262Y017453D01*
X014312Y017438D01*
Y017396D01*
X014317Y017369D01*
X014333Y017345D01*
Y017345D01*
X014330Y017343D01*
X014311Y017330D01*
X014289Y017297D01*
X014281Y017258D01*
Y017190D01*
X014879D01*
Y017258D01*
X014871Y017297D01*
X014849Y017330D01*
X014830Y017343D01*
X014827Y017345D01*
Y017345D01*
X014843Y017369D01*
X014848Y017396D01*
Y017553D01*
X014894Y017573D01*
X015053Y017413D01*
X015093Y017387D01*
X015140Y017378D01*
X015378D01*
X015380Y017369D01*
X015396Y017345D01*
Y017309D01*
X015380Y017285D01*
X015375Y017258D01*
Y017022D01*
X015380Y016995D01*
X015396Y016971D01*
Y016971D01*
X015393Y016969D01*
X015374Y016956D01*
X015352Y016923D01*
X015344Y016884D01*
Y016816D01*
X015942D01*
Y016884D01*
X015934Y016923D01*
X015912Y016956D01*
X015893Y016969D01*
X015890Y016971D01*
Y016971D01*
X015906Y016995D01*
X015911Y017022D01*
Y017033D01*
X015960D01*
X016001Y017041D01*
X016036Y017064D01*
X016286Y017314D01*
X016286Y017314D01*
X016309Y017349D01*
X016317Y017390D01*
Y017397D01*
X016367Y017419D01*
X016419Y017384D01*
X016489Y017370D01*
X016481Y017330D01*
X016492Y017276D01*
X016504Y017258D01*
X016501Y017196D01*
X016463Y017140D01*
X016460Y017124D01*
X016908D01*
Y017024D01*
X016460D01*
X016463Y017008D01*
X016475Y016990D01*
X016448Y016940D01*
X016448D01*
X016401Y016931D01*
X016361Y016904D01*
X016201Y016744D01*
X016174Y016704D01*
X016165Y016657D01*
Y016499D01*
X016142Y016495D01*
X016119Y016479D01*
X016103Y016456D01*
X016098Y016429D01*
Y016074D01*
X016103Y016047D01*
X016119Y016024D01*
X016117Y015988D01*
X016101Y015964D01*
X016096Y015937D01*
Y015583D01*
X016101Y015559D01*
X016100Y015554D01*
X016072Y015509D01*
X015944D01*
X015934Y015519D01*
X015910Y015559D01*
X015915Y015583D01*
Y015710D01*
X015695D01*
X015475D01*
Y015583D01*
X015479Y015559D01*
X015456Y015519D01*
X015446Y015509D01*
X015355D01*
X015340Y015559D01*
X015347Y015564D01*
X015369Y015597D01*
X015377Y015636D01*
Y015912D01*
X014970D01*
Y016010D01*
X014872D01*
Y016486D01*
X014665D01*
X014626Y016478D01*
X014593Y016456D01*
X014571Y016423D01*
X014568Y016411D01*
X014517D01*
X014509Y016456D01*
X014471Y016511D01*
X014453Y016530D01*
X014472Y016576D01*
X014721D01*
X014739Y016564D01*
X014820Y016548D01*
X014901Y016564D01*
X014970Y016610D01*
X015016Y016679D01*
X015032Y016760D01*
X015016Y016841D01*
X014970Y016910D01*
X014901Y016956D01*
X014877Y017012D01*
X014879Y017022D01*
Y017090D01*
X014281D01*
Y017022D01*
X014289Y016983D01*
X014311Y016950D01*
X014330Y016937D01*
X014317Y016911D01*
X014312Y016884D01*
Y016736D01*
X014266Y016717D01*
X014161Y016821D01*
X014106Y016859D01*
X014040Y016872D01*
X013856D01*
X013855Y016873D01*
Y017000D01*
X013415D01*
Y016873D01*
X013414Y016872D01*
X013235D01*
X013234Y016873D01*
Y017227D01*
X013229Y017254D01*
X013213Y017278D01*
X013190Y017293D01*
X013163Y017299D01*
X013152D01*
Y017464D01*
X013244D01*
X013272Y017469D01*
X013295Y017485D01*
X013310Y017508D01*
X013316Y017535D01*
Y017673D01*
X013310Y017700D01*
X013303Y017710D01*
X013316Y017719D01*
X013338Y017752D01*
X013346Y017791D01*
Y017810D01*
X013077D01*
Y017910D01*
X013346D01*
Y017929D01*
X013340Y017959D01*
X013350Y017977D01*
X013388Y017987D01*
X013412Y017984D01*
D02*
G37*
G36*
X017751Y017823D02*
X017792Y017769D01*
X017850Y017725D01*
X017918Y017697D01*
X017990Y017687D01*
X017991Y017687D01*
X018020Y017641D01*
X018011Y017628D01*
X018003Y017587D01*
Y016690D01*
X018011Y016649D01*
X018034Y016614D01*
X018125Y016524D01*
X018113Y016484D01*
X018105Y016473D01*
X018040Y016430D01*
X017994Y016361D01*
X017978Y016280D01*
X017994Y016199D01*
X018040Y016130D01*
X018109Y016084D01*
X018190Y016068D01*
X018271Y016084D01*
X018340Y016130D01*
X018386Y016199D01*
X018386Y016199D01*
X018674D01*
X018679Y016149D01*
X018645Y016126D01*
X018645Y016126D01*
X017970Y015451D01*
X017920Y015472D01*
Y016205D01*
X017920Y016205D01*
X017912Y016246D01*
X017888Y016281D01*
X017532Y016638D01*
X017497Y016661D01*
X017456Y016669D01*
X017401D01*
X017386Y016719D01*
X017404Y016731D01*
X017577Y016903D01*
X017603Y016943D01*
X017612Y016990D01*
Y017751D01*
X017668Y017789D01*
X017694Y017827D01*
X017733Y017827D01*
X017751Y017823D01*
D02*
G37*
G36*
X019548Y018750D02*
X019501Y018693D01*
X019437Y018573D01*
X019398Y018443D01*
X019384Y018307D01*
X019398Y018172D01*
X019437Y018041D01*
X019501Y017921D01*
X019588Y017816D01*
X019693Y017730D01*
X019813Y017666D01*
X019943Y017626D01*
X020079Y017613D01*
X020214Y017626D01*
X020344Y017666D01*
X020464Y017730D01*
X020522Y017777D01*
X020567Y017755D01*
Y017484D01*
X020549Y017469D01*
X020312D01*
X020285Y017463D01*
X020262Y017448D01*
X020247Y017424D01*
X020241Y017397D01*
Y017043D01*
X020247Y017016D01*
X020262Y016992D01*
X020285Y016977D01*
X020312Y016971D01*
X020324D01*
Y016909D01*
X020317D01*
X020290Y016903D01*
X020267Y016888D01*
X020251Y016864D01*
X020246Y016837D01*
Y016483D01*
X020251Y016456D01*
X020267Y016432D01*
X020283Y016421D01*
X020286Y016392D01*
X020282Y016367D01*
X020255Y016349D01*
X020233Y016316D01*
X020225Y016277D01*
Y016150D01*
X020445D01*
Y016050D01*
X020225D01*
Y015923D01*
X020233Y015884D01*
X020255Y015851D01*
X020287Y015830D01*
X020290Y015817D01*
X020291Y015777D01*
X020277Y015768D01*
X020261Y015744D01*
X020256Y015717D01*
Y015363D01*
X020261Y015336D01*
X020277Y015312D01*
X020300Y015297D01*
X020301Y015297D01*
X020296Y015247D01*
X020069D01*
X020056Y015271D01*
X020049Y015297D01*
X020067Y015324D01*
X020075Y015363D01*
Y015490D01*
X019855D01*
X019635D01*
Y015363D01*
X019642Y015324D01*
X019665Y015291D01*
X019698Y015269D01*
X019737Y015261D01*
X019754D01*
X019757Y015258D01*
X019777Y015211D01*
X019771Y015203D01*
X019766Y015175D01*
Y014780D01*
X019750Y014770D01*
X019704Y014701D01*
X019688Y014620D01*
X019695Y014586D01*
X019657Y014542D01*
X019607D01*
X019565Y014585D01*
Y014830D01*
X019109D01*
X018652D01*
Y014585D01*
X018660Y014546D01*
X018682Y014513D01*
X018715Y014491D01*
X018754Y014483D01*
X018874D01*
X018894Y014437D01*
X018803Y014346D01*
X018624D01*
X018596Y014341D01*
X018573Y014325D01*
X018558Y014302D01*
X018552Y014275D01*
Y014117D01*
X018558Y014090D01*
X018572Y014068D01*
X018558Y014046D01*
X018552Y014019D01*
Y013861D01*
X018558Y013834D01*
X018572Y013812D01*
X018558Y013790D01*
X018552Y013763D01*
Y013605D01*
X018557Y013583D01*
X018552Y013579D01*
X018530Y013546D01*
X018522Y013507D01*
Y013478D01*
X018860D01*
Y013428D01*
X018910D01*
Y013247D01*
X019096D01*
X019135Y013255D01*
X019168Y013277D01*
X019212Y013252D01*
X019269Y013214D01*
X019350Y013198D01*
X019431Y013214D01*
X019500Y013260D01*
X019546Y013329D01*
X019553Y013365D01*
X019607D01*
X019634Y013371D01*
X019658Y013386D01*
X019659Y013388D01*
X019687Y013387D01*
X019714Y013380D01*
X019726Y013362D01*
Y013318D01*
X019710Y013294D01*
X019705Y013267D01*
Y013212D01*
X019693D01*
X019647Y013203D01*
X019607Y013177D01*
X019517Y013087D01*
X019087D01*
X019060Y013082D01*
X019036Y013066D01*
X019021Y013043D01*
X019015Y013016D01*
Y012464D01*
X019021Y012437D01*
X019036Y012414D01*
X019060Y012398D01*
X019087Y012393D01*
X019520D01*
X019547Y012398D01*
X019570Y012414D01*
X019586Y012437D01*
X019591Y012464D01*
Y012815D01*
X019636Y012860D01*
X019639Y012861D01*
X019692Y012845D01*
X019696Y012827D01*
X019682Y012806D01*
X019674Y012767D01*
Y012640D01*
X020170D01*
Y012540D01*
X019674D01*
Y012413D01*
X019682Y012374D01*
X019704Y012341D01*
X019709Y012337D01*
X019716Y012330D01*
X019697Y012286D01*
X018277D01*
X018258Y012332D01*
X018319Y012393D01*
X018693D01*
X018720Y012398D01*
X018744Y012414D01*
X018759Y012437D01*
X018765Y012464D01*
Y012512D01*
X018796Y012559D01*
X018812Y012640D01*
X018796Y012721D01*
X018765Y012768D01*
Y013016D01*
X018759Y013043D01*
X018744Y013066D01*
X018720Y013082D01*
X018693Y013087D01*
X018260D01*
X018233Y013082D01*
X018210Y013066D01*
X018194Y013043D01*
X018189Y013016D01*
Y012973D01*
X018139Y012950D01*
X018122Y012961D01*
X018083Y012969D01*
X018015D01*
Y012690D01*
X017965D01*
Y012640D01*
X017745D01*
Y012513D01*
X017747Y012502D01*
X017712Y012452D01*
X017609D01*
X017562Y012500D01*
X017564Y012513D01*
Y012867D01*
X017559Y012894D01*
X017543Y012918D01*
X017520Y012933D01*
X017493Y012939D01*
X017257D01*
X017229Y012933D01*
X017206Y012918D01*
X017191Y012894D01*
X017185Y012867D01*
Y012827D01*
X017105D01*
Y012867D01*
X017099Y012894D01*
X017084Y012918D01*
X017061Y012933D01*
X017033Y012939D01*
X016797D01*
X016791Y012943D01*
Y013233D01*
X016821Y013278D01*
X017293D01*
X017320Y013284D01*
X017344Y013299D01*
X017358Y013321D01*
X017558D01*
X017599Y013329D01*
X017634Y013352D01*
X017683Y013401D01*
X017731Y013387D01*
X017734Y013369D01*
X017780Y013300D01*
X017849Y013254D01*
X017930Y013238D01*
X018011Y013254D01*
X018080Y013300D01*
X018126Y013369D01*
X018142Y013450D01*
X018126Y013531D01*
X018107Y013559D01*
Y015286D01*
X018674Y015853D01*
X018685Y015851D01*
X018725Y015796D01*
X018725Y015794D01*
X018736Y015740D01*
X018766Y015694D01*
X018812Y015663D01*
X018867Y015653D01*
X019437D01*
X019492Y015663D01*
X019527Y015687D01*
X019549D01*
X019585Y015694D01*
X019595Y015692D01*
X019635Y015665D01*
Y015590D01*
X019855D01*
X020075D01*
Y015717D01*
X020067Y015756D01*
X020045Y015789D01*
X020013Y015810D01*
X020010Y015823D01*
X020009Y015863D01*
X020023Y015872D01*
X020039Y015896D01*
X020044Y015923D01*
Y016277D01*
X020039Y016304D01*
X020023Y016328D01*
X020000Y016343D01*
X019973Y016349D01*
X019962D01*
Y016411D01*
X019963D01*
X019990Y016417D01*
X020013Y016432D01*
X020029Y016456D01*
X020034Y016483D01*
Y016837D01*
X020029Y016864D01*
X020013Y016888D01*
X019998Y016898D01*
X019997Y016935D01*
X020001Y016951D01*
X020030Y016971D01*
X020052Y017004D01*
X020060Y017043D01*
Y017170D01*
X019840D01*
Y017220D01*
X019790D01*
Y017499D01*
X019722D01*
X019683Y017491D01*
X019650Y017469D01*
X019628Y017436D01*
X019620Y017397D01*
Y017381D01*
X019570Y017376D01*
X019568Y017384D01*
X019538Y017430D01*
X019492Y017461D01*
X019437Y017471D01*
X019259D01*
Y018148D01*
X019251Y018189D01*
X019228Y018224D01*
X018702Y018749D01*
X018721Y018795D01*
X019527D01*
X019548Y018750D01*
D02*
G37*
%LPC*%
G36*
X013585Y017329D02*
X013517D01*
X013478Y017321D01*
X013445Y017299D01*
X013423Y017266D01*
X013415Y017227D01*
Y017100D01*
X013585D01*
Y017329D01*
D02*
G37*
G36*
X013753D02*
X013685D01*
Y017100D01*
X013855D01*
Y017227D01*
X013848Y017266D01*
X013825Y017299D01*
X013792Y017321D01*
X013753Y017329D01*
D02*
G37*
G36*
X015917Y016202D02*
X015697D01*
X015477D01*
Y016074D01*
X015484Y016035D01*
X015503Y016007D01*
X015482Y015976D01*
X015475Y015937D01*
Y015810D01*
X015695D01*
X015915D01*
Y015937D01*
X015907Y015976D01*
X015888Y016004D01*
X015909Y016035D01*
X015917Y016074D01*
Y016202D01*
D02*
G37*
G36*
X015275Y016486D02*
X015069D01*
Y016108D01*
X015377D01*
Y016384D01*
X015369Y016423D01*
X015347Y016456D01*
X015314Y016478D01*
X015275Y016486D01*
D02*
G37*
G36*
X015942Y016716D02*
X015344D01*
Y016648D01*
X015352Y016609D01*
X015374Y016576D01*
X015407Y016554D01*
X015446Y016546D01*
X015484D01*
X015498Y016519D01*
X015503Y016496D01*
X015484Y016468D01*
X015477Y016429D01*
Y016302D01*
X015697D01*
X015917D01*
Y016429D01*
X015909Y016468D01*
X015887Y016501D01*
X015883Y016504D01*
X015881Y016522D01*
X015888Y016560D01*
X015912Y016576D01*
X015934Y016609D01*
X015942Y016648D01*
Y016716D01*
D02*
G37*
G36*
X018810Y013378D02*
X018522D01*
Y013349D01*
X018530Y013310D01*
X018552Y013277D01*
X018585Y013255D01*
X018624Y013247D01*
X018810D01*
Y013378D01*
D02*
G37*
G36*
X017915Y012969D02*
X017847D01*
X017808Y012961D01*
X017775Y012939D01*
X017753Y012906D01*
X017745Y012867D01*
Y012740D01*
X017915D01*
Y012969D01*
D02*
G37*
G36*
X019059Y015277D02*
X018754D01*
X018715Y015269D01*
X018682Y015247D01*
X018660Y015214D01*
X018652Y015175D01*
Y014930D01*
X019059D01*
Y015277D01*
D02*
G37*
G36*
X019463D02*
X019159D01*
Y014930D01*
X019565D01*
Y015175D01*
X019557Y015214D01*
X019535Y015247D01*
X019502Y015269D01*
X019463Y015277D01*
D02*
G37*
G36*
X019958Y017499D02*
X019890D01*
Y017270D01*
X020060D01*
Y017397D01*
X020052Y017436D01*
X020030Y017469D01*
X019997Y017491D01*
X019958Y017499D01*
D02*
G37*
%LPD*%
D10*
X012310Y017620D02*
D03*
Y018120D02*
D03*
Y018620D02*
D03*
Y014090D02*
D03*
Y013590D02*
D03*
Y012090D02*
D03*
Y012590D02*
D03*
Y013090D02*
D03*
Y016430D02*
D03*
Y015930D02*
D03*
X020170Y014090D02*
D03*
Y013590D02*
D03*
Y012090D02*
D03*
Y012590D02*
D03*
Y013090D02*
D03*
D11*
X020445Y016100D02*
D03*
X019855D02*
D03*
X017375Y012690D02*
D03*
X017965D02*
D03*
X014525Y018570D02*
D03*
X015115D02*
D03*
X015975Y013420D02*
D03*
X015385D02*
D03*
X020445Y015540D02*
D03*
X019855D02*
D03*
X016287Y016252D02*
D03*
X015697D02*
D03*
X016285Y015760D02*
D03*
X015695D02*
D03*
X015910Y012690D02*
D03*
X015319D02*
D03*
X020431Y017220D02*
D03*
X019840D02*
D03*
X016915Y012690D02*
D03*
X016325D02*
D03*
X014539Y018070D02*
D03*
X015130D02*
D03*
X019845Y016660D02*
D03*
X020435D02*
D03*
X012045Y017050D02*
D03*
X012635D02*
D03*
X013035Y018620D02*
D03*
X013625D02*
D03*
X013045Y017050D02*
D03*
X013635D02*
D03*
D12*
X020191Y014880D02*
D03*
X019109D02*
D03*
D13*
X015670Y018025D02*
D03*
Y018615D02*
D03*
X019430Y014145D02*
D03*
Y013555D02*
D03*
X016210Y018025D02*
D03*
Y018615D02*
D03*
D14*
X015790Y015211D02*
D03*
Y014030D02*
D03*
D15*
X019303Y012740D02*
D03*
X018477D02*
D03*
D16*
X014970Y016010D02*
D03*
X013730D02*
D03*
D17*
X014100Y013882D02*
D03*
D18*
X014350Y015014D02*
D03*
X013850D02*
D03*
X014850D02*
D03*
X013350D02*
D03*
X014350Y012750D02*
D03*
X013850D02*
D03*
X014850D02*
D03*
X013350D02*
D03*
D19*
X015643Y016766D02*
D03*
Y017140D02*
D03*
Y017514D02*
D03*
X014580Y016766D02*
D03*
Y017140D02*
D03*
Y017514D02*
D03*
D20*
X018860Y014196D02*
D03*
Y013940D02*
D03*
Y013684D02*
D03*
Y013428D02*
D03*
X017057D02*
D03*
Y013684D02*
D03*
Y013940D02*
D03*
D21*
Y014196D02*
D03*
D22*
X019152Y015794D02*
D03*
Y016050D02*
D03*
Y016306D02*
D03*
Y016562D02*
D03*
Y016818D02*
D03*
Y017074D02*
D03*
X016908Y015794D02*
D03*
Y016050D02*
D03*
Y016306D02*
D03*
Y016562D02*
D03*
Y016818D02*
D03*
Y017074D02*
D03*
Y017330D02*
D03*
X019152D02*
D03*
D23*
X013077Y018116D02*
D03*
Y017860D02*
D03*
Y017604D02*
D03*
X013943D02*
D03*
Y018116D02*
D03*
D24*
X013170Y016700D02*
X014040D01*
X012900Y016430D02*
X013170Y016700D01*
X012310Y016430D02*
X012900D01*
X014350Y015014D02*
Y016390D01*
X014040Y016700D02*
X014350Y016390D01*
X013770Y016040D02*
X013850Y015960D01*
Y015014D02*
Y015960D01*
X013350Y015014D02*
Y015138D01*
X012310Y015930D02*
X012558D01*
X013350Y015138D01*
D25*
X014248Y014030D02*
X015790D01*
X016618Y013450D02*
Y014652D01*
X016059Y015211D02*
X016618Y014652D01*
X014100Y013882D02*
X014248Y014030D01*
X016618Y012189D02*
Y013450D01*
X016490Y012061D02*
X016618Y012189D01*
X015790Y015211D02*
X016059D01*
X015047D02*
X015790D01*
X014850Y015014D02*
X015047Y015211D01*
D26*
X019420Y014000D02*
X019510Y014090D01*
X017345Y012565D02*
Y012720D01*
X016913D02*
X017345D01*
X018425Y012650D02*
X018487D01*
X017930Y013450D02*
X018000Y013520D01*
X017813Y013683D02*
Y016205D01*
X017558Y013428D02*
X017813Y013683D01*
X017464Y013684D02*
X017510Y013730D01*
X017286Y014196D02*
X017573Y014483D01*
X017057Y014196D02*
X017286D01*
X017057Y013684D02*
X017464D01*
X017057Y013428D02*
X017558D01*
X018000Y013520D02*
Y015330D01*
X013431Y018116D02*
X013943Y017604D01*
X013077Y018116D02*
X013431D01*
X013684D02*
X013943D01*
X013180Y018620D02*
X013684Y018116D01*
X013035Y018620D02*
X013180D01*
X019152Y017330D02*
Y018148D01*
X018538Y018762D02*
X019152Y018148D01*
X017442Y018762D02*
X018538D01*
X017417Y016306D02*
X017573Y016151D01*
Y014483D02*
Y016151D01*
X016908Y016306D02*
X017417D01*
X016990Y018310D02*
X017442Y018762D01*
X015795Y018310D02*
X016990D01*
X015670Y018185D02*
X015795Y018310D01*
X015670Y018615D02*
X016210D01*
X015485Y018430D02*
X015670Y018615D01*
X015430Y018430D02*
X015485D01*
X015115Y018570D02*
X015290D01*
X015430Y018430D01*
X019855Y015540D02*
X019885D01*
X018000Y015330D02*
X018720Y016050D01*
X017456Y016562D02*
X017813Y016205D01*
X016700Y015490D02*
X016908Y015698D01*
Y015794D01*
X020150Y016395D02*
Y016910D01*
X020431Y016665D02*
X020435Y016660D01*
X020431Y016665D02*
Y017220D01*
X019845Y016660D02*
X019855Y016650D01*
Y016100D02*
Y016650D01*
X019549Y015794D02*
X019855Y016100D01*
X019152Y015794D02*
X019549D01*
X018110Y017587D02*
X018490Y017967D01*
X018110Y016690D02*
Y017587D01*
Y016690D02*
X018238Y016562D01*
X019152D01*
X018720Y016050D02*
X019152D01*
X018190Y016280D02*
X018216Y016306D01*
X019152D01*
X019144Y016810D02*
X019152Y016818D01*
X018440Y016810D02*
X019144D01*
X016908Y016562D02*
X017456D01*
X016500Y017580D02*
X016750Y017330D01*
X016908D01*
X015910Y012690D02*
X016325D01*
X019360Y013940D02*
X019420Y014000D01*
X018860Y013940D02*
X019360D01*
X019301Y013684D02*
X019430Y013555D01*
X018860Y013684D02*
X019301D01*
X015130Y018070D02*
X015175Y018025D01*
X015670D01*
X015643Y017140D02*
X015960D01*
X016210Y017390D01*
Y018025D01*
X015670D02*
Y018185D01*
X014539Y017555D02*
X014580Y017514D01*
X014539Y017555D02*
Y018070D01*
X015629Y017500D02*
X015643Y017514D01*
X012310Y018620D02*
X013035D01*
X012310Y018120D02*
X012600D01*
X012860Y017860D01*
X013077D01*
X012310Y017620D02*
X012326Y017604D01*
X013077D01*
X013045Y017572D02*
X013077Y017604D01*
X013045Y017050D02*
Y017572D01*
X012635Y017050D02*
X013045D01*
X019430Y013555D02*
X019465Y013590D01*
X020170D01*
X019510Y014090D02*
X020170D01*
X016200Y013120D02*
X016280Y013200D01*
X015860Y013120D02*
X016200D01*
X015640Y012900D02*
X015860Y013120D01*
X019950Y012590D02*
X020170D01*
X019880D02*
X019950D01*
X016280Y013200D02*
X016310D01*
X018120Y012345D02*
X018425Y012650D01*
X017565Y012345D02*
X018120D01*
X017345Y012565D02*
X017565Y012345D01*
X015030Y012370D02*
X015530D01*
X014850Y012550D02*
X015030Y012370D01*
X014850Y012550D02*
Y012750D01*
X015640Y012480D02*
Y012900D01*
X015530Y012370D02*
X015640Y012480D01*
X012900Y012980D02*
X012960Y012920D01*
X012600Y013590D02*
X012900Y013290D01*
Y012980D02*
Y013290D01*
X012310Y013590D02*
X012600D01*
X012660Y014090D02*
X012920Y013830D01*
X012310Y014090D02*
X012660D01*
X012920Y013620D02*
Y013830D01*
D27*
X019731Y014420D02*
X020191Y014880D01*
X014120Y018110D02*
Y018400D01*
X019303Y012700D02*
X019693Y013090D01*
X017355Y013940D02*
X017535Y014120D01*
X017057Y013940D02*
X017355D01*
X017535Y014120D02*
X017570D01*
X017730Y016670D02*
X017880Y016520D01*
X017730Y016670D02*
Y017707D01*
X017990Y017967D01*
X015385Y012755D02*
Y013420D01*
X015319Y012690D02*
X015385Y012755D01*
Y013625D02*
X015790Y014030D01*
X015385Y013420D02*
Y013625D01*
X016737Y017967D02*
X017490D01*
X016570Y013450D02*
X016618D01*
X019769Y015540D02*
X019855D01*
X020445Y015134D02*
Y015540D01*
X020191Y014880D02*
X020445Y015134D01*
X019050Y014420D02*
X019731D01*
X018860Y014230D02*
X019050Y014420D01*
X018860Y014196D02*
Y014230D01*
X018967Y012415D02*
X019037Y012344D01*
X016285Y015760D02*
X016287Y015762D01*
Y016252D01*
X017490Y016990D02*
Y017967D01*
X017318Y016818D02*
X017490Y016990D01*
X016908Y016818D02*
X017318D01*
X016287Y016252D02*
Y016657D01*
X016448Y016818D01*
X016908D01*
X014120Y018400D02*
X014290Y018570D01*
X014525D01*
X015140Y017500D02*
X015629D01*
X014860Y017780D02*
X015140Y017500D01*
X014860Y017780D02*
Y018395D01*
X014685Y018570D02*
X014860Y018395D01*
X014525Y018570D02*
X014685D01*
X019950Y013090D02*
X020170D01*
X019693D02*
X019950D01*
X016510Y013510D02*
X016570Y013450D01*
X016100Y013510D02*
X016510D01*
X016010Y013420D02*
X016100Y013510D01*
X015975Y013420D02*
X016010D01*
D28*
X016490Y012061D02*
X020141D01*
X012339D02*
X016490D01*
X012310Y012090D02*
X012339Y012061D01*
X020141D02*
X020170Y012090D01*
D29*
X012430Y012590D02*
X013190D01*
X013350Y012750D01*
D30*
X018240Y018400D02*
D03*
X017740D02*
D03*
X018490Y017967D02*
D03*
X017990D02*
D03*
X017490D02*
D03*
X015100Y015810D02*
D03*
Y016210D02*
D03*
X019950Y013090D02*
D03*
X012090Y012590D02*
D03*
X012430D02*
D03*
X012520Y013090D02*
D03*
X019950Y012590D02*
D03*
D31*
X018600Y012640D02*
D03*
X017930Y013450D02*
D03*
X017510Y013730D02*
D03*
X016720Y017960D02*
D03*
X013820Y018620D02*
D03*
X012250Y017053D02*
D03*
X017880Y016520D02*
D03*
X015430Y018430D02*
D03*
X019900Y014620D02*
D03*
X017330Y016050D02*
D03*
X018190Y016280D02*
D03*
X018440Y016810D02*
D03*
X018700Y017070D02*
D03*
X017570Y014120D02*
D03*
X016700Y015490D02*
D03*
X016500Y017580D02*
D03*
X014110Y017600D02*
D03*
X013360Y015950D02*
D03*
X014820Y016760D02*
D03*
X014120Y018110D02*
D03*
X019420Y014000D02*
D03*
X019350Y013410D02*
D03*
X016310Y013200D02*
D03*
X012960Y012920D02*
D03*
X014350Y013090D02*
D03*
X012920Y013620D02*
D03*
X013850Y013090D02*
D03*
D32*
X020079Y018307D02*
D03*
X012402Y014961D02*
D03*
D33*
X014612Y014138D02*
D03*
X013588D02*
D03*
X014100D02*
D03*
X014612Y013626D02*
D03*
X014100D02*
D03*
X013588D02*
D03*
M02*
