G04 Layer_Color=8388736*
%FSAX24Y24*%
%MOIN*%
G70*
G01*
G75*
%ADD41R,0.0867X0.0434*%
%ADD42R,0.0316X0.0434*%
%ADD43R,0.0789X0.0671*%
%ADD44R,0.0434X0.0316*%
%ADD45R,0.1143X0.0533*%
%ADD46R,0.0513X0.0631*%
%ADD47R,0.0690X0.0828*%
%ADD48R,0.0252X0.0921*%
%ADD49R,0.0449X0.0291*%
%ADD50R,0.0512X0.0197*%
G04:AMPARAMS|DCode=51|XSize=51.2mil|YSize=19.7mil|CornerRadius=7.5mil|HoleSize=0mil|Usage=FLASHONLY|Rotation=0.000|XOffset=0mil|YOffset=0mil|HoleType=Round|Shape=RoundedRectangle|*
%AMROUNDEDRECTD51*
21,1,0.0512,0.0047,0,0,0.0*
21,1,0.0362,0.0197,0,0,0.0*
1,1,0.0150,0.0181,-0.0024*
1,1,0.0150,-0.0181,-0.0024*
1,1,0.0150,-0.0181,0.0024*
1,1,0.0150,0.0181,0.0024*
%
%ADD51ROUNDEDRECTD51*%
%ADD52O,0.0789X0.0218*%
%ADD53R,0.0374X0.0177*%
%ADD54C,0.0434*%
%ADD55C,0.0710*%
G36*
X014710Y013409D02*
X013490D01*
Y014354D01*
X014710D01*
Y013409D01*
D02*
G37*
D41*
X012310Y017620D02*
D03*
Y018120D02*
D03*
Y018620D02*
D03*
Y014090D02*
D03*
Y013590D02*
D03*
Y012090D02*
D03*
Y012590D02*
D03*
Y013090D02*
D03*
Y016430D02*
D03*
Y015930D02*
D03*
X020170Y014090D02*
D03*
Y013590D02*
D03*
Y012090D02*
D03*
Y012590D02*
D03*
Y013090D02*
D03*
D42*
X020445Y016100D02*
D03*
X019855D02*
D03*
X017375Y012690D02*
D03*
X017965D02*
D03*
X014525Y018570D02*
D03*
X015115D02*
D03*
X015975Y013420D02*
D03*
X015385D02*
D03*
X020445Y015540D02*
D03*
X019855D02*
D03*
X016287Y016252D02*
D03*
X015697D02*
D03*
X016285Y015760D02*
D03*
X015695D02*
D03*
X015910Y012690D02*
D03*
X015319D02*
D03*
X020431Y017220D02*
D03*
X019840D02*
D03*
X016915Y012690D02*
D03*
X016325D02*
D03*
X014539Y018070D02*
D03*
X015130D02*
D03*
X019845Y016660D02*
D03*
X020435D02*
D03*
X012045Y017050D02*
D03*
X012635D02*
D03*
X013035Y018620D02*
D03*
X013625D02*
D03*
X013045Y017050D02*
D03*
X013635D02*
D03*
D43*
X020191Y014880D02*
D03*
X019109D02*
D03*
D44*
X015670Y018025D02*
D03*
Y018615D02*
D03*
X019430Y014145D02*
D03*
Y013555D02*
D03*
X016210Y018025D02*
D03*
Y018615D02*
D03*
D45*
X015790Y015211D02*
D03*
Y014030D02*
D03*
D46*
X019303Y012740D02*
D03*
X018477D02*
D03*
D47*
X014970Y016010D02*
D03*
X013730D02*
D03*
D48*
X014350Y015014D02*
D03*
X013850D02*
D03*
X014850D02*
D03*
X013350D02*
D03*
X014350Y012750D02*
D03*
X013850D02*
D03*
X014850D02*
D03*
X013350D02*
D03*
D49*
X015643Y016766D02*
D03*
Y017140D02*
D03*
Y017514D02*
D03*
X014580Y016766D02*
D03*
Y017140D02*
D03*
Y017514D02*
D03*
D50*
X018860Y014196D02*
D03*
Y013940D02*
D03*
Y013684D02*
D03*
Y013428D02*
D03*
X017057D02*
D03*
Y013684D02*
D03*
Y013940D02*
D03*
D51*
Y014196D02*
D03*
D52*
X019152Y015794D02*
D03*
Y016050D02*
D03*
Y016306D02*
D03*
Y016562D02*
D03*
Y016818D02*
D03*
Y017074D02*
D03*
X016908Y015794D02*
D03*
Y016050D02*
D03*
Y016306D02*
D03*
Y016562D02*
D03*
Y016818D02*
D03*
Y017074D02*
D03*
Y017330D02*
D03*
X019152D02*
D03*
D53*
X013077Y018116D02*
D03*
Y017860D02*
D03*
Y017604D02*
D03*
X013943D02*
D03*
Y018116D02*
D03*
D54*
X018240Y018400D02*
D03*
X017740D02*
D03*
X018490Y017967D02*
D03*
X017990D02*
D03*
X017490D02*
D03*
D55*
X020079Y018307D02*
D03*
X012402Y014961D02*
D03*
M02*
