G04 Layer_Physical_Order=2*
G04 Layer_Color=16711680*
%FSAX24Y24*%
%MOIN*%
G70*
G01*
G75*
%ADD23C,0.0070*%
%ADD24C,0.0100*%
%ADD25C,0.0150*%
%ADD27C,0.0354*%
%ADD28C,0.0315*%
%ADD29C,0.0630*%
%ADD30C,0.0157*%
G36*
X012497Y018736D02*
X012466Y018689D01*
X012448Y018600D01*
X012466Y018511D01*
X012516Y018436D01*
X012591Y018386D01*
X012609Y018382D01*
Y018322D01*
X012571Y018314D01*
X012496Y018264D01*
X012446Y018189D01*
X012428Y018100D01*
X012446Y018011D01*
X012496Y017936D01*
X012571Y017886D01*
X012581Y017884D01*
X012588Y017822D01*
X012522Y017778D01*
X012467Y017696D01*
X012448Y017600D01*
X012467Y017504D01*
X012522Y017422D01*
X012604Y017367D01*
X012700Y017348D01*
X012736Y017355D01*
X013232Y016859D01*
Y013939D01*
X013204Y013933D01*
X013122Y013878D01*
X013067Y013796D01*
X013048Y013700D01*
X013067Y013604D01*
X013122Y013522D01*
X013204Y013467D01*
X013300Y013448D01*
X013376Y013463D01*
X013380Y013462D01*
X013437Y013473D01*
X013485Y013505D01*
X013517Y013553D01*
X013524Y013590D01*
X013533Y013604D01*
X013552Y013700D01*
X013533Y013796D01*
X013528Y013804D01*
Y016920D01*
X013517Y016977D01*
X013485Y017025D01*
X012945Y017564D01*
X012952Y017600D01*
X012933Y017696D01*
X012878Y017778D01*
X012796Y017833D01*
X012779Y017836D01*
X012768Y017899D01*
X012824Y017936D01*
X012874Y018011D01*
X012892Y018100D01*
X012879Y018167D01*
X013064Y018353D01*
X014536D01*
X015764Y017124D01*
X015799Y017101D01*
X015840Y017093D01*
X016919D01*
X016949Y017044D01*
X016949Y017034D01*
X016930Y016941D01*
X016949Y016844D01*
X017004Y016762D01*
X017086Y016708D01*
X017152Y016695D01*
X017578Y016269D01*
Y015226D01*
X017519Y015194D01*
X017489Y015214D01*
X017400Y015232D01*
X017311Y015214D01*
X017236Y015164D01*
X017186Y015089D01*
X017168Y015000D01*
X017186Y014912D01*
X015930Y013657D01*
X014434D01*
X014393Y013649D01*
X014358Y013626D01*
X013888Y013156D01*
X012969D01*
X012969Y013156D01*
X012928Y013148D01*
X012893Y013125D01*
X012893Y013125D01*
X012722Y012953D01*
X012699Y012919D01*
X012690Y012878D01*
Y012596D01*
X012699Y012555D01*
X012722Y012520D01*
X013003Y012239D01*
X013003Y012239D01*
X013038Y012215D01*
X013079Y012207D01*
X013687D01*
X013725Y012150D01*
X013800Y012100D01*
X013889Y012082D01*
X013978Y012100D01*
X014053Y012150D01*
X014103Y012226D01*
X014121Y012314D01*
X014103Y012403D01*
X014053Y012478D01*
X013978Y012529D01*
X013889Y012546D01*
X013800Y012529D01*
X013725Y012478D01*
X013687Y012421D01*
X013123D01*
X013082Y012462D01*
X013102Y012526D01*
X013149Y012536D01*
X013224Y012586D01*
X013252Y012628D01*
X014040D01*
X014087Y012637D01*
X014127Y012663D01*
X014474Y013011D01*
X014540Y012998D01*
X014636Y013017D01*
X014718Y013072D01*
X014773Y013154D01*
X014788Y013228D01*
X016956D01*
X017889Y012295D01*
X017907Y012204D01*
X017962Y012122D01*
X018044Y012067D01*
X018140Y012048D01*
X018156Y012051D01*
X018190Y012045D01*
X018237Y012054D01*
X018277Y012080D01*
X018293Y012105D01*
X018318Y012122D01*
X018338Y012151D01*
X018362Y012155D01*
X018407Y012148D01*
X018442Y012102D01*
X018500Y012058D01*
X018568Y012030D01*
X018590Y012027D01*
Y012300D01*
X018690D01*
Y012027D01*
X018712Y012030D01*
X018780Y012058D01*
X018838Y012102D01*
X018873Y012148D01*
X018918Y012155D01*
X018942Y012151D01*
X018962Y012122D01*
X019044Y012067D01*
X019140Y012048D01*
X019236Y012067D01*
X019318Y012122D01*
X019327Y012135D01*
X019386Y012117D01*
Y011913D01*
X016901D01*
X016876Y011967D01*
X016916Y012016D01*
X016980Y012136D01*
X017020Y012266D01*
X017033Y012402D01*
X017020Y012537D01*
X016980Y012667D01*
X016916Y012787D01*
X016830Y012893D01*
X016724Y012979D01*
X016604Y013043D01*
X016474Y013083D01*
X016339Y013096D01*
X016203Y013083D01*
X016073Y013043D01*
X015953Y012979D01*
X015848Y012893D01*
X015761Y012787D01*
X015697Y012667D01*
X015658Y012537D01*
X015644Y012402D01*
X015658Y012266D01*
X015697Y012136D01*
X015761Y012016D01*
X015802Y011967D01*
X015776Y011913D01*
X011913D01*
Y013967D01*
X011972Y013998D01*
X011991Y013986D01*
X012080Y013968D01*
X012169Y013986D01*
X012244Y014036D01*
X012294Y014111D01*
X012312Y014200D01*
X012294Y014289D01*
X012244Y014364D01*
X012202Y014392D01*
Y014979D01*
X012751Y015528D01*
X012800Y015518D01*
X012889Y015536D01*
X012964Y015586D01*
X013014Y015661D01*
X013032Y015750D01*
X013014Y015839D01*
X012964Y015914D01*
X012889Y015964D01*
X012800Y015982D01*
X012711Y015964D01*
X012636Y015914D01*
X012586Y015839D01*
X012568Y015750D01*
X012578Y015701D01*
X011993Y015117D01*
X011972Y015085D01*
X011939Y015086D01*
X011913Y015095D01*
Y018795D01*
X012466D01*
X012497Y018736D01*
D02*
G37*
G36*
X019386Y018349D02*
X019327Y018332D01*
X019301Y018349D01*
X019260Y018357D01*
X018822D01*
X018784Y018414D01*
X018709Y018464D01*
X018620Y018482D01*
X018531Y018464D01*
X018456Y018414D01*
X018406Y018339D01*
X018388Y018250D01*
X018406Y018161D01*
X018456Y018086D01*
X018531Y018036D01*
X018620Y018018D01*
X018709Y018036D01*
X018784Y018086D01*
X018822Y018143D01*
X019216D01*
X019246Y018113D01*
Y014944D01*
X019232Y014930D01*
X019151Y014914D01*
X019076Y014864D01*
X019026Y014789D01*
X019021Y014764D01*
X018964Y014747D01*
X018879Y014833D01*
X018892Y014900D01*
X018874Y014989D01*
X018824Y015064D01*
X018749Y015114D01*
X018660Y015132D01*
X018571Y015114D01*
X018496Y015064D01*
X018470Y015025D01*
X018411Y015043D01*
Y017327D01*
X018403Y017368D01*
X018380Y017403D01*
X018224Y017558D01*
X018190Y017581D01*
X018149Y017590D01*
X017844D01*
X017820Y017649D01*
X017953Y017781D01*
X018020Y017768D01*
X018109Y017786D01*
X018184Y017836D01*
X018234Y017911D01*
X018252Y018000D01*
X018234Y018089D01*
X018184Y018164D01*
X018109Y018214D01*
X018020Y018232D01*
X017931Y018214D01*
X017856Y018164D01*
X017845Y018147D01*
X017785D01*
X017774Y018164D01*
X017699Y018214D01*
X017610Y018232D01*
X017521Y018214D01*
X017446Y018164D01*
X017396Y018089D01*
X017378Y018000D01*
X017391Y017933D01*
X016906Y017447D01*
X015942D01*
X014714Y018676D01*
X014679Y018699D01*
X014638Y018707D01*
X012913D01*
X012895Y018736D01*
X012928Y018795D01*
X015776D01*
X015802Y018742D01*
X015761Y018693D01*
X015697Y018573D01*
X015658Y018443D01*
X015644Y018307D01*
X015658Y018172D01*
X015697Y018041D01*
X015761Y017921D01*
X015848Y017816D01*
X015953Y017730D01*
X016073Y017666D01*
X016203Y017626D01*
X016339Y017613D01*
X016474Y017626D01*
X016604Y017666D01*
X016724Y017730D01*
X016830Y017816D01*
X016916Y017921D01*
X016980Y018041D01*
X017020Y018172D01*
X017033Y018307D01*
X017020Y018443D01*
X016980Y018573D01*
X016916Y018693D01*
X016876Y018742D01*
X016901Y018795D01*
X019386D01*
Y018349D01*
D02*
G37*
D23*
X012680Y018600D02*
X014638D01*
X014580Y018460D02*
X015840Y017200D01*
X013020Y018460D02*
X014580D01*
X018620Y018250D02*
X019260D01*
X019353Y018157D01*
Y014900D02*
Y018157D01*
X019240Y014787D02*
X019353Y014900D01*
X019240Y014700D02*
Y014787D01*
X019190Y012167D02*
X019353Y012330D01*
Y014207D01*
X018660Y014900D02*
X019353Y014207D01*
X018000Y017180D02*
X018040Y017220D01*
X018149Y017482D02*
X018304Y017327D01*
Y014316D02*
Y017327D01*
X017720Y017700D02*
X018020Y018000D01*
X017540Y017700D02*
X017720D01*
X014638Y018600D02*
X015898Y017340D01*
X014434Y013550D02*
X015975D01*
X013933Y013049D02*
X014434Y013550D01*
X012969Y013049D02*
X013933D01*
X012798Y012878D02*
X012969Y013049D01*
X012798Y012596D02*
Y012878D01*
Y012596D02*
X013079Y012314D01*
X018390Y012733D02*
Y013000D01*
Y012683D02*
Y012733D01*
X013079Y012314D02*
X013889D01*
X015898Y017340D02*
X016950D01*
X015840Y017200D02*
X017040D01*
X016950Y017340D02*
X017610Y018000D01*
X017040Y017200D02*
X017540Y017700D01*
X017500Y017250D02*
X017732Y017482D01*
X018149D01*
X018000Y014050D02*
Y017180D01*
X018940Y012600D02*
Y012720D01*
X018480Y014020D02*
Y014140D01*
X018304Y014316D02*
X018480Y014140D01*
X015975Y013550D02*
X017325Y014900D01*
X019080Y013690D02*
Y014000D01*
X018390Y013000D02*
X019080Y013690D01*
X012660Y018100D02*
X013020Y018460D01*
D24*
X017007Y013350D02*
X018190Y012167D01*
X017700Y014900D02*
Y016320D01*
X016150Y013350D02*
X017700Y014900D01*
X017182Y016838D02*
X017700Y016320D01*
X012080Y015030D02*
X012800Y015750D01*
X012080Y014200D02*
Y015030D01*
X014640Y013350D02*
X016150D01*
X014540Y013250D02*
X014640Y013350D01*
X016150D02*
X017007D01*
X017182Y016838D02*
Y016941D01*
X013060Y012750D02*
X014040D01*
X014540Y013250D01*
D25*
X013380Y013610D02*
Y016920D01*
X013300Y013690D02*
Y013700D01*
Y013690D02*
X013380Y013610D01*
X012700Y017600D02*
X013380Y016920D01*
D27*
X018890Y012733D02*
D03*
X018390D02*
D03*
X019140Y012300D02*
D03*
X018640D02*
D03*
X018140D02*
D03*
X018680Y017750D02*
D03*
X013300Y013700D02*
D03*
X015140Y018600D02*
D03*
X017182Y016941D02*
D03*
X014540Y013250D02*
D03*
X012700Y017600D02*
D03*
D28*
X018620Y018250D02*
D03*
X019240Y014700D02*
D03*
X018040Y017220D02*
D03*
X018600Y016650D02*
D03*
X018020Y018000D02*
D03*
X017610D02*
D03*
X018400Y018600D02*
D03*
X017400Y015000D02*
D03*
X012800Y015750D02*
D03*
X013889Y012314D02*
D03*
X018480Y014020D02*
D03*
X018000Y014050D02*
D03*
X019080Y014000D02*
D03*
X018660Y014900D02*
D03*
X017500Y017250D02*
D03*
X012660Y018100D02*
D03*
X012680Y018600D02*
D03*
X013060Y012750D02*
D03*
X012080Y014200D02*
D03*
D29*
X016339Y018307D02*
D03*
Y012402D02*
D03*
D30*
X015254Y016362D02*
D03*
Y015338D02*
D03*
Y015850D02*
D03*
X015766Y016362D02*
D03*
Y015850D02*
D03*
Y015338D02*
D03*
M02*
