G04 Layer_Color=65535*
%FSAX24Y24*%
%MOIN*%
G70*
G01*
G75*
%ADD26C,0.0236*%
%ADD31C,0.0039*%
%ADD32C,0.0197*%
%ADD33C,0.0118*%
%ADD34C,0.0059*%
%ADD35C,0.0098*%
%ADD36C,0.0050*%
%ADD37C,0.0079*%
G36*
X015430Y018200D02*
X015345D01*
Y018399D01*
X015344Y018399D01*
X015342Y018397D01*
X015338Y018394D01*
X015333Y018390D01*
X015326Y018386D01*
X015320Y018382D01*
X015306Y018374D01*
X015305Y018373D01*
X015302Y018372D01*
X015298Y018370D01*
X015293Y018368D01*
X015286Y018365D01*
X015278Y018362D01*
X015268Y018360D01*
X015258Y018356D01*
Y018424D01*
X015259D01*
X015260Y018425D01*
X015262Y018425D01*
X015265Y018426D01*
X015268Y018428D01*
X015272Y018429D01*
X015282Y018433D01*
X015293Y018438D01*
X015303Y018443D01*
X015314Y018449D01*
X015324Y018456D01*
X015325Y018457D01*
X015328Y018460D01*
X015332Y018464D01*
X015337Y018470D01*
X015343Y018476D01*
X015349Y018485D01*
X015355Y018494D01*
X015360Y018505D01*
X015430D01*
Y018200D01*
D02*
G37*
G36*
X015617D02*
X015528D01*
Y018284D01*
X015617D01*
Y018200D01*
D02*
G37*
G36*
X014803D02*
X014715D01*
Y018284D01*
X014803D01*
Y018200D01*
D02*
G37*
G36*
X014374Y018421D02*
X014380Y018421D01*
X014386Y018420D01*
X014393Y018419D01*
X014400Y018417D01*
X014416Y018413D01*
X014424Y018410D01*
X014433Y018406D01*
X014441Y018402D01*
X014448Y018396D01*
X014456Y018391D01*
X014462Y018384D01*
X014462Y018383D01*
X014463Y018383D01*
X014464Y018381D01*
X014466Y018379D01*
X014468Y018375D01*
X014471Y018372D01*
X014476Y018363D01*
X014480Y018352D01*
X014485Y018339D01*
X014488Y018325D01*
X014489Y018317D01*
Y018309D01*
Y018308D01*
Y018307D01*
Y018304D01*
X014488Y018301D01*
X014488Y018296D01*
X014487Y018292D01*
X014486Y018286D01*
X014485Y018280D01*
X014481Y018267D01*
X014478Y018260D01*
X014475Y018253D01*
X014471Y018246D01*
X014467Y018239D01*
X014461Y018233D01*
X014456Y018226D01*
X014455Y018226D01*
X014454Y018225D01*
X014452Y018224D01*
X014449Y018221D01*
X014446Y018219D01*
X014442Y018217D01*
X014437Y018214D01*
X014431Y018211D01*
X014426Y018207D01*
X014419Y018205D01*
X014411Y018202D01*
X014403Y018200D01*
X014394Y018198D01*
X014385Y018196D01*
X014374Y018195D01*
X014364Y018195D01*
X014359D01*
X014355Y018195D01*
X014351D01*
X014346Y018196D01*
X014340Y018197D01*
X014334Y018198D01*
X014320Y018201D01*
X014306Y018206D01*
X014292Y018213D01*
X014286Y018217D01*
X014279Y018221D01*
X014279Y018222D01*
X014278Y018223D01*
X014276Y018225D01*
X014273Y018227D01*
X014270Y018231D01*
X014267Y018235D01*
X014263Y018239D01*
X014260Y018244D01*
X014256Y018250D01*
X014253Y018256D01*
X014249Y018264D01*
X014246Y018271D01*
X014244Y018279D01*
X014242Y018288D01*
X014241Y018297D01*
X014240Y018307D01*
Y018308D01*
Y018309D01*
Y018312D01*
X014241Y018316D01*
X014241Y018320D01*
X014242Y018325D01*
X014243Y018330D01*
X014244Y018337D01*
X014248Y018349D01*
X014251Y018356D01*
X014255Y018363D01*
X014258Y018370D01*
X014263Y018377D01*
X014268Y018383D01*
X014274Y018390D01*
X014274Y018390D01*
X014275Y018391D01*
X014277Y018392D01*
X014280Y018395D01*
X014283Y018397D01*
X014287Y018400D01*
X014292Y018403D01*
X014297Y018406D01*
X014304Y018409D01*
X014310Y018411D01*
X014317Y018414D01*
X014325Y018417D01*
X014334Y018419D01*
X014343Y018421D01*
X014353Y018421D01*
X014363Y018422D01*
X014370D01*
X014374Y018421D01*
D02*
G37*
G36*
X014630Y018417D02*
X014675D01*
Y018356D01*
X014630D01*
Y018278D01*
Y018278D01*
Y018276D01*
Y018274D01*
X014630Y018271D01*
X014631Y018265D01*
X014631Y018262D01*
X014632Y018260D01*
X014632Y018259D01*
X014635Y018257D01*
X014640Y018255D01*
X014643Y018254D01*
X014646Y018254D01*
X014648D01*
X014650Y018254D01*
X014653D01*
X014657Y018255D01*
X014661Y018256D01*
X014666Y018257D01*
X014672Y018259D01*
X014678Y018201D01*
X014677D01*
X014676Y018201D01*
X014673Y018200D01*
X014667Y018199D01*
X014659Y018198D01*
X014651Y018197D01*
X014641Y018196D01*
X014631Y018195D01*
X014620Y018195D01*
X014615D01*
X014610Y018195D01*
X014603Y018196D01*
X014596Y018197D01*
X014588Y018198D01*
X014581Y018200D01*
X014574Y018202D01*
X014574Y018203D01*
X014572Y018204D01*
X014569Y018206D01*
X014566Y018209D01*
X014563Y018212D01*
X014559Y018216D01*
X014556Y018221D01*
X014553Y018226D01*
Y018227D01*
X014552Y018229D01*
X014551Y018233D01*
X014549Y018239D01*
X014548Y018247D01*
X014547Y018255D01*
X014547Y018266D01*
X014546Y018279D01*
Y018356D01*
X014515D01*
Y018417D01*
X014546D01*
Y018456D01*
X014630Y018500D01*
Y018417D01*
D02*
G37*
G36*
X015848Y018200D02*
X015764D01*
Y018399D01*
X015763Y018399D01*
X015760Y018397D01*
X015756Y018394D01*
X015751Y018390D01*
X015745Y018386D01*
X015738Y018382D01*
X015724Y018374D01*
X015723Y018373D01*
X015720Y018372D01*
X015716Y018370D01*
X015711Y018368D01*
X015704Y018365D01*
X015696Y018362D01*
X015687Y018360D01*
X015676Y018356D01*
Y018424D01*
X015677D01*
X015678Y018425D01*
X015680Y018425D01*
X015683Y018426D01*
X015687Y018428D01*
X015691Y018429D01*
X015700Y018433D01*
X015711Y018438D01*
X015722Y018443D01*
X015732Y018449D01*
X015742Y018456D01*
X015743Y018457D01*
X015746Y018460D01*
X015750Y018464D01*
X015755Y018470D01*
X015761Y018476D01*
X015767Y018485D01*
X015773Y018494D01*
X015779Y018505D01*
X015848D01*
Y018200D01*
D02*
G37*
G36*
X016656Y013313D02*
X016785Y013443D01*
Y013147D01*
X016656Y013277D01*
Y013152D01*
X016636D01*
Y013448D01*
X016656D01*
Y013313D01*
D02*
G37*
G36*
X016714Y013823D02*
Y013948D01*
X016734D01*
Y013652D01*
X016714D01*
Y013787D01*
X016585Y013657D01*
Y013953D01*
X016714Y013823D01*
D02*
G37*
G36*
X014197Y018200D02*
X014121D01*
Y018428D01*
X014063Y018200D01*
X013994D01*
X013936Y018428D01*
Y018200D01*
X013860D01*
Y018500D01*
X013982D01*
X014028Y018317D01*
X014075Y018500D01*
X014197D01*
Y018200D01*
D02*
G37*
G36*
X015132D02*
X015059D01*
X014969Y018417D01*
X015055D01*
X015097Y018279D01*
X015141Y018417D01*
X015225D01*
X015132Y018200D01*
D02*
G37*
%LPC*%
G36*
X014365Y018365D02*
X014362D01*
X014359Y018364D01*
X014355Y018363D01*
X014350Y018361D01*
X014345Y018358D01*
X014340Y018355D01*
X014335Y018350D01*
X014335Y018350D01*
X014333Y018348D01*
X014332Y018345D01*
X014329Y018340D01*
X014327Y018334D01*
X014325Y018327D01*
X014324Y018318D01*
X014324Y018308D01*
Y018307D01*
Y018307D01*
Y018303D01*
X014324Y018298D01*
X014325Y018292D01*
X014327Y018284D01*
X014328Y018277D01*
X014331Y018270D01*
X014335Y018265D01*
X014336Y018264D01*
X014338Y018262D01*
X014340Y018260D01*
X014343Y018258D01*
X014347Y018255D01*
X014352Y018253D01*
X014358Y018251D01*
X014365Y018251D01*
X014367D01*
X014371Y018251D01*
X014375Y018252D01*
X014380Y018254D01*
X014385Y018256D01*
X014389Y018259D01*
X014394Y018264D01*
X014395Y018265D01*
X014396Y018267D01*
X014397Y018270D01*
X014400Y018275D01*
X014402Y018281D01*
X014404Y018289D01*
X014405Y018298D01*
X014405Y018308D01*
Y018309D01*
Y018309D01*
Y018313D01*
X014405Y018318D01*
X014404Y018324D01*
X014403Y018331D01*
X014400Y018338D01*
X014397Y018345D01*
X014393Y018350D01*
X014393Y018351D01*
X014391Y018353D01*
X014389Y018355D01*
X014385Y018358D01*
X014381Y018360D01*
X014377Y018362D01*
X014371Y018364D01*
X014365Y018365D01*
D02*
G37*
%LPD*%
D26*
X019107Y014768D02*
G03*
X019107Y014768I-000118J000000D01*
G01*
D31*
X015499Y012857D02*
G03*
X014903Y012862I-000303J-000648D01*
G01*
X014900Y013000D02*
X015500D01*
X015200Y012840D02*
Y012920D01*
Y013000D02*
Y013060D01*
X014880Y013810D02*
Y013910D01*
X014820Y013860D02*
X014940D01*
X016503Y013623D02*
X016793D01*
X016512Y013977D02*
X016803D01*
X016577Y013477D02*
X016867D01*
X016567Y013123D02*
X016858D01*
X013865Y013280D02*
X014135D01*
X013865Y013815D02*
X014130D01*
X017301Y017041D02*
Y018262D01*
X018483Y017041D02*
Y018262D01*
X017301Y017041D02*
X018483D01*
X017301Y018262D02*
X018483D01*
X017329Y015110D02*
X019294D01*
X017329Y013890D02*
X019294D01*
Y015110D01*
X017329Y013890D02*
Y015110D01*
D32*
X016610Y014650D02*
G03*
X016610Y014650I-000100J000000D01*
G01*
D33*
X013113Y013618D02*
G03*
X013110Y013618I-000003J000038D01*
G01*
X017267Y016901D02*
G03*
X017267Y016901I-000059J000000D01*
G01*
D34*
X013007Y013384D02*
G03*
X013007Y013197I000000J-000093D01*
G01*
X013705Y017088D02*
X014295D01*
X013705Y018112D02*
X014295D01*
X014710Y016850D02*
X016310D01*
Y014850D02*
Y014950D01*
X014710Y014850D02*
X016310D01*
X014710D02*
Y014950D01*
X016310Y016750D02*
Y016850D01*
X014710Y016750D02*
Y016850D01*
X013007Y013093D02*
Y013197D01*
Y013383D02*
Y013483D01*
X011885Y013093D02*
X013007D01*
X011885D02*
Y013483D01*
X013007D01*
D35*
X019383Y015348D02*
G03*
X019383Y015348I-000049J000000D01*
G01*
D36*
X018853Y016437D02*
Y016654D01*
X019177Y016437D02*
Y016654D01*
X015883Y013408D02*
X015883Y013319D01*
X015782Y013408D02*
X016001D01*
X015782Y013487D02*
X016001D01*
X015883Y013575D02*
X015883Y013487D01*
X013642Y012753D02*
X013731Y012753D01*
X013642Y012652D02*
Y012871D01*
X013563Y012652D02*
Y012871D01*
X013475Y012753D02*
X013563Y012753D01*
X014457Y012531D02*
X014457Y012442D01*
X014339D02*
X014558D01*
X014339Y012363D02*
X014558D01*
X014457D02*
X014457Y012275D01*
X015137Y017631D02*
X015137Y017542D01*
X015019D02*
X015238D01*
X015019Y017463D02*
X015238D01*
X015137D02*
X015137Y017375D01*
X016569Y017397D02*
X016658Y017397D01*
Y017279D02*
Y017498D01*
X016737Y017279D02*
Y017498D01*
Y017397D02*
X016825Y017397D01*
X017329Y012547D02*
X017418Y012547D01*
Y012429D02*
Y012648D01*
X017497Y012429D02*
Y012648D01*
Y012547D02*
X017585Y012547D01*
X017329Y012097D02*
X017418Y012097D01*
Y011979D02*
Y012198D01*
X017497Y011979D02*
Y012198D01*
Y012097D02*
X017585Y012097D01*
X015372Y014243D02*
X015588D01*
X015372Y014567D02*
X015588D01*
X013492Y011993D02*
X013708D01*
X013492Y012317D02*
X013708D01*
X013232Y018443D02*
X013448D01*
X013232Y018767D02*
X013448D01*
X012272Y012307D02*
X012488D01*
X012272Y011983D02*
X012488D01*
X016412Y014557D02*
X016628D01*
X016412Y014233D02*
X016628D01*
D37*
X013105Y014743D02*
Y015057D01*
X013775Y014743D02*
Y015057D01*
M02*
