G04 Layer_Physical_Order=2*
G04 Layer_Color=32768*
%FSAX24Y24*%
%MOIN*%
G70*
G01*
G75*
%ADD44C,0.0197*%
%ADD45C,0.0433*%
%ADD46C,0.0866*%
%ADD47C,0.0551*%
%ADD48C,0.0472*%
%ADD49C,0.0906*%
D44*
X011811Y011811D02*
Y021654D01*
X029724D01*
Y011811D02*
Y021654D01*
X011811Y011811D02*
X029724D01*
X011811D02*
Y021654D01*
X029724D01*
Y011811D02*
Y021654D01*
X011811Y011811D02*
X029724D01*
D45*
X022020Y018600D02*
D03*
Y017600D02*
D03*
X022453Y018350D02*
D03*
Y017850D02*
D03*
X025600Y013460D02*
D03*
X020580Y017070D02*
D03*
X019220Y018810D02*
D03*
X017360Y017620D02*
D03*
X017370Y017170D02*
D03*
X015870Y019900D02*
D03*
X020060Y020340D02*
D03*
X021040Y016060D02*
D03*
X020330Y016660D02*
D03*
X019040Y016630D02*
D03*
X019450D02*
D03*
X016830Y018550D02*
D03*
X018760Y018780D02*
D03*
X022620Y016740D02*
D03*
X022630Y017155D02*
D03*
X015210Y019870D02*
D03*
X015190Y019050D02*
D03*
X027790Y019980D02*
D03*
X012590Y020790D02*
D03*
X026390Y020810D02*
D03*
X026890Y020800D02*
D03*
X019530D02*
D03*
X012100Y020550D02*
D03*
X020030Y020790D02*
D03*
X013297Y018663D02*
D03*
X012550Y018690D02*
D03*
X028870Y013580D02*
D03*
X028880Y014090D02*
D03*
X025520Y016340D02*
D03*
X028370Y017330D02*
D03*
X027650Y015880D02*
D03*
X027020Y016630D02*
D03*
X028370Y016940D02*
D03*
X025420Y017670D02*
D03*
X025410Y017260D02*
D03*
X025040Y016310D02*
D03*
X025130Y016980D02*
D03*
X018040Y020610D02*
D03*
X018600Y020550D02*
D03*
X016100Y020530D02*
D03*
X015480Y020510D02*
D03*
X020580Y017863D02*
D03*
Y017467D02*
D03*
Y018260D02*
D03*
D46*
X020910Y013430D02*
D03*
D47*
X028540Y012110D02*
D03*
X014090Y020560D02*
D03*
X021530D02*
D03*
X028390Y020550D02*
D03*
D48*
X016710Y012980D02*
D03*
X013090Y020599D02*
D03*
X020520D02*
D03*
X027390Y020589D02*
D03*
X028540Y013130D02*
D03*
X016720Y014680D02*
D03*
D49*
X012402Y019685D02*
D03*
X029134D02*
D03*
M02*
