G04 Layer_Color=8388736*
%FSAX24Y24*%
%MOIN*%
G70*
G01*
G75*
%ADD43C,0.0630*%
%ADD59R,0.0789X0.0552*%
%ADD60R,0.0434X0.0316*%
%ADD61R,0.0316X0.0434*%
%ADD62O,0.0297X0.0730*%
%ADD63O,0.0730X0.0297*%
%ADD64R,0.0828X0.0671*%
%ADD65R,0.0218X0.0592*%
%ADD66O,0.0198X0.0789*%
%ADD67O,0.0789X0.0198*%
%ADD68R,0.0867X0.0434*%
%ADD69R,0.0434X0.0867*%
%ADD70R,0.0512X0.0197*%
G04:AMPARAMS|DCode=71|XSize=51.2mil|YSize=19.7mil|CornerRadius=7.5mil|HoleSize=0mil|Usage=FLASHONLY|Rotation=180.000|XOffset=0mil|YOffset=0mil|HoleType=Round|Shape=RoundedRectangle|*
%AMROUNDEDRECTD71*
21,1,0.0512,0.0047,0,0,180.0*
21,1,0.0362,0.0197,0,0,180.0*
1,1,0.0150,-0.0181,0.0024*
1,1,0.0150,0.0181,0.0024*
1,1,0.0150,0.0181,-0.0024*
1,1,0.0150,-0.0181,-0.0024*
%
%ADD71ROUNDEDRECTD71*%
G04:AMPARAMS|DCode=72|XSize=9.8mil|YSize=94.5mil|CornerRadius=1.5mil|HoleSize=0mil|Usage=FLASHONLY|Rotation=0.000|XOffset=0mil|YOffset=0mil|HoleType=Round|Shape=RoundedRectangle|*
%AMROUNDEDRECTD72*
21,1,0.0098,0.0915,0,0,0.0*
21,1,0.0069,0.0945,0,0,0.0*
1,1,0.0030,0.0034,-0.0458*
1,1,0.0030,-0.0034,-0.0458*
1,1,0.0030,-0.0034,0.0458*
1,1,0.0030,0.0034,0.0458*
%
%ADD72ROUNDEDRECTD72*%
G04:AMPARAMS|DCode=73|XSize=27.6mil|YSize=13.8mil|CornerRadius=4.4mil|HoleSize=0mil|Usage=FLASHONLY|Rotation=0.000|XOffset=0mil|YOffset=0mil|HoleType=Round|Shape=RoundedRectangle|*
%AMROUNDEDRECTD73*
21,1,0.0276,0.0049,0,0,0.0*
21,1,0.0187,0.0138,0,0,0.0*
1,1,0.0089,0.0093,-0.0025*
1,1,0.0089,-0.0093,-0.0025*
1,1,0.0089,-0.0093,0.0025*
1,1,0.0089,0.0093,0.0025*
%
%ADD73ROUNDEDRECTD73*%
%ADD74R,0.0671X0.0552*%
%ADD75R,0.0395X0.2442*%
%ADD76O,0.0356X0.1064*%
%ADD77R,0.0513X0.0631*%
%ADD78R,0.0513X0.0592*%
%ADD79R,0.0552X0.0789*%
%ADD80R,0.0474X0.0316*%
%ADD81R,0.0631X0.0513*%
%ADD82C,0.0434*%
%ADD83C,0.1580*%
D43*
X012402Y019685D02*
D03*
X029134D02*
D03*
D59*
X024577Y021182D02*
D03*
X023003D02*
D03*
Y020238D02*
D03*
X024577D02*
D03*
D60*
X022210Y020465D02*
D03*
Y021055D02*
D03*
X025450Y020993D02*
D03*
Y020403D02*
D03*
X017300Y019865D02*
D03*
Y019275D02*
D03*
X021870Y019045D02*
D03*
Y019635D02*
D03*
X013960Y019355D02*
D03*
Y019945D02*
D03*
X013460Y019365D02*
D03*
Y019955D02*
D03*
X016920Y016605D02*
D03*
Y017195D02*
D03*
X016910Y018275D02*
D03*
Y017685D02*
D03*
X017733Y012750D02*
D03*
Y013341D02*
D03*
X017203D02*
D03*
Y012750D02*
D03*
X019230Y014185D02*
D03*
Y014775D02*
D03*
X029030Y014835D02*
D03*
Y015425D02*
D03*
X023630Y017435D02*
D03*
Y016845D02*
D03*
X025580Y014825D02*
D03*
Y014235D02*
D03*
X025050D02*
D03*
Y014825D02*
D03*
X028390Y015415D02*
D03*
Y014825D02*
D03*
X024430Y012885D02*
D03*
Y013475D02*
D03*
X023510Y018885D02*
D03*
Y019475D02*
D03*
D61*
X018995Y021328D02*
D03*
X018405D02*
D03*
X017176D02*
D03*
X017767D02*
D03*
X016539D02*
D03*
X015948D02*
D03*
X014720D02*
D03*
X015311D02*
D03*
X018405Y020718D02*
D03*
X018995D02*
D03*
X017767D02*
D03*
X017176D02*
D03*
X015948D02*
D03*
X016539D02*
D03*
X015311D02*
D03*
X014720D02*
D03*
X018645Y020060D02*
D03*
X018055D02*
D03*
X016865Y016070D02*
D03*
X017455D02*
D03*
X022425Y019570D02*
D03*
X023015D02*
D03*
X022425Y019090D02*
D03*
X023015D02*
D03*
X019715Y020070D02*
D03*
X019125D02*
D03*
X013771Y018760D02*
D03*
X013180D02*
D03*
X012135D02*
D03*
X012725D02*
D03*
X016968Y012190D02*
D03*
X017558D02*
D03*
X017619Y015310D02*
D03*
X018210D02*
D03*
X018735Y015300D02*
D03*
X019325D02*
D03*
X029145Y018660D02*
D03*
X028555D02*
D03*
X022605Y015770D02*
D03*
X022015D02*
D03*
X027225Y014230D02*
D03*
X027815D02*
D03*
X028205Y019380D02*
D03*
X027615D02*
D03*
X025335Y019600D02*
D03*
X025925D02*
D03*
X023295Y015770D02*
D03*
X023885D02*
D03*
X023025Y017860D02*
D03*
X023615D02*
D03*
Y018340D02*
D03*
X023025D02*
D03*
X024545Y019420D02*
D03*
X023955D02*
D03*
D62*
X020652Y019364D02*
D03*
X020337D02*
D03*
X020022D02*
D03*
X019707D02*
D03*
X019393D02*
D03*
X019078D02*
D03*
X018763Y019364D02*
D03*
X018448Y019364D02*
D03*
Y016076D02*
D03*
X018763Y016076D02*
D03*
X019078Y016076D02*
D03*
X019393D02*
D03*
X019707D02*
D03*
X020022D02*
D03*
X020337D02*
D03*
X020652D02*
D03*
D63*
X017906Y018822D02*
D03*
Y018507D02*
D03*
Y018192D02*
D03*
Y017877D02*
D03*
Y017563D02*
D03*
Y017248D02*
D03*
X017906Y016933D02*
D03*
X017906Y016618D02*
D03*
X021194D02*
D03*
X021194Y016933D02*
D03*
X021194Y017248D02*
D03*
Y017563D02*
D03*
Y017877D02*
D03*
Y018192D02*
D03*
Y018507D02*
D03*
Y018822D02*
D03*
D64*
X025224Y012595D02*
D03*
X027830D02*
D03*
D65*
X026012Y013670D02*
D03*
X026268D02*
D03*
X026524D02*
D03*
X026780D02*
D03*
X027036D02*
D03*
D66*
X024941Y015690D02*
D03*
X025138D02*
D03*
X025335D02*
D03*
X025532D02*
D03*
X025729D02*
D03*
X026319D02*
D03*
X026516D02*
D03*
X026713D02*
D03*
X026910D02*
D03*
X027107D02*
D03*
Y018879D02*
D03*
X026910D02*
D03*
X026713D02*
D03*
X026516D02*
D03*
X026319D02*
D03*
X026123D02*
D03*
X025926D02*
D03*
X025729D02*
D03*
X025532D02*
D03*
X025335D02*
D03*
X025138D02*
D03*
X024941D02*
D03*
X026123Y015690D02*
D03*
X025926D02*
D03*
D67*
X027619Y016202D02*
D03*
Y016399D02*
D03*
Y016596D02*
D03*
Y016792D02*
D03*
Y016989D02*
D03*
Y017186D02*
D03*
Y017383D02*
D03*
Y017580D02*
D03*
Y017777D02*
D03*
Y017973D02*
D03*
Y018170D02*
D03*
Y018367D02*
D03*
X024430D02*
D03*
Y018170D02*
D03*
Y017973D02*
D03*
Y017777D02*
D03*
Y017580D02*
D03*
Y017383D02*
D03*
Y017186D02*
D03*
Y016989D02*
D03*
Y016792D02*
D03*
Y016596D02*
D03*
Y016399D02*
D03*
Y016202D02*
D03*
D68*
X029230Y014090D02*
D03*
Y013590D02*
D03*
Y012090D02*
D03*
Y012590D02*
D03*
Y013090D02*
D03*
D69*
X026390Y021140D02*
D03*
X026890D02*
D03*
X028390D02*
D03*
X027890D02*
D03*
X027390D02*
D03*
X019530Y021150D02*
D03*
X020030D02*
D03*
X021530D02*
D03*
X021030D02*
D03*
X020530D02*
D03*
X012090D02*
D03*
X012590D02*
D03*
X014090D02*
D03*
X013590D02*
D03*
X013090D02*
D03*
D70*
X014617Y019224D02*
D03*
Y019480D02*
D03*
Y019736D02*
D03*
Y019992D02*
D03*
X016420D02*
D03*
Y019736D02*
D03*
Y019480D02*
D03*
D71*
Y019224D02*
D03*
D72*
X019000Y013140D02*
D03*
X018803D02*
D03*
X018606D02*
D03*
D73*
X019354Y013435D02*
D03*
Y013238D02*
D03*
Y013042D02*
D03*
Y012845D02*
D03*
X018252D02*
D03*
Y013042D02*
D03*
Y013238D02*
D03*
Y013435D02*
D03*
D74*
X018315Y014420D02*
D03*
X017252D02*
D03*
D75*
X015990Y013100D02*
D03*
X015490Y013657D02*
D03*
X013990Y013100D02*
D03*
X012990D02*
D03*
X014490Y013657D02*
D03*
X013490D02*
D03*
X012490D02*
D03*
X014990Y013100D02*
D03*
D76*
X013690Y017835D02*
D03*
X013190D02*
D03*
X012690D02*
D03*
X012190D02*
D03*
X013690Y015905D02*
D03*
X013190D02*
D03*
X012690D02*
D03*
X012190D02*
D03*
X014660Y016325D02*
D03*
X015160D02*
D03*
X015660D02*
D03*
X016160D02*
D03*
X014660Y018255D02*
D03*
X015160D02*
D03*
X015660D02*
D03*
X016160D02*
D03*
D77*
X014217Y015330D02*
D03*
X015043D02*
D03*
X016443D02*
D03*
X015617D02*
D03*
X027703Y014850D02*
D03*
X026877D02*
D03*
D78*
X018460Y012190D02*
D03*
X019287D02*
D03*
D79*
X028378Y017927D02*
D03*
Y016353D02*
D03*
X029322D02*
D03*
Y017927D02*
D03*
D80*
X022070Y017084D02*
D03*
Y016710D02*
D03*
Y016336D02*
D03*
X023054Y017084D02*
D03*
Y016710D02*
D03*
Y016336D02*
D03*
D81*
X024340Y014337D02*
D03*
Y015163D02*
D03*
D82*
X022020Y018600D02*
D03*
Y018100D02*
D03*
Y017600D02*
D03*
X022453Y018350D02*
D03*
Y017850D02*
D03*
D83*
X022878Y013430D02*
D03*
X020910D02*
D03*
M02*
