M48
;Layer_Color=9474304
;FILE_FORMAT=2:4
INCH
;TYPE=PLATED
T1F00S00C0.0157
T2F00S00C0.0197
T3F00S00C0.0630
%
T01
X013060Y012750
X013889Y012314
X012080Y014200
X015254Y015338
X015766
X017400Y015000
X018660Y014900
X019240Y014700
X019080Y014000
X018480Y014020
X018000Y014050
X018390Y012733
X018890
X019140Y012300
X018640
X018140
X018600Y016650
X018040Y017220
X017500Y017250
X017610Y018000
X018020
X018620Y018250
X018400Y018600
X015766Y016362
Y015850
X015254
Y016362
X012800Y015750
X012660Y018100
X012680Y018600
T02
X013300Y013700
X014540Y013250
X017182Y016941
X018680Y017750
X015140Y018600
X012700Y017600
T03
X016339Y012402
Y018307
M30
