M48
;Layer_Color=9474304
;FILE_FORMAT=2:4
INCH
;TYPE=PLATED
T1F00S00C0.0157
T2F00S00C0.0197
T3F00S00C0.0276
T4F00S00C0.0591
T5F00S00C0.0630
%
T01
X017983Y012220
X018026Y013800
X018443
X017610
X017193
X019723Y013340
X019670Y014850
X025550Y013900
X025600Y013460
X028870Y013580
X028880Y014090
X028300Y014380
X027650Y015880
X027020Y016630
X026516Y016286
X025520Y016340
X025040Y016310
X025130Y016980
X025410Y017260
X025420Y017670
X025030Y017510
X025090Y018290
X025130Y020140
X026390Y020810
X026890Y020800
X027790Y019980
X028300Y019030
X028370Y017330
Y016940
X027030Y018050
X023010Y018720
X022453Y018350
Y017850
X022020Y018100
Y018600
Y017600
X022630Y017155
X022620Y016740
X022950Y015770
X023860Y016210
X021040Y016060
X020330Y016660
X020580Y017070
Y017467
Y017863
Y018260
X020640Y018650
X019220Y018810
X018760Y018780
X017920Y019660
X018040Y020610
X018600Y020550
X019530Y020800
X020030Y020790
X020060Y020340
X021370Y019570
X023530Y020710
X018090Y021360
X016100Y020530
X015870Y019900
X016940Y019300
X016830Y018550
X017360Y017620
X017370Y017170
X017340Y016560
X019040Y016630
X019450
X016150Y017570
X015160Y017480
X015190Y019050
X015210Y019870
X015480Y020510
X015620Y021370
X012590Y020790
X012100Y020550
X012550Y018690
X013297Y018663
X012950Y017110
T02
X016710Y012980
X016720Y014680
X028540Y013130
X027390Y020589
X020520Y020599
X013090
T03
X028540Y012110
Y012610
X028390Y020550
X027900
X021530Y020560
X021030
X014090
X013590
T04
X020910Y013430
X022878
T05
X029134Y019685
X012402
M30
