G04 Layer_Physical_Order=1*
G04 Layer_Color=255*
%FSAX24Y24*%
%MOIN*%
G70*
G01*
G75*
%ADD10R,0.0709X0.0472*%
%ADD11R,0.0354X0.0236*%
%ADD12R,0.0236X0.0354*%
%ADD13O,0.0217X0.0650*%
%ADD14O,0.0650X0.0217*%
%ADD15R,0.0748X0.0591*%
%ADD16R,0.0138X0.0512*%
%ADD17O,0.0118X0.0709*%
%ADD18O,0.0709X0.0118*%
%ADD19R,0.0787X0.0354*%
%ADD20R,0.0354X0.0787*%
%ADD21R,0.0472X0.0157*%
G04:AMPARAMS|DCode=22|XSize=47.2mil|YSize=15.7mil|CornerRadius=5.5mil|HoleSize=0mil|Usage=FLASHONLY|Rotation=180.000|XOffset=0mil|YOffset=0mil|HoleType=Round|Shape=RoundedRectangle|*
%AMROUNDEDRECTD22*
21,1,0.0472,0.0047,0,0,180.0*
21,1,0.0362,0.0157,0,0,180.0*
1,1,0.0110,-0.0181,0.0024*
1,1,0.0110,0.0181,0.0024*
1,1,0.0110,0.0181,-0.0024*
1,1,0.0110,-0.0181,-0.0024*
%
%ADD22ROUNDEDRECTD22*%
G04:AMPARAMS|DCode=23|XSize=13.8mil|YSize=98.4mil|CornerRadius=3.4mil|HoleSize=0mil|Usage=FLASHONLY|Rotation=0.000|XOffset=0mil|YOffset=0mil|HoleType=Round|Shape=RoundedRectangle|*
%AMROUNDEDRECTD23*
21,1,0.0138,0.0915,0,0,0.0*
21,1,0.0069,0.0984,0,0,0.0*
1,1,0.0069,0.0034,-0.0458*
1,1,0.0069,-0.0034,-0.0458*
1,1,0.0069,-0.0034,0.0458*
1,1,0.0069,0.0034,0.0458*
%
%ADD23ROUNDEDRECTD23*%
G04:AMPARAMS|DCode=24|XSize=23.6mil|YSize=9.8mil|CornerRadius=2.5mil|HoleSize=0mil|Usage=FLASHONLY|Rotation=0.000|XOffset=0mil|YOffset=0mil|HoleType=Round|Shape=RoundedRectangle|*
%AMROUNDEDRECTD24*
21,1,0.0236,0.0049,0,0,0.0*
21,1,0.0187,0.0098,0,0,0.0*
1,1,0.0049,0.0093,-0.0025*
1,1,0.0049,-0.0093,-0.0025*
1,1,0.0049,-0.0093,0.0025*
1,1,0.0049,0.0093,0.0025*
%
%ADD24ROUNDEDRECTD24*%
%ADD25R,0.0591X0.0472*%
%ADD26R,0.0315X0.2362*%
%ADD27O,0.0276X0.0984*%
%ADD28R,0.0433X0.0551*%
%ADD29R,0.0433X0.0512*%
%ADD30R,0.0472X0.0709*%
%ADD31R,0.0394X0.0236*%
%ADD32R,0.0551X0.0433*%
%ADD33C,0.0070*%
%ADD34C,0.0250*%
%ADD35C,0.0100*%
%ADD36C,0.0354*%
%ADD37C,0.0150*%
%ADD38C,0.0500*%
%ADD39C,0.0354*%
%ADD40C,0.1500*%
%ADD41C,0.0315*%
%ADD42C,0.0394*%
%ADD43C,0.0630*%
G36*
X018903Y013682D02*
X018890Y013673D01*
X018867Y013638D01*
X018859Y013598D01*
Y012682D01*
X018833Y012650D01*
X018788D01*
X018747Y012682D01*
Y013598D01*
X018739Y013638D01*
X018716Y013673D01*
X018683Y013695D01*
Y014030D01*
X018453Y014030D01*
X018443Y014032D01*
X018433Y014030D01*
X018036D01*
X018026Y014032D01*
X018017Y014030D01*
X017803D01*
X017803Y015010D01*
X018903D01*
X018903Y013682D01*
D02*
G37*
G36*
X017430Y015440D02*
Y015360D01*
X017619D01*
Y015310D01*
X017669D01*
Y015061D01*
X017695D01*
X017700Y015059D01*
X017732Y015011D01*
X017732Y015010D01*
X017732Y014051D01*
X017029D01*
X017029Y014051D01*
X017029Y014051D01*
X017015Y014049D01*
X017001Y014046D01*
X017001Y014046D01*
X017001Y014046D01*
X016990Y014038D01*
X016978Y014030D01*
X016978Y014030D01*
X016978Y014030D01*
X016943Y013995D01*
X016943Y013995D01*
X016943Y013995D01*
X016935Y013983D01*
X016928Y013972D01*
X016927Y013972D01*
X016927Y013972D01*
X016925Y013959D01*
X016913D01*
Y013150D01*
X017968D01*
X017984Y013140D01*
X018025Y013131D01*
X018025Y013131D01*
X018090D01*
Y012940D01*
X016913Y012940D01*
X016913Y012439D01*
X016850D01*
X016822Y012433D01*
X016799Y012418D01*
X016784Y012394D01*
X016778Y012367D01*
Y012240D01*
X016968D01*
Y012140D01*
X016778D01*
Y012020D01*
X016774Y012009D01*
X016739Y011970D01*
X016380Y011970D01*
X016380Y014983D01*
X016660D01*
X016687Y014988D01*
X016710Y015004D01*
X016726Y015027D01*
X016731Y015054D01*
Y015490D01*
X017381Y015490D01*
X017430Y015440D01*
D02*
G37*
G36*
X019692Y013980D02*
X019879Y013793D01*
Y013600D01*
X019223Y013600D01*
X019163Y013540D01*
X019163Y012800D01*
X019233Y012730D01*
X020340Y012730D01*
Y011913D01*
X019591D01*
X019574Y011934D01*
Y012140D01*
X018999D01*
Y011934D01*
X018982Y011913D01*
X018913D01*
Y012607D01*
X018936Y012642D01*
X018944Y012682D01*
Y013598D01*
X018940Y013619D01*
X018942Y013622D01*
X018943Y013622D01*
X018948Y013627D01*
X018954Y013631D01*
X018958Y013637D01*
X018962Y013642D01*
X018965Y013648D01*
X018969Y013654D01*
X018970Y013661D01*
X018973Y013668D01*
Y013675D01*
X018975Y013682D01*
Y013980D01*
X019692Y013980D01*
D02*
G37*
G36*
X017753Y013980D02*
X017776Y013964D01*
X017803Y013959D01*
X018017D01*
X018024Y013960D01*
X018029D01*
X018036Y013959D01*
X018433D01*
X018440Y013960D01*
X018446D01*
X018453Y013959D01*
X018612Y013959D01*
Y013695D01*
X018613Y013688D01*
Y013681D01*
X018616Y013675D01*
X018617Y013668D01*
X018621Y013662D01*
X018624Y013655D01*
X018629Y013650D01*
X018633Y013644D01*
X018639Y013641D01*
X018643Y013636D01*
X018665Y013622D01*
X018666Y013619D01*
X018662Y013598D01*
Y012682D01*
X018670Y012642D01*
X018683Y012622D01*
Y012617D01*
X018823Y012477D01*
Y011913D01*
X018765D01*
X018748Y011934D01*
Y012140D01*
X018172D01*
Y011934D01*
X018155Y011913D01*
X017744D01*
X017729Y011957D01*
X017728Y011963D01*
X017742Y011986D01*
X017748Y012013D01*
Y012140D01*
X017369D01*
Y012013D01*
X017374Y011986D01*
X017389Y011963D01*
X017388Y011957D01*
X017373Y011913D01*
X017318D01*
X017282Y011949D01*
X017283Y012440D01*
X017025D01*
X017024Y012511D01*
X017074Y012561D01*
X017153D01*
Y012750D01*
X017253D01*
Y012561D01*
X017380D01*
X017403Y012565D01*
X017409Y012564D01*
X017453Y012550D01*
Y012550D01*
X018173Y012550D01*
X018347Y012724D01*
X018382Y012731D01*
X018414Y012752D01*
X018435Y012783D01*
X018442Y012818D01*
X018453Y012830D01*
Y013638D01*
X016995D01*
X016993Y013945D01*
X017029Y013980D01*
X017752D01*
X017753Y013980D01*
D02*
G37*
%LPC*%
G36*
X018265Y014370D02*
X017948D01*
Y014184D01*
X017953Y014156D01*
X017969Y014133D01*
X017992Y014118D01*
X018019Y014112D01*
X018265D01*
Y014370D01*
D02*
G37*
G36*
X018681D02*
X018365D01*
Y014112D01*
X018610D01*
X018637Y014118D01*
X018660Y014133D01*
X018676Y014156D01*
X018681Y014184D01*
Y014370D01*
D02*
G37*
G36*
X018265Y014728D02*
X018019D01*
X017992Y014722D01*
X017969Y014707D01*
X017953Y014684D01*
X017948Y014656D01*
Y014470D01*
X018265D01*
Y014728D01*
D02*
G37*
G36*
X018610D02*
X018365D01*
Y014470D01*
X018681D01*
Y014656D01*
X018676Y014684D01*
X018660Y014707D01*
X018637Y014722D01*
X018610Y014728D01*
D02*
G37*
G36*
X017569Y015260D02*
X017430D01*
Y015133D01*
X017435Y015106D01*
X017451Y015082D01*
X017474Y015067D01*
X017501Y015061D01*
X017569D01*
Y015260D01*
D02*
G37*
G36*
X017547Y014728D02*
X017302D01*
Y014470D01*
X017618D01*
Y014656D01*
X017613Y014684D01*
X017597Y014707D01*
X017574Y014722D01*
X017547Y014728D01*
D02*
G37*
G36*
X017618Y014370D02*
X017302D01*
Y014112D01*
X017547D01*
X017574Y014118D01*
X017597Y014133D01*
X017613Y014156D01*
X017618Y014184D01*
Y014370D01*
D02*
G37*
G36*
X017202Y014728D02*
X016956D01*
X016929Y014722D01*
X016906Y014707D01*
X016890Y014684D01*
X016885Y014656D01*
Y014470D01*
X017202D01*
Y014728D01*
D02*
G37*
G36*
Y014370D02*
X016885D01*
Y014184D01*
X016890Y014156D01*
X016906Y014133D01*
X016929Y014118D01*
X016956Y014112D01*
X017202D01*
Y014370D01*
D02*
G37*
G36*
X019237Y012517D02*
X019070D01*
X019043Y012512D01*
X019020Y012496D01*
X019004Y012473D01*
X018999Y012446D01*
Y012240D01*
X019237D01*
Y012517D01*
D02*
G37*
G36*
X019503D02*
X019337D01*
Y012240D01*
X019574D01*
Y012446D01*
X019569Y012473D01*
X019554Y012496D01*
X019530Y012512D01*
X019503Y012517D01*
D02*
G37*
G36*
X018676D02*
X018510D01*
Y012240D01*
X018748D01*
Y012446D01*
X018742Y012473D01*
X018727Y012496D01*
X018704Y012512D01*
X018676Y012517D01*
D02*
G37*
G36*
X018410D02*
X018243D01*
X018216Y012512D01*
X018193Y012496D01*
X018177Y012473D01*
X018172Y012446D01*
Y012240D01*
X018410D01*
Y012517D01*
D02*
G37*
G36*
X017508Y012439D02*
X017440D01*
X017413Y012433D01*
X017390Y012418D01*
X017374Y012394D01*
X017369Y012367D01*
Y012240D01*
X017508D01*
Y012439D01*
D02*
G37*
G36*
X017677D02*
X017608D01*
Y012240D01*
X017748D01*
Y012367D01*
X017742Y012394D01*
X017727Y012418D01*
X017704Y012433D01*
X017677Y012439D01*
D02*
G37*
%LPD*%
D10*
X024577Y021182D02*
D03*
X023003D02*
D03*
Y020238D02*
D03*
X024577D02*
D03*
D11*
X022210Y020465D02*
D03*
Y021055D02*
D03*
X025450Y020993D02*
D03*
Y020403D02*
D03*
X017300Y019865D02*
D03*
Y019275D02*
D03*
X021870Y019045D02*
D03*
Y019635D02*
D03*
X013960Y019355D02*
D03*
Y019945D02*
D03*
X013460Y019365D02*
D03*
Y019955D02*
D03*
X016920Y016605D02*
D03*
Y017195D02*
D03*
X016910Y018275D02*
D03*
Y017685D02*
D03*
X017733Y012750D02*
D03*
Y013341D02*
D03*
X017203D02*
D03*
Y012750D02*
D03*
X019230Y014185D02*
D03*
Y014775D02*
D03*
X029030Y014835D02*
D03*
Y015425D02*
D03*
X023630Y017435D02*
D03*
Y016845D02*
D03*
X025580Y014825D02*
D03*
Y014235D02*
D03*
X025050D02*
D03*
Y014825D02*
D03*
X028390Y015415D02*
D03*
Y014825D02*
D03*
X024430Y012885D02*
D03*
Y013475D02*
D03*
X023510Y018885D02*
D03*
Y019475D02*
D03*
D12*
X018995Y021328D02*
D03*
X018405D02*
D03*
X017176D02*
D03*
X017767D02*
D03*
X016539D02*
D03*
X015948D02*
D03*
X014720D02*
D03*
X015311D02*
D03*
X018405Y020718D02*
D03*
X018995D02*
D03*
X017767D02*
D03*
X017176D02*
D03*
X015948D02*
D03*
X016539D02*
D03*
X015311D02*
D03*
X014720D02*
D03*
X018645Y020060D02*
D03*
X018055D02*
D03*
X016865Y016070D02*
D03*
X017455D02*
D03*
X022425Y019570D02*
D03*
X023015D02*
D03*
X022425Y019090D02*
D03*
X023015D02*
D03*
X019715Y020070D02*
D03*
X019125D02*
D03*
X013771Y018760D02*
D03*
X013180D02*
D03*
X012135D02*
D03*
X012725D02*
D03*
X016968Y012190D02*
D03*
X017558D02*
D03*
X017619Y015310D02*
D03*
X018210D02*
D03*
X018735Y015300D02*
D03*
X019325D02*
D03*
X029145Y018660D02*
D03*
X028555D02*
D03*
X022605Y015770D02*
D03*
X022015D02*
D03*
X027225Y014230D02*
D03*
X027815D02*
D03*
X028205Y019380D02*
D03*
X027615D02*
D03*
X025335Y019600D02*
D03*
X025925D02*
D03*
X023295Y015770D02*
D03*
X023885D02*
D03*
X023025Y017860D02*
D03*
X023615D02*
D03*
Y018340D02*
D03*
X023025D02*
D03*
X024545Y019420D02*
D03*
X023955D02*
D03*
D13*
X020652Y019364D02*
D03*
X020337D02*
D03*
X020022D02*
D03*
X019707D02*
D03*
X019393D02*
D03*
X019078D02*
D03*
X018763Y019364D02*
D03*
X018448Y019364D02*
D03*
Y016076D02*
D03*
X018763Y016076D02*
D03*
X019078Y016076D02*
D03*
X019393D02*
D03*
X019707D02*
D03*
X020022D02*
D03*
X020337D02*
D03*
X020652D02*
D03*
D14*
X017906Y018822D02*
D03*
Y018507D02*
D03*
Y018192D02*
D03*
Y017877D02*
D03*
Y017563D02*
D03*
Y017248D02*
D03*
X017906Y016933D02*
D03*
X017906Y016618D02*
D03*
X021194D02*
D03*
X021194Y016933D02*
D03*
X021194Y017248D02*
D03*
Y017563D02*
D03*
Y017877D02*
D03*
Y018192D02*
D03*
Y018507D02*
D03*
Y018822D02*
D03*
D15*
X025224Y012595D02*
D03*
X027830D02*
D03*
D16*
X026012Y013670D02*
D03*
X026268D02*
D03*
X026524D02*
D03*
X026780D02*
D03*
X027036D02*
D03*
D17*
X024941Y015690D02*
D03*
X025138D02*
D03*
X025335D02*
D03*
X025532D02*
D03*
X025729D02*
D03*
X026319D02*
D03*
X026516D02*
D03*
X026713D02*
D03*
X026910D02*
D03*
X027107D02*
D03*
Y018879D02*
D03*
X026910D02*
D03*
X026713D02*
D03*
X026516D02*
D03*
X026319D02*
D03*
X026123D02*
D03*
X025926D02*
D03*
X025729D02*
D03*
X025532D02*
D03*
X025335D02*
D03*
X025138D02*
D03*
X024941D02*
D03*
X026123Y015690D02*
D03*
X025926D02*
D03*
D18*
X027619Y016202D02*
D03*
Y016399D02*
D03*
Y016596D02*
D03*
Y016792D02*
D03*
Y016989D02*
D03*
Y017186D02*
D03*
Y017383D02*
D03*
Y017580D02*
D03*
Y017777D02*
D03*
Y017973D02*
D03*
Y018170D02*
D03*
Y018367D02*
D03*
X024430D02*
D03*
Y018170D02*
D03*
Y017973D02*
D03*
Y017777D02*
D03*
Y017580D02*
D03*
Y017383D02*
D03*
Y017186D02*
D03*
Y016989D02*
D03*
Y016792D02*
D03*
Y016596D02*
D03*
Y016399D02*
D03*
Y016202D02*
D03*
D19*
X029230Y014090D02*
D03*
Y013590D02*
D03*
Y012090D02*
D03*
Y012590D02*
D03*
Y013090D02*
D03*
D20*
X026390Y021140D02*
D03*
X026890D02*
D03*
X028390D02*
D03*
X027890D02*
D03*
X027390D02*
D03*
X019530Y021150D02*
D03*
X020030D02*
D03*
X021530D02*
D03*
X021030D02*
D03*
X020530D02*
D03*
X012090D02*
D03*
X012590D02*
D03*
X014090D02*
D03*
X013590D02*
D03*
X013090D02*
D03*
D21*
X014617Y019224D02*
D03*
Y019480D02*
D03*
Y019736D02*
D03*
Y019992D02*
D03*
X016420D02*
D03*
Y019736D02*
D03*
Y019480D02*
D03*
D22*
Y019224D02*
D03*
D23*
X019000Y013140D02*
D03*
X018803D02*
D03*
X018606D02*
D03*
D24*
X019354Y013435D02*
D03*
Y013238D02*
D03*
Y013042D02*
D03*
Y012845D02*
D03*
X018252D02*
D03*
Y013042D02*
D03*
Y013238D02*
D03*
Y013435D02*
D03*
D25*
X018315Y014420D02*
D03*
X017252D02*
D03*
D26*
X015990Y013100D02*
D03*
X015490Y013657D02*
D03*
X013990Y013100D02*
D03*
X012990D02*
D03*
X014490Y013657D02*
D03*
X013490D02*
D03*
X012490D02*
D03*
X014990Y013100D02*
D03*
D27*
X013690Y017835D02*
D03*
X013190D02*
D03*
X012690D02*
D03*
X012190D02*
D03*
X013690Y015905D02*
D03*
X013190D02*
D03*
X012690D02*
D03*
X012190D02*
D03*
X014660Y016325D02*
D03*
X015160D02*
D03*
X015660D02*
D03*
X016160D02*
D03*
X014660Y018255D02*
D03*
X015160D02*
D03*
X015660D02*
D03*
X016160D02*
D03*
D28*
X014217Y015330D02*
D03*
X015043D02*
D03*
X016443D02*
D03*
X015617D02*
D03*
X027703Y014850D02*
D03*
X026877D02*
D03*
D29*
X018460Y012190D02*
D03*
X019287D02*
D03*
D30*
X028378Y017927D02*
D03*
Y016353D02*
D03*
X029322D02*
D03*
Y017927D02*
D03*
D31*
X022070Y017084D02*
D03*
Y016710D02*
D03*
Y016336D02*
D03*
X023054Y017084D02*
D03*
Y016710D02*
D03*
Y016336D02*
D03*
D32*
X024340Y014337D02*
D03*
Y015163D02*
D03*
D33*
X028180Y019330D02*
X028230Y019380D01*
X027815Y014190D02*
X028110D01*
X025550Y013900D02*
Y014325D01*
X016160Y017490D02*
Y018255D01*
X018043Y013490D02*
Y013820D01*
X019796Y013042D02*
X019986Y013231D01*
Y013838D01*
X019564Y014259D02*
X019986Y013838D01*
X019628Y013435D02*
X019723Y013340D01*
X019622Y013238D02*
X019723Y013340D01*
X019840Y012400D02*
Y012720D01*
X019715Y012845D02*
X019840Y012720D01*
X019354Y012845D02*
X019715D01*
X025926Y014303D02*
X026268Y013961D01*
Y013670D02*
Y013961D01*
X026123Y014362D02*
X026524Y013961D01*
X028540Y012610D02*
X028560Y012590D01*
X024030Y018170D02*
X024430D01*
X023880Y018320D02*
X024030Y018170D01*
X023880Y018320D02*
Y018565D01*
X023615Y018830D02*
X023880Y018565D01*
X023982Y017973D02*
X024430D01*
X023615Y018340D02*
X023982Y017973D01*
X023699Y017777D02*
X024430D01*
X023615Y017860D02*
X023699Y017777D01*
X023054Y017084D02*
X023406Y017435D01*
X023955Y018842D02*
X024430Y018367D01*
X023955Y018842D02*
Y019420D01*
X020758Y017248D02*
X021194D01*
X020580Y017070D02*
X020758Y017248D01*
X021870Y018870D02*
Y019045D01*
X021507Y018507D02*
X021870Y018870D01*
X021810Y019635D02*
X021870D01*
X021745Y019570D02*
X021810Y019635D01*
X021370Y019570D02*
X021745D01*
X017533Y017877D02*
X017906D01*
X017528Y017882D02*
X017533Y017877D01*
X017108Y017882D02*
X017528D01*
X017360Y017620D02*
X017417Y017563D01*
X016892Y017076D02*
X017138Y016830D01*
X016892Y017076D02*
Y017168D01*
X014872D02*
X016892D01*
X016443Y015330D02*
Y016757D01*
X016200Y017000D02*
X016443Y016757D01*
X014460Y017000D02*
X016200D01*
X017370Y017170D02*
X017448Y017248D01*
X016358Y017308D02*
X016735Y017685D01*
X015922Y017308D02*
X016358D01*
X016150Y017500D02*
Y017570D01*
X017138Y016830D02*
X017440D01*
X016735Y017685D02*
X016910D01*
X016150Y017500D02*
X016160Y017490D01*
X017300Y019865D02*
Y020040D01*
X017608Y020348D01*
X018358D01*
X018645Y020060D01*
X018373Y021360D02*
X018405Y021328D01*
X015870Y019900D02*
X016034Y019736D01*
X019790Y020070D02*
X020060Y020340D01*
X019715Y020070D02*
X019790D01*
X021024Y016076D02*
X021040Y016060D01*
X020652Y016076D02*
X021024D01*
X020330Y016660D02*
X020337Y016653D01*
Y016076D02*
Y016653D01*
X019393Y016573D02*
X019450Y016630D01*
X019393Y016076D02*
Y016573D01*
X019040Y016630D02*
X019078Y016592D01*
Y016076D02*
Y016592D01*
X020812Y018822D02*
X021194D01*
X023125Y019090D02*
X023510Y019475D01*
X023015Y019090D02*
X023125D01*
X023025Y017860D02*
Y018340D01*
X023010Y018355D02*
X023025Y018340D01*
X023010Y018355D02*
Y018720D01*
X023015Y018725D01*
Y019090D01*
Y019570D01*
X022020Y018600D02*
X022425Y019005D01*
Y019090D01*
X021194Y018507D02*
X021507D01*
X016822Y018822D02*
X017906D01*
X016420Y019224D02*
X016822Y018822D01*
X013590Y020470D02*
Y020560D01*
Y020470D02*
X013860Y020200D01*
X014409D01*
X014617Y019992D01*
X016034Y019736D02*
X016420D01*
X018760Y018780D02*
X018763Y018783D01*
Y019364D01*
X016420Y019992D02*
X016628D01*
X016420Y019480D02*
X016760D01*
X016940Y019300D01*
X017275D02*
X017300Y019275D01*
X016940Y019300D02*
X017275D01*
X017920Y019660D02*
Y019925D01*
X018055Y020060D01*
X017050Y019570D02*
X017520D01*
X016628Y019992D02*
X017050Y019570D01*
X017726Y019364D02*
X018448D01*
X017520Y019570D02*
X017726Y019364D01*
X019707D02*
X019715Y019372D01*
Y020070D01*
X014720Y020718D02*
Y021328D01*
X015311D02*
X015353Y021370D01*
X015620D01*
X015906D02*
X015948Y021328D01*
X015620Y021370D02*
X015906D01*
X016539Y020718D02*
Y021328D01*
X017176Y020718D02*
Y021328D01*
X018995Y020718D02*
Y021328D01*
X023097Y016710D02*
X023099Y016707D01*
X023054Y016710D02*
X023097D01*
X022070D02*
X022590D01*
X022620Y016740D01*
X022720Y016469D02*
X022882Y016631D01*
X022720Y016100D02*
Y016469D01*
X022565Y017155D02*
X022630D01*
X022494Y017084D02*
X022565Y017155D01*
X024577Y020238D02*
X024675Y020140D01*
X025130D01*
X025393Y020403D01*
X025450D01*
X023058Y021182D02*
X023530Y020710D01*
X023003Y021182D02*
X023058D01*
X022337D02*
X023003D01*
X022210Y021055D02*
X022337Y021182D01*
X013510Y020480D02*
X013590Y020560D01*
X013510Y019975D02*
Y020480D01*
X028180Y019150D02*
Y019330D01*
Y019150D02*
X028300Y019030D01*
X028775D01*
X027890Y021140D02*
X027900Y021130D01*
X028775Y019030D02*
X029145Y018660D01*
X024941Y018879D02*
Y019329D01*
X024850Y019420D02*
X024941Y019329D01*
X024545Y019420D02*
X024850D01*
X017455Y016070D02*
Y016445D01*
X017340Y016560D02*
X017455Y016445D01*
X017398Y016618D02*
X017906D01*
X017340Y016560D02*
X017398Y016618D01*
X017440Y016830D02*
X017543Y016933D01*
X016910Y017685D02*
X017108Y017882D01*
X017543Y016933D02*
X017906D01*
X017448Y017248D02*
X017906D01*
X017417Y017563D02*
X017906D01*
X014640Y015030D02*
X014990Y014680D01*
Y013100D02*
Y014680D01*
X015617Y015330D02*
X015660Y015373D01*
X015490Y013657D02*
Y014350D01*
X016060Y014920D01*
X015660Y015373D02*
Y016325D01*
X016060Y014920D02*
Y016225D01*
X016160Y016325D01*
X015043Y015330D02*
X015160Y015447D01*
Y016325D01*
X014640Y015030D02*
Y016305D01*
X014660Y016325D01*
X012190Y015460D02*
Y015905D01*
Y015460D02*
X012580Y015070D01*
X013280D01*
X013490Y014860D01*
Y013657D02*
Y014860D01*
X013190Y015560D02*
Y015905D01*
Y015560D02*
X013990Y014760D01*
Y013100D02*
Y014760D01*
X013690Y016230D02*
X014460Y017000D01*
X013690Y015905D02*
Y016230D01*
X013530Y016640D02*
X013690Y016480D01*
Y016230D02*
Y016480D01*
X012690Y015905D02*
Y016460D01*
X012870Y016640D01*
X013530D01*
X012690Y017370D02*
Y017835D01*
Y017370D02*
X012950Y017110D01*
X013190Y017350D01*
Y017835D01*
X015160Y017480D02*
Y018255D01*
X013690Y018679D02*
X013771Y018760D01*
X013690Y017835D02*
Y018679D01*
X012135Y017890D02*
Y018760D01*
Y017890D02*
X012190Y017835D01*
X014605Y018310D02*
X014660Y018255D01*
X015660D02*
Y018570D01*
X018025Y013238D02*
X018252D01*
X017923Y013341D02*
X018025Y013238D01*
X017733Y013341D02*
X017923D01*
X017203D02*
X017733D01*
X018098Y013435D02*
X018252D01*
X018043Y013490D02*
X018098Y013435D01*
X019354D02*
X019628D01*
X017193Y012740D02*
X017203Y012750D01*
X018043Y013820D02*
X018053Y013830D01*
X019354Y013238D02*
X019622D01*
X019354Y013042D02*
X019796D01*
X019233Y014259D02*
X019564D01*
X019233Y014850D02*
X019670D01*
X018210Y015310D02*
X018725D01*
X018735Y015300D01*
X019325D02*
X019670Y014955D01*
Y014850D02*
Y014955D01*
X014660Y017380D02*
Y018255D01*
X015660Y017570D02*
Y018255D01*
Y017570D02*
X015922Y017308D01*
X014660Y017380D02*
X014872Y017168D01*
X025729Y015219D02*
Y015690D01*
X025580Y015070D02*
X025729Y015219D01*
X025580Y014825D02*
Y015070D01*
X024340Y014337D02*
X024442Y014235D01*
X025050D01*
X024730Y015060D02*
X024790Y015120D01*
X024730Y014727D02*
Y015060D01*
X024340Y014337D02*
X024730Y014727D01*
X026319Y015011D02*
Y015690D01*
Y015011D02*
X026530Y014800D01*
X026877Y014343D02*
Y014850D01*
Y014343D02*
X027030Y014190D01*
X024790Y015120D02*
X025190D01*
X025335Y015265D01*
Y015690D01*
X024941D02*
Y016231D01*
X025440Y016340D02*
X025520D01*
X025532Y015252D02*
Y015690D01*
X025105Y014825D02*
X025532Y015252D01*
X025050Y014825D02*
X025105D01*
X027150Y018170D02*
X027619D01*
X027107Y017973D02*
X027619D01*
X024430Y017580D02*
X024920D01*
X024430Y017383D02*
X024943D01*
X027030Y018050D02*
X027150Y018170D01*
X027030Y018050D02*
X027107Y017973D01*
X026516Y015690D02*
Y016286D01*
X026713Y016089D01*
Y015690D02*
Y016089D01*
X026516Y016286D02*
X026704D01*
X026910Y016080D01*
Y015690D02*
Y016080D01*
X027251Y016399D02*
X027619D01*
X027020Y016630D02*
X027251Y016399D01*
X027619Y015911D02*
Y016202D01*
Y015911D02*
X027650Y015880D01*
X025050Y014825D02*
X025550Y014325D01*
X026123Y014362D02*
Y015690D01*
X025926Y014303D02*
Y015690D01*
X025138Y018338D02*
Y018879D01*
X025090Y018290D02*
X025138Y018338D01*
X024941Y018439D02*
Y018879D01*
Y018439D02*
X025090Y018290D01*
X028370Y016940D02*
X028735D01*
X029322Y016353D01*
X028370Y017330D02*
Y017920D01*
X028378Y017927D01*
X026530Y014800D02*
X026827D01*
X026877Y014850D01*
X026524Y013670D02*
Y013961D01*
X024430Y012885D02*
X024935D01*
X025224Y012595D01*
X028110Y014190D02*
X028300Y014380D01*
X028660D01*
X029030Y014750D01*
Y014835D01*
X028390Y015415D02*
X028971Y014835D01*
X029030D01*
X029145Y018105D02*
X029322Y017927D01*
X029145Y018105D02*
Y018660D01*
X028378Y017927D02*
X028555Y018105D01*
Y018660D01*
Y018700D01*
X028205Y019380D02*
X028230D01*
X028390Y015415D02*
Y016340D01*
X028378Y016353D02*
X028390Y016340D01*
X029030Y015425D02*
X029322Y015718D01*
Y016353D01*
X025138Y015690D02*
Y016038D01*
X024941Y016231D02*
X025020Y016310D01*
X025040D01*
X025138Y016038D02*
X025148Y016048D01*
X025149D01*
X025302Y016201D01*
Y016202D01*
X025440Y016340D01*
X024430Y016792D02*
X024942D01*
X025130Y016980D01*
X024943Y017383D02*
X025030Y017470D01*
Y017510D01*
X024920Y017580D02*
X024990Y017510D01*
X025030D01*
X025392Y017242D02*
X025410Y017260D01*
X025021Y017242D02*
X025392D01*
X024430Y016989D02*
X024768D01*
X023949Y016399D02*
X024430D01*
X023968Y016202D02*
X024430D01*
X023860Y016310D02*
X023949Y016399D01*
X023860Y016210D02*
Y016310D01*
X023960Y016210D02*
X023968Y016202D01*
X023860Y016210D02*
X023960D01*
X025335Y018879D02*
Y019600D01*
X025335Y019600D02*
X025335Y019600D01*
X023630Y017435D02*
X023885Y017180D01*
X024424D01*
X024430Y017186D01*
X023406Y017435D02*
X023630D01*
X023054Y016336D02*
X023256D01*
X023630Y016710D01*
Y016845D01*
X022950Y015770D02*
X023295D01*
X022605D02*
X022950D01*
Y015870D01*
X022720Y016100D02*
X022950Y015870D01*
X022070Y017084D02*
X022494D01*
X020640Y018650D02*
X020812Y018822D01*
X024768Y016989D02*
X025021Y017242D01*
X017767Y021328D02*
X018058D01*
X018090Y021360D02*
X018373D01*
X018058Y021328D02*
X018090Y021360D01*
X020580Y018260D02*
X020648Y018192D01*
X021194D01*
X020594Y017877D02*
X021194D01*
X020580Y017863D02*
X020594Y017877D01*
X020676Y017563D02*
X021194D01*
X020580Y017467D02*
X020676Y017563D01*
X027030Y014190D02*
X027225D01*
D34*
X013090Y020599D02*
Y021150D01*
X020520Y021140D02*
X020530Y021150D01*
X020520Y020599D02*
Y021140D01*
X027390Y020589D02*
Y021140D01*
X029190Y013130D02*
X029230Y013090D01*
X028540Y013130D02*
X029190D01*
D35*
X025600Y013460D02*
X025802D01*
X024415D02*
X025600D01*
X025802D02*
X026012Y013670D01*
X028525Y012595D02*
X028540Y012610D01*
X027036Y012844D02*
Y013670D01*
X018645Y020060D02*
X018655Y020070D01*
X019125D01*
X022232Y019283D02*
X022425Y019090D01*
X021981Y019283D02*
X022232D01*
X020652Y019364D02*
X020733Y019283D01*
X021981D01*
X020450Y019880D02*
X023580D01*
X020337Y019767D02*
X020450Y019880D01*
X021981Y019283D02*
X022095Y019397D01*
X022097D01*
X022167Y019467D01*
Y019469D01*
X022268Y019570D01*
X022425D01*
X020652Y019055D02*
Y019364D01*
X020408Y018810D02*
X020652Y019055D01*
X014454Y019224D02*
X014617D01*
X014320Y019090D02*
X014454Y019224D01*
X013720Y019090D02*
X014320D01*
X023580Y019880D02*
X023820Y020120D01*
X016865Y016549D02*
X016920Y016605D01*
X016865Y016070D02*
Y016549D01*
X021965Y020220D02*
X022210Y020465D01*
X020390Y020220D02*
X021965D01*
X020022Y019852D02*
X020390Y020220D01*
X025261Y021182D02*
X025450Y020993D01*
X024577Y021182D02*
X025261D01*
X024482D02*
X024577D01*
X023820Y020520D02*
X024482Y021182D01*
X023820Y020120D02*
Y020520D01*
X020337Y019364D02*
Y019767D01*
X022775Y020465D02*
X023003Y020238D01*
X022210Y020465D02*
X022775D01*
X020022Y019364D02*
Y019852D01*
X013090Y020599D02*
X013163Y020527D01*
Y019662D02*
Y020527D01*
Y019662D02*
X013460Y019365D01*
X014085Y019480D02*
X014617D01*
X013960Y019355D02*
X014085Y019480D01*
X014169Y019736D02*
X014617D01*
X013960Y019945D02*
X014169Y019736D01*
X015210Y019780D02*
Y019870D01*
X015166Y019736D02*
X015210Y019780D01*
X015190Y019050D02*
Y019250D01*
X014960Y019480D02*
X015190Y019250D01*
X014617Y019480D02*
X014960D01*
X014617Y019736D02*
X015166D01*
X027036Y012844D02*
X027285Y012595D01*
X027830D01*
X027370Y019980D02*
X027790D01*
X026890Y020800D02*
Y021140D01*
Y020460D02*
Y020800D01*
Y020460D02*
X027370Y019980D01*
X012090Y021150D02*
X012100Y021140D01*
Y020550D02*
Y021140D01*
X018096Y016076D02*
X018448D01*
X017690Y015670D02*
X018096Y016076D01*
X017320Y015670D02*
X017690D01*
X017180Y015530D02*
X017320Y015670D01*
X017140Y015530D02*
X017180D01*
X016865Y015805D02*
X017140Y015530D01*
X016865Y015805D02*
Y016070D01*
X017855Y013042D02*
X018252D01*
X017733Y012920D02*
X017855Y013042D01*
X017733Y012750D02*
Y012920D01*
X024430Y017973D02*
X025843D01*
X026237Y018367D01*
X027619D01*
X027107Y015690D02*
Y016133D01*
X025843Y017397D02*
X027107Y016133D01*
Y015690D02*
X027703Y015093D01*
Y014850D02*
Y015093D01*
X027830Y012595D02*
X028525D01*
X027703Y014850D02*
X028365D01*
X028390Y014825D01*
X025843Y017397D02*
Y017973D01*
X025146Y016596D02*
X025176Y016626D01*
X024430Y016596D02*
X025146D01*
X025843Y017293D02*
Y017397D01*
X025176Y016626D02*
X025176D01*
X025843Y017293D01*
X024430Y017777D02*
X024441Y017787D01*
X025303D01*
X025420Y017670D01*
X024340Y015163D02*
Y015425D01*
X023995Y015770D02*
X024340Y015425D01*
X023816Y016596D02*
X024430D01*
X023550Y016330D02*
X023816Y016596D01*
X023550Y015944D02*
Y016330D01*
Y015944D02*
X023724Y015770D01*
X023885D01*
X027619Y018367D02*
Y019376D01*
X027615Y019380D02*
X027619Y019376D01*
X027395Y019600D02*
X027615Y019380D01*
X025925Y019600D02*
X027395D01*
X023905Y015770D02*
X023995D01*
X022015Y015545D02*
Y015770D01*
Y016281D01*
X022070Y016336D01*
X022015Y015545D02*
X022210Y015350D01*
X023465D01*
X023885Y015770D01*
X019393Y018983D02*
Y019364D01*
X019220Y018810D02*
X019393Y018983D01*
X019220Y018810D02*
X020408D01*
X019393Y019364D02*
Y019802D01*
X019125Y020070D02*
X019393Y019802D01*
X013430Y019380D02*
X013720Y019090D01*
D36*
X028540Y012110D02*
X028560Y012090D01*
X014090Y020560D02*
Y021150D01*
X021530Y020560D02*
Y021150D01*
X021030Y020560D02*
Y021150D01*
X013590Y020560D02*
Y021150D01*
X028390Y020550D02*
Y021140D01*
X027900Y020550D02*
Y021130D01*
X028560Y012090D02*
X029230D01*
X028560Y012590D02*
X029230D01*
D37*
X014490Y013657D02*
Y014730D01*
X014217Y015003D02*
X014490Y014730D01*
X014217Y015003D02*
Y015330D01*
X013690Y015905D02*
X014217Y015379D01*
Y015330D02*
Y015379D01*
D38*
X020910Y013270D02*
Y013430D01*
X020040Y012400D02*
X020910Y013270D01*
X019840Y012400D02*
X020040D01*
D39*
X022020Y018600D02*
D03*
Y018100D02*
D03*
Y017600D02*
D03*
X022453Y018350D02*
D03*
Y017850D02*
D03*
D40*
X022878Y013430D02*
D03*
X020910D02*
D03*
D41*
X019723Y013340D02*
D03*
X025600Y013460D02*
D03*
X025550Y013900D02*
D03*
X020580Y017070D02*
D03*
X019220Y018810D02*
D03*
X021370Y019570D02*
D03*
X017360Y017620D02*
D03*
X017370Y017170D02*
D03*
X016150Y017570D02*
D03*
X015870Y019900D02*
D03*
X020060Y020340D02*
D03*
X021040Y016060D02*
D03*
X020330Y016660D02*
D03*
X019040Y016630D02*
D03*
X019450D02*
D03*
X023010Y018720D02*
D03*
X016830Y018550D02*
D03*
X018760Y018780D02*
D03*
X016940Y019300D02*
D03*
X017920Y019660D02*
D03*
X022620Y016740D02*
D03*
X022630Y017155D02*
D03*
X023530Y020710D02*
D03*
X025130Y020140D02*
D03*
X015210Y019870D02*
D03*
X015190Y019050D02*
D03*
X028300Y019030D02*
D03*
X016710Y012980D02*
D03*
X027790Y019980D02*
D03*
X013090Y020599D02*
D03*
X012590Y020790D02*
D03*
X026390Y020810D02*
D03*
X026890Y020800D02*
D03*
X015620Y021370D02*
D03*
X019530Y020800D02*
D03*
X012100Y020550D02*
D03*
X020520Y020599D02*
D03*
X020030Y020790D02*
D03*
X027390Y020589D02*
D03*
X017340Y016560D02*
D03*
X013297Y018663D02*
D03*
X012550Y018690D02*
D03*
X015160Y017480D02*
D03*
X012950Y017110D02*
D03*
X017983Y012220D02*
D03*
X018443Y013800D02*
D03*
X017610D02*
D03*
X017193D02*
D03*
X018026D02*
D03*
X019670Y014850D02*
D03*
X028540Y013130D02*
D03*
X028870Y013580D02*
D03*
X028880Y014090D02*
D03*
X025520Y016340D02*
D03*
X028370Y017330D02*
D03*
X027030Y018050D02*
D03*
X026516Y016286D02*
D03*
X027650Y015880D02*
D03*
X027020Y016630D02*
D03*
X025090Y018290D02*
D03*
X028370Y016940D02*
D03*
X025420Y017670D02*
D03*
X028300Y014380D02*
D03*
X025410Y017260D02*
D03*
X025040Y016310D02*
D03*
X025130Y016980D02*
D03*
X025030Y017510D02*
D03*
X023860Y016210D02*
D03*
X022950Y015770D02*
D03*
X020640Y018650D02*
D03*
X018040Y020610D02*
D03*
X018600Y020550D02*
D03*
X016100Y020530D02*
D03*
X015480Y020510D02*
D03*
X020580Y017863D02*
D03*
Y017467D02*
D03*
Y018260D02*
D03*
X018090Y021360D02*
D03*
X016720Y014680D02*
D03*
D42*
X028540Y012110D02*
D03*
Y012610D02*
D03*
X014090Y020560D02*
D03*
X027900Y020550D02*
D03*
X013590Y020560D02*
D03*
X021530D02*
D03*
X021030D02*
D03*
X028390Y020550D02*
D03*
D43*
X012402Y019685D02*
D03*
X029134D02*
D03*
M02*
