G04 Layer_Color=13278208*
%FSAX24Y24*%
%MOIN*%
G70*
G01*
G75*
%ADD35C,0.0100*%
%ADD37C,0.0150*%
%ADD84C,0.0010*%
D35*
X031350Y024550D02*
Y023950D01*
X031650D01*
X031750Y024050D01*
Y024150D01*
X031650Y024250D01*
X031350D01*
X031650D01*
X031750Y024350D01*
Y024450D01*
X031650Y024550D01*
X031350D01*
X032050Y023950D02*
X032250D01*
X032350Y024050D01*
Y024250D01*
X032250Y024350D01*
X032050D01*
X031950Y024250D01*
Y024050D01*
X032050Y023950D01*
X032650Y024350D02*
X032850D01*
X032949Y024250D01*
Y023950D01*
X032650D01*
X032550Y024050D01*
X032650Y024150D01*
X032949D01*
X033149Y024350D02*
Y023950D01*
Y024150D01*
X033249Y024250D01*
X033349Y024350D01*
X033449D01*
X034149Y024550D02*
Y023950D01*
X033849D01*
X033749Y024050D01*
Y024250D01*
X033849Y024350D01*
X034149D01*
X034949Y023950D02*
X035249D01*
X035349Y024050D01*
X035249Y024150D01*
X035049D01*
X034949Y024250D01*
X035049Y024350D01*
X035349D01*
X035549Y024550D02*
Y023950D01*
Y024250D01*
X035649Y024350D01*
X035849D01*
X035949Y024250D01*
Y023950D01*
X036248Y024350D02*
X036448D01*
X036548Y024250D01*
Y023950D01*
X036248D01*
X036148Y024050D01*
X036248Y024150D01*
X036548D01*
X036748Y023750D02*
Y024350D01*
X037048D01*
X037148Y024250D01*
Y024050D01*
X037048Y023950D01*
X036748D01*
X037648D02*
X037448D01*
X037348Y024050D01*
Y024250D01*
X037448Y024350D01*
X037648D01*
X037748Y024250D01*
Y024150D01*
X037348D01*
X037948Y024350D02*
X038048D01*
Y024250D01*
X037948D01*
Y024350D01*
Y024050D02*
X038048D01*
Y023950D01*
X037948D01*
Y024050D01*
X039048Y023950D02*
Y024550D01*
X039247Y024350D01*
X039447Y024550D01*
Y023950D01*
X039947D02*
X039747D01*
X039647Y024050D01*
Y024250D01*
X039747Y024350D01*
X039947D01*
X040047Y024250D01*
Y024150D01*
X039647D01*
X040647Y024350D02*
X040347D01*
X040247Y024250D01*
Y024050D01*
X040347Y023950D01*
X040647D01*
X040847Y024550D02*
Y023950D01*
Y024250D01*
X040947Y024350D01*
X041147D01*
X041247Y024250D01*
Y023950D01*
X041447D02*
Y024350D01*
X041747D01*
X041847Y024250D01*
Y023950D01*
X042047D02*
X042246D01*
X042147D01*
Y024350D01*
X042047D01*
X042946D02*
X042646D01*
X042546Y024250D01*
Y024050D01*
X042646Y023950D01*
X042946D01*
X043246Y024350D02*
X043446D01*
X043546Y024250D01*
Y023950D01*
X043246D01*
X043146Y024050D01*
X043246Y024150D01*
X043546D01*
X043746Y023950D02*
X043946D01*
X043846D01*
Y024550D01*
X043746D01*
X044846Y023950D02*
X045046D01*
X044946D01*
Y024550D01*
X044846Y024450D01*
X045745Y024550D02*
X045345D01*
Y024250D01*
X045545Y024350D01*
X045645D01*
X045745Y024250D01*
Y024050D01*
X045645Y023950D01*
X045445D01*
X045345Y024050D01*
X046745Y023950D02*
X046545Y024150D01*
Y024350D01*
X046745Y024550D01*
X047045Y023950D02*
Y024550D01*
X047245Y024350D01*
X047445Y024550D01*
Y023950D01*
X047645D02*
X047845D01*
X047745D01*
Y024550D01*
X047645Y024450D01*
X048544Y024550D02*
X048145D01*
Y024250D01*
X048344Y024350D01*
X048444D01*
X048544Y024250D01*
Y024050D01*
X048444Y023950D01*
X048245D01*
X048145Y024050D01*
X048744Y023950D02*
X048944Y024150D01*
Y024350D01*
X048744Y024550D01*
X063075Y022032D02*
Y021560D01*
X063312D01*
X063390Y021639D01*
Y021717D01*
X063312Y021796D01*
X063075D01*
X063312D01*
X063390Y021875D01*
Y021954D01*
X063312Y022032D01*
X063075D01*
X063626Y021560D02*
X063784D01*
X063863Y021639D01*
Y021796D01*
X063784Y021875D01*
X063626D01*
X063548Y021796D01*
Y021639D01*
X063626Y021560D01*
X064099Y021875D02*
X064256D01*
X064335Y021796D01*
Y021560D01*
X064099D01*
X064020Y021639D01*
X064099Y021717D01*
X064335D01*
X064492Y021875D02*
Y021560D01*
Y021717D01*
X064571Y021796D01*
X064650Y021875D01*
X064728D01*
X065279Y022032D02*
Y021560D01*
X065043D01*
X064965Y021639D01*
Y021796D01*
X065043Y021875D01*
X065279D01*
X065909Y022032D02*
Y021560D01*
X066224D01*
X066460Y021875D02*
X066618D01*
X066696Y021796D01*
Y021560D01*
X066460D01*
X066381Y021639D01*
X066460Y021717D01*
X066696D01*
X066854Y021875D02*
Y021639D01*
X066932Y021560D01*
X067169D01*
Y021481D01*
X067090Y021403D01*
X067011D01*
X067169Y021560D02*
Y021875D01*
X067562Y021560D02*
X067405D01*
X067326Y021639D01*
Y021796D01*
X067405Y021875D01*
X067562D01*
X067641Y021796D01*
Y021717D01*
X067326D01*
X067798Y021875D02*
Y021560D01*
Y021717D01*
X067877Y021796D01*
X067956Y021875D01*
X068034D01*
X069058Y021954D02*
X068979Y022032D01*
X068822D01*
X068743Y021954D01*
Y021875D01*
X068822Y021796D01*
X068979D01*
X069058Y021717D01*
Y021639D01*
X068979Y021560D01*
X068822D01*
X068743Y021639D01*
X069294Y021954D02*
Y021875D01*
X069215D01*
X069373D01*
X069294D01*
Y021639D01*
X069373Y021560D01*
X069687Y021875D02*
X069845D01*
X069924Y021796D01*
Y021560D01*
X069687D01*
X069609Y021639D01*
X069687Y021717D01*
X069924D01*
X070396Y021875D02*
X070160D01*
X070081Y021796D01*
Y021639D01*
X070160Y021560D01*
X070396D01*
X070553D02*
Y022032D01*
Y021717D02*
X070789Y021875D01*
X070553Y021717D02*
X070789Y021560D01*
X058546Y020064D02*
X058625Y020143D01*
X058782D01*
X058861Y020064D01*
Y019985D01*
X058782Y019906D01*
X058703D01*
X058782D01*
X058861Y019828D01*
Y019749D01*
X058782Y019670D01*
X058625D01*
X058546Y019749D01*
X059097Y019592D02*
X059176Y019670D01*
Y019749D01*
X059097D01*
Y019670D01*
X059176D01*
X059097Y019592D01*
X059018Y019513D01*
X059805Y020143D02*
X059490D01*
Y019906D01*
X059648Y019985D01*
X059727D01*
X059805Y019906D01*
Y019749D01*
X059727Y019670D01*
X059569D01*
X059490Y019749D01*
X058782Y017781D02*
Y018253D01*
X058546Y018017D01*
X058861D01*
X059097Y017702D02*
X059176Y017781D01*
Y017859D01*
X059097D01*
Y017781D01*
X059176D01*
X059097Y017702D01*
X059018Y017623D01*
X059490Y018174D02*
X059569Y018253D01*
X059727D01*
X059805Y018174D01*
Y018095D01*
X059727Y018017D01*
X059805Y017938D01*
Y017859D01*
X059727Y017781D01*
X059569D01*
X059490Y017859D01*
Y017938D01*
X059569Y018017D01*
X059490Y018095D01*
Y018174D01*
X059569Y018017D02*
X059727D01*
X058782Y015891D02*
Y016363D01*
X058546Y016127D01*
X058861D01*
X059097Y015812D02*
X059176Y015891D01*
Y015969D01*
X059097D01*
Y015891D01*
X059176D01*
X059097Y015812D01*
X059018Y015733D01*
X059805Y015891D02*
X059490D01*
X059805Y016206D01*
Y016284D01*
X059727Y016363D01*
X059569D01*
X059490Y016284D01*
X058782Y014001D02*
Y014473D01*
X058546Y014237D01*
X058861D01*
X059097Y013922D02*
X059176Y014001D01*
Y014080D01*
X059097D01*
Y014001D01*
X059176D01*
X059097Y013922D01*
X059018Y013844D01*
X059805Y014001D02*
X059490D01*
X059805Y014316D01*
Y014395D01*
X059727Y014473D01*
X059569D01*
X059490Y014395D01*
X058546Y012505D02*
X058625Y012584D01*
X058782D01*
X058861Y012505D01*
Y012426D01*
X058782Y012347D01*
X058703D01*
X058782D01*
X058861Y012269D01*
Y012190D01*
X058782Y012111D01*
X058625D01*
X058546Y012190D01*
X059097Y012033D02*
X059176Y012111D01*
Y012190D01*
X059097D01*
Y012111D01*
X059176D01*
X059097Y012033D01*
X059018Y011954D01*
X059805Y012584D02*
X059490D01*
Y012347D01*
X059648Y012426D01*
X059727D01*
X059805Y012347D01*
Y012190D01*
X059727Y012111D01*
X059569D01*
X059490Y012190D01*
X058861Y021954D02*
X058782Y022032D01*
X058625D01*
X058546Y021954D01*
Y021639D01*
X058625Y021560D01*
X058782D01*
X058861Y021639D01*
X059097Y021560D02*
X059254D01*
X059333Y021639D01*
Y021796D01*
X059254Y021875D01*
X059097D01*
X059018Y021796D01*
Y021639D01*
X059097Y021560D01*
X059490D02*
Y021875D01*
X059727D01*
X059805Y021796D01*
Y021560D01*
X059963D02*
X060199D01*
X060278Y021639D01*
X060199Y021717D01*
X060041D01*
X059963Y021796D01*
X060041Y021875D01*
X060278D01*
X060514Y021954D02*
Y021875D01*
X060435D01*
X060592D01*
X060514D01*
Y021639D01*
X060592Y021560D01*
X060907Y021875D02*
X061065D01*
X061143Y021796D01*
Y021560D01*
X060907D01*
X060829Y021639D01*
X060907Y021717D01*
X061143D01*
X061301Y021560D02*
Y021875D01*
X061537D01*
X061616Y021796D01*
Y021560D01*
X061852Y021954D02*
Y021875D01*
X061773D01*
X061931D01*
X061852D01*
Y021639D01*
X061931Y021560D01*
X053386Y020064D02*
X053465Y020143D01*
X053623D01*
X053701Y020064D01*
Y019749D01*
X053623Y019670D01*
X053465D01*
X053386Y019749D01*
Y020064D01*
X053937Y019592D02*
X054016Y019670D01*
Y019749D01*
X053937D01*
Y019670D01*
X054016D01*
X053937Y019592D01*
X053859Y019513D01*
X054331Y020064D02*
X054410Y020143D01*
X054567D01*
X054646Y020064D01*
Y019749D01*
X054567Y019670D01*
X054410D01*
X054331Y019749D01*
Y020064D01*
X054803D02*
X054882Y020143D01*
X055039D01*
X055118Y020064D01*
Y019749D01*
X055039Y019670D01*
X054882D01*
X054803Y019749D01*
Y020064D01*
X055590Y020143D02*
X055433Y020064D01*
X055276Y019906D01*
Y019749D01*
X055354Y019670D01*
X055512D01*
X055590Y019749D01*
Y019828D01*
X055512Y019906D01*
X055276D01*
X055748Y019670D02*
Y019985D01*
X055827D01*
X055905Y019906D01*
Y019670D01*
Y019906D01*
X055984Y019985D01*
X056063Y019906D01*
Y019670D01*
X056220D02*
Y019985D01*
X056299D01*
X056378Y019906D01*
Y019670D01*
Y019906D01*
X056456Y019985D01*
X056535Y019906D01*
Y019670D01*
X053386Y019119D02*
X053465Y019198D01*
X053623D01*
X053701Y019119D01*
Y018804D01*
X053623Y018725D01*
X053465D01*
X053386Y018804D01*
Y019119D01*
X053937Y018647D02*
X054016Y018725D01*
Y018804D01*
X053937D01*
Y018725D01*
X054016D01*
X053937Y018647D01*
X053859Y018568D01*
X054331Y019119D02*
X054410Y019198D01*
X054567D01*
X054646Y019119D01*
Y018804D01*
X054567Y018725D01*
X054410D01*
X054331Y018804D01*
Y019119D01*
X054803Y018725D02*
X054961D01*
X054882D01*
Y019198D01*
X054803Y019119D01*
X055197D02*
X055276Y019198D01*
X055433D01*
X055512Y019119D01*
Y019040D01*
X055433Y018962D01*
X055512Y018883D01*
Y018804D01*
X055433Y018725D01*
X055276D01*
X055197Y018804D01*
Y018883D01*
X055276Y018962D01*
X055197Y019040D01*
Y019119D01*
X055276Y018962D02*
X055433D01*
X055669Y018725D02*
Y019040D01*
X055748D01*
X055827Y018962D01*
Y018725D01*
Y018962D01*
X055905Y019040D01*
X055984Y018962D01*
Y018725D01*
X056141D02*
Y019040D01*
X056220D01*
X056299Y018962D01*
Y018725D01*
Y018962D01*
X056378Y019040D01*
X056456Y018962D01*
Y018725D01*
X053386Y018174D02*
X053465Y018253D01*
X053623D01*
X053701Y018174D01*
Y017859D01*
X053623Y017781D01*
X053465D01*
X053386Y017859D01*
Y018174D01*
X053937Y017702D02*
X054016Y017781D01*
Y017859D01*
X053937D01*
Y017781D01*
X054016D01*
X053937Y017702D01*
X053859Y017623D01*
X054646Y017781D02*
X054331D01*
X054646Y018095D01*
Y018174D01*
X054567Y018253D01*
X054410D01*
X054331Y018174D01*
X055118Y018253D02*
X054961Y018174D01*
X054803Y018017D01*
Y017859D01*
X054882Y017781D01*
X055039D01*
X055118Y017859D01*
Y017938D01*
X055039Y018017D01*
X054803D01*
X055276Y018174D02*
X055354Y018253D01*
X055512D01*
X055590Y018174D01*
Y017859D01*
X055512Y017781D01*
X055354D01*
X055276Y017859D01*
Y018174D01*
X055748Y017781D02*
Y018095D01*
X055827D01*
X055905Y018017D01*
Y017781D01*
Y018017D01*
X055984Y018095D01*
X056063Y018017D01*
Y017781D01*
X056220D02*
Y018095D01*
X056299D01*
X056378Y018017D01*
Y017781D01*
Y018017D01*
X056456Y018095D01*
X056535Y018017D01*
Y017781D01*
X053386Y017229D02*
X053465Y017308D01*
X053623D01*
X053701Y017229D01*
Y016914D01*
X053623Y016836D01*
X053465D01*
X053386Y016914D01*
Y017229D01*
X053937Y016757D02*
X054016Y016836D01*
Y016914D01*
X053937D01*
Y016836D01*
X054016D01*
X053937Y016757D01*
X053859Y016678D01*
X054331Y017229D02*
X054410Y017308D01*
X054567D01*
X054646Y017229D01*
Y016914D01*
X054567Y016836D01*
X054410D01*
X054331Y016914D01*
Y017229D01*
X054803D02*
X054882Y017308D01*
X055039D01*
X055118Y017229D01*
Y017150D01*
X055039Y017072D01*
X054961D01*
X055039D01*
X055118Y016993D01*
Y016914D01*
X055039Y016836D01*
X054882D01*
X054803Y016914D01*
X055590Y017308D02*
X055276D01*
Y017072D01*
X055433Y017150D01*
X055512D01*
X055590Y017072D01*
Y016914D01*
X055512Y016836D01*
X055354D01*
X055276Y016914D01*
X055748Y016836D02*
Y017150D01*
X055827D01*
X055905Y017072D01*
Y016836D01*
Y017072D01*
X055984Y017150D01*
X056063Y017072D01*
Y016836D01*
X056220D02*
Y017150D01*
X056299D01*
X056378Y017072D01*
Y016836D01*
Y017072D01*
X056456Y017150D01*
X056535Y017072D01*
Y016836D01*
X053386Y016284D02*
X053465Y016363D01*
X053623D01*
X053701Y016284D01*
Y015969D01*
X053623Y015891D01*
X053465D01*
X053386Y015969D01*
Y016284D01*
X053937Y015812D02*
X054016Y015891D01*
Y015969D01*
X053937D01*
Y015891D01*
X054016D01*
X053937Y015812D01*
X053859Y015733D01*
X054331Y016284D02*
X054410Y016363D01*
X054567D01*
X054646Y016284D01*
Y016206D01*
X054567Y016127D01*
X054488D01*
X054567D01*
X054646Y016048D01*
Y015969D01*
X054567Y015891D01*
X054410D01*
X054331Y015969D01*
X055118Y016363D02*
X054961Y016284D01*
X054803Y016127D01*
Y015969D01*
X054882Y015891D01*
X055039D01*
X055118Y015969D01*
Y016048D01*
X055039Y016127D01*
X054803D01*
X055276Y016284D02*
X055354Y016363D01*
X055512D01*
X055590Y016284D01*
Y015969D01*
X055512Y015891D01*
X055354D01*
X055276Y015969D01*
Y016284D01*
X055748Y015891D02*
Y016206D01*
X055827D01*
X055905Y016127D01*
Y015891D01*
Y016127D01*
X055984Y016206D01*
X056063Y016127D01*
Y015891D01*
X056220D02*
Y016206D01*
X056299D01*
X056378Y016127D01*
Y015891D01*
Y016127D01*
X056456Y016206D01*
X056535Y016127D01*
Y015891D01*
X053386Y015339D02*
X053465Y015418D01*
X053623D01*
X053701Y015339D01*
Y015025D01*
X053623Y014946D01*
X053465D01*
X053386Y015025D01*
Y015339D01*
X053937Y014867D02*
X054016Y014946D01*
Y015025D01*
X053937D01*
Y014946D01*
X054016D01*
X053937Y014867D01*
X053859Y014788D01*
X054331Y015339D02*
X054410Y015418D01*
X054567D01*
X054646Y015339D01*
Y015025D01*
X054567Y014946D01*
X054410D01*
X054331Y015025D01*
Y015339D01*
X054803D02*
X054882Y015418D01*
X055039D01*
X055118Y015339D01*
Y015261D01*
X055039Y015182D01*
X054961D01*
X055039D01*
X055118Y015103D01*
Y015025D01*
X055039Y014946D01*
X054882D01*
X054803Y015025D01*
X055590Y015418D02*
X055276D01*
Y015182D01*
X055433Y015261D01*
X055512D01*
X055590Y015182D01*
Y015025D01*
X055512Y014946D01*
X055354D01*
X055276Y015025D01*
X055748Y014946D02*
Y015261D01*
X055827D01*
X055905Y015182D01*
Y014946D01*
Y015182D01*
X055984Y015261D01*
X056063Y015182D01*
Y014946D01*
X056220D02*
Y015261D01*
X056299D01*
X056378Y015182D01*
Y014946D01*
Y015182D01*
X056456Y015261D01*
X056535Y015182D01*
Y014946D01*
X053386Y014395D02*
X053465Y014473D01*
X053623D01*
X053701Y014395D01*
Y014080D01*
X053623Y014001D01*
X053465D01*
X053386Y014080D01*
Y014395D01*
X053937Y013922D02*
X054016Y014001D01*
Y014080D01*
X053937D01*
Y014001D01*
X054016D01*
X053937Y013922D01*
X053859Y013844D01*
X054646Y014001D02*
X054331D01*
X054646Y014316D01*
Y014395D01*
X054567Y014473D01*
X054410D01*
X054331Y014395D01*
X055118Y014473D02*
X054961Y014395D01*
X054803Y014237D01*
Y014080D01*
X054882Y014001D01*
X055039D01*
X055118Y014080D01*
Y014158D01*
X055039Y014237D01*
X054803D01*
X055276Y014395D02*
X055354Y014473D01*
X055512D01*
X055590Y014395D01*
Y014080D01*
X055512Y014001D01*
X055354D01*
X055276Y014080D01*
Y014395D01*
X055748Y014001D02*
Y014316D01*
X055827D01*
X055905Y014237D01*
Y014001D01*
Y014237D01*
X055984Y014316D01*
X056063Y014237D01*
Y014001D01*
X056220D02*
Y014316D01*
X056299D01*
X056378Y014237D01*
Y014001D01*
Y014237D01*
X056456Y014316D01*
X056535Y014237D01*
Y014001D01*
X053386Y013450D02*
X053465Y013528D01*
X053623D01*
X053701Y013450D01*
Y013135D01*
X053623Y013056D01*
X053465D01*
X053386Y013135D01*
Y013450D01*
X053937Y012977D02*
X054016Y013056D01*
Y013135D01*
X053937D01*
Y013056D01*
X054016D01*
X053937Y012977D01*
X053859Y012899D01*
X054331Y013450D02*
X054410Y013528D01*
X054567D01*
X054646Y013450D01*
Y013135D01*
X054567Y013056D01*
X054410D01*
X054331Y013135D01*
Y013450D01*
X054803Y013056D02*
X054961D01*
X054882D01*
Y013528D01*
X054803Y013450D01*
X055197D02*
X055276Y013528D01*
X055433D01*
X055512Y013450D01*
Y013371D01*
X055433Y013292D01*
X055512Y013214D01*
Y013135D01*
X055433Y013056D01*
X055276D01*
X055197Y013135D01*
Y013214D01*
X055276Y013292D01*
X055197Y013371D01*
Y013450D01*
X055276Y013292D02*
X055433D01*
X055669Y013056D02*
Y013371D01*
X055748D01*
X055827Y013292D01*
Y013056D01*
Y013292D01*
X055905Y013371D01*
X055984Y013292D01*
Y013056D01*
X056141D02*
Y013371D01*
X056220D01*
X056299Y013292D01*
Y013056D01*
Y013292D01*
X056378Y013371D01*
X056456Y013292D01*
Y013056D01*
X053386Y012505D02*
X053465Y012584D01*
X053623D01*
X053701Y012505D01*
Y012190D01*
X053623Y012111D01*
X053465D01*
X053386Y012190D01*
Y012505D01*
X053937Y012033D02*
X054016Y012111D01*
Y012190D01*
X053937D01*
Y012111D01*
X054016D01*
X053937Y012033D01*
X053859Y011954D01*
X054331Y012505D02*
X054410Y012584D01*
X054567D01*
X054646Y012505D01*
Y012190D01*
X054567Y012111D01*
X054410D01*
X054331Y012190D01*
Y012505D01*
X054803D02*
X054882Y012584D01*
X055039D01*
X055118Y012505D01*
Y012190D01*
X055039Y012111D01*
X054882D01*
X054803Y012190D01*
Y012505D01*
X055590Y012584D02*
X055433Y012505D01*
X055276Y012347D01*
Y012190D01*
X055354Y012111D01*
X055512D01*
X055590Y012190D01*
Y012269D01*
X055512Y012347D01*
X055276D01*
X055748Y012111D02*
Y012426D01*
X055827D01*
X055905Y012347D01*
Y012111D01*
Y012347D01*
X055984Y012426D01*
X056063Y012347D01*
Y012111D01*
X056220D02*
Y012426D01*
X056299D01*
X056378Y012347D01*
Y012111D01*
Y012347D01*
X056456Y012426D01*
X056535Y012347D01*
Y012111D01*
X053386Y022032D02*
X053701D01*
X053544D01*
Y021560D01*
X053859Y022032D02*
Y021560D01*
Y021796D01*
X053937Y021875D01*
X054095D01*
X054174Y021796D01*
Y021560D01*
X054331D02*
X054488D01*
X054410D01*
Y021875D01*
X054331D01*
X055039D02*
X054803D01*
X054725Y021796D01*
Y021639D01*
X054803Y021560D01*
X055039D01*
X055197D02*
Y022032D01*
Y021717D02*
X055433Y021875D01*
X055197Y021717D02*
X055433Y021560D01*
X055669D02*
Y021875D01*
X055905D01*
X055984Y021796D01*
Y021560D01*
X056378D02*
X056220D01*
X056141Y021639D01*
Y021796D01*
X056220Y021875D01*
X056378D01*
X056456Y021796D01*
Y021717D01*
X056141D01*
X056614Y021560D02*
X056850D01*
X056929Y021639D01*
X056850Y021717D01*
X056692D01*
X056614Y021796D01*
X056692Y021875D01*
X056929D01*
X057086Y021560D02*
X057322D01*
X057401Y021639D01*
X057322Y021717D01*
X057165D01*
X057086Y021796D01*
X057165Y021875D01*
X057401D01*
X046889Y020064D02*
X046810Y020143D01*
X046653D01*
X046574Y020064D01*
Y019985D01*
X046653Y019906D01*
X046810D01*
X046889Y019828D01*
Y019749D01*
X046810Y019670D01*
X046653D01*
X046574Y019749D01*
X047125Y019670D02*
X047283D01*
X047361Y019749D01*
Y019906D01*
X047283Y019985D01*
X047125D01*
X047046Y019906D01*
Y019749D01*
X047125Y019670D01*
X047519D02*
X047676D01*
X047597D01*
Y020143D01*
X047519D01*
X048227D02*
Y019670D01*
X047991D01*
X047912Y019749D01*
Y019906D01*
X047991Y019985D01*
X048227D01*
X048621Y019670D02*
X048463D01*
X048385Y019749D01*
Y019906D01*
X048463Y019985D01*
X048621D01*
X048699Y019906D01*
Y019828D01*
X048385D01*
X048857Y019985D02*
Y019670D01*
Y019828D01*
X048936Y019906D01*
X049014Y019985D01*
X049093D01*
X049801Y019670D02*
Y020143D01*
X050038D01*
X050116Y020064D01*
Y019906D01*
X050038Y019828D01*
X049801D01*
X049959D02*
X050116Y019670D01*
X050510D02*
X050352D01*
X050274Y019749D01*
Y019906D01*
X050352Y019985D01*
X050510D01*
X050589Y019906D01*
Y019828D01*
X050274D01*
X050746Y019670D02*
X050982D01*
X051061Y019749D01*
X050982Y019828D01*
X050825D01*
X050746Y019906D01*
X050825Y019985D01*
X051061D01*
X051218Y019670D02*
X051376D01*
X051297D01*
Y019985D01*
X051218D01*
X051612Y019670D02*
X051848D01*
X051927Y019749D01*
X051848Y019828D01*
X051691D01*
X051612Y019906D01*
X051691Y019985D01*
X051927D01*
X052163Y020064D02*
Y019985D01*
X052084D01*
X052242D01*
X052163D01*
Y019749D01*
X052242Y019670D01*
X046889Y019119D02*
X046810Y019198D01*
X046653D01*
X046574Y019119D01*
Y018804D01*
X046653Y018725D01*
X046810D01*
X046889Y018804D01*
X047125Y018725D02*
X047283D01*
X047361Y018804D01*
Y018962D01*
X047283Y019040D01*
X047125D01*
X047046Y018962D01*
Y018804D01*
X047125Y018725D01*
X047519Y018568D02*
Y019040D01*
X047755D01*
X047834Y018962D01*
Y018804D01*
X047755Y018725D01*
X047519D01*
X047991Y018568D02*
Y019040D01*
X048227D01*
X048306Y018962D01*
Y018804D01*
X048227Y018725D01*
X047991D01*
X048699D02*
X048542D01*
X048463Y018804D01*
Y018962D01*
X048542Y019040D01*
X048699D01*
X048778Y018962D01*
Y018883D01*
X048463D01*
X048936Y019040D02*
Y018725D01*
Y018883D01*
X049014Y018962D01*
X049093Y019040D01*
X049172D01*
X046889Y018253D02*
X046574D01*
Y018017D01*
X046732D01*
X046574D01*
Y017781D01*
X047046D02*
Y018253D01*
X047283D01*
X047361Y018174D01*
Y018017D01*
X047283Y017938D01*
X047046D01*
X047204D02*
X047361Y017781D01*
X047519Y018017D02*
X047834D01*
X048227Y017781D02*
Y018253D01*
X047991Y018017D01*
X048306D01*
X046889Y017229D02*
X046810Y017308D01*
X046653D01*
X046574Y017229D01*
Y016914D01*
X046653Y016836D01*
X046810D01*
X046889Y016914D01*
X047125Y016836D02*
X047283D01*
X047361Y016914D01*
Y017072D01*
X047283Y017150D01*
X047125D01*
X047046Y017072D01*
Y016914D01*
X047125Y016836D01*
X047519Y016678D02*
Y017150D01*
X047755D01*
X047834Y017072D01*
Y016914D01*
X047755Y016836D01*
X047519D01*
X047991Y016678D02*
Y017150D01*
X048227D01*
X048306Y017072D01*
Y016914D01*
X048227Y016836D01*
X047991D01*
X048699D02*
X048542D01*
X048463Y016914D01*
Y017072D01*
X048542Y017150D01*
X048699D01*
X048778Y017072D01*
Y016993D01*
X048463D01*
X048936Y017150D02*
Y016836D01*
Y016993D01*
X049014Y017072D01*
X049093Y017150D01*
X049172D01*
X046889Y015339D02*
X046810Y015418D01*
X046653D01*
X046574Y015339D01*
Y015025D01*
X046653Y014946D01*
X046810D01*
X046889Y015025D01*
X047125Y014946D02*
X047283D01*
X047361Y015025D01*
Y015182D01*
X047283Y015261D01*
X047125D01*
X047046Y015182D01*
Y015025D01*
X047125Y014946D01*
X047519Y014788D02*
Y015261D01*
X047755D01*
X047834Y015182D01*
Y015025D01*
X047755Y014946D01*
X047519D01*
X047991Y014788D02*
Y015261D01*
X048227D01*
X048306Y015182D01*
Y015025D01*
X048227Y014946D01*
X047991D01*
X048699D02*
X048542D01*
X048463Y015025D01*
Y015182D01*
X048542Y015261D01*
X048699D01*
X048778Y015182D01*
Y015103D01*
X048463D01*
X048936Y015261D02*
Y014946D01*
Y015103D01*
X049014Y015182D01*
X049093Y015261D01*
X049172D01*
X046889Y013450D02*
X046810Y013528D01*
X046653D01*
X046574Y013450D01*
Y013135D01*
X046653Y013056D01*
X046810D01*
X046889Y013135D01*
X047125Y013056D02*
X047283D01*
X047361Y013135D01*
Y013292D01*
X047283Y013371D01*
X047125D01*
X047046Y013292D01*
Y013135D01*
X047125Y013056D01*
X047519Y012899D02*
Y013371D01*
X047755D01*
X047834Y013292D01*
Y013135D01*
X047755Y013056D01*
X047519D01*
X047991Y012899D02*
Y013371D01*
X048227D01*
X048306Y013292D01*
Y013135D01*
X048227Y013056D01*
X047991D01*
X048699D02*
X048542D01*
X048463Y013135D01*
Y013292D01*
X048542Y013371D01*
X048699D01*
X048778Y013292D01*
Y013214D01*
X048463D01*
X048936Y013371D02*
Y013056D01*
Y013214D01*
X049014Y013292D01*
X049093Y013371D01*
X049172D01*
X046889Y012505D02*
X046810Y012584D01*
X046653D01*
X046574Y012505D01*
Y012426D01*
X046653Y012347D01*
X046810D01*
X046889Y012269D01*
Y012190D01*
X046810Y012111D01*
X046653D01*
X046574Y012190D01*
X047125Y012111D02*
X047283D01*
X047361Y012190D01*
Y012347D01*
X047283Y012426D01*
X047125D01*
X047046Y012347D01*
Y012190D01*
X047125Y012111D01*
X047519D02*
X047676D01*
X047597D01*
Y012584D01*
X047519D01*
X048227D02*
Y012111D01*
X047991D01*
X047912Y012190D01*
Y012347D01*
X047991Y012426D01*
X048227D01*
X048621Y012111D02*
X048463D01*
X048385Y012190D01*
Y012347D01*
X048463Y012426D01*
X048621D01*
X048699Y012347D01*
Y012269D01*
X048385D01*
X048857Y012426D02*
Y012111D01*
Y012269D01*
X048936Y012347D01*
X049014Y012426D01*
X049093D01*
X049801Y012111D02*
Y012584D01*
X050038D01*
X050116Y012505D01*
Y012347D01*
X050038Y012269D01*
X049801D01*
X049959D02*
X050116Y012111D01*
X050510D02*
X050352D01*
X050274Y012190D01*
Y012347D01*
X050352Y012426D01*
X050510D01*
X050589Y012347D01*
Y012269D01*
X050274D01*
X050746Y012111D02*
X050982D01*
X051061Y012190D01*
X050982Y012269D01*
X050825D01*
X050746Y012347D01*
X050825Y012426D01*
X051061D01*
X051218Y012111D02*
X051376D01*
X051297D01*
Y012426D01*
X051218D01*
X051612Y012111D02*
X051848D01*
X051927Y012190D01*
X051848Y012269D01*
X051691D01*
X051612Y012347D01*
X051691Y012426D01*
X051927D01*
X052163Y012505D02*
Y012426D01*
X052084D01*
X052242D01*
X052163D01*
Y012190D01*
X052242Y012111D01*
X046574Y021560D02*
Y022032D01*
X046732Y021875D01*
X046889Y022032D01*
Y021560D01*
X047125Y021875D02*
X047283D01*
X047361Y021796D01*
Y021560D01*
X047125D01*
X047046Y021639D01*
X047125Y021717D01*
X047361D01*
X047597Y021954D02*
Y021875D01*
X047519D01*
X047676D01*
X047597D01*
Y021639D01*
X047676Y021560D01*
X048148D02*
X047991D01*
X047912Y021639D01*
Y021796D01*
X047991Y021875D01*
X048148D01*
X048227Y021796D01*
Y021717D01*
X047912D01*
X048385Y021875D02*
Y021560D01*
Y021717D01*
X048463Y021796D01*
X048542Y021875D01*
X048621D01*
X048857Y021560D02*
X049014D01*
X048936D01*
Y021875D01*
X048857D01*
X049329D02*
X049487D01*
X049565Y021796D01*
Y021560D01*
X049329D01*
X049250Y021639D01*
X049329Y021717D01*
X049565D01*
X049723Y021560D02*
X049880D01*
X049801D01*
Y022032D01*
X049723D01*
X035118Y021087D02*
X035432D01*
X035275D01*
Y020615D01*
X035669D02*
X035826D01*
X035905Y020694D01*
Y020851D01*
X035826Y020930D01*
X035669D01*
X035590Y020851D01*
Y020694D01*
X035669Y020615D01*
X036062Y020458D02*
Y020930D01*
X036298D01*
X036377Y020851D01*
Y020694D01*
X036298Y020615D01*
X036062D01*
X037243Y021087D02*
X037085D01*
X037007Y021009D01*
Y020694D01*
X037085Y020615D01*
X037243D01*
X037322Y020694D01*
Y021009D01*
X037243Y021087D01*
X037479Y020930D02*
X037636Y020615D01*
X037794Y020930D01*
X038187Y020615D02*
X038030D01*
X037951Y020694D01*
Y020851D01*
X038030Y020930D01*
X038187D01*
X038266Y020851D01*
Y020773D01*
X037951D01*
X038424Y020930D02*
Y020615D01*
Y020773D01*
X038502Y020851D01*
X038581Y020930D01*
X038660D01*
X038896Y020615D02*
X039053D01*
X038975D01*
Y021087D01*
X038896D01*
X039368Y020930D02*
X039526D01*
X039604Y020851D01*
Y020615D01*
X039368D01*
X039290Y020694D01*
X039368Y020773D01*
X039604D01*
X039762Y020930D02*
Y020694D01*
X039841Y020615D01*
X040077D01*
Y020536D01*
X039998Y020458D01*
X039919D01*
X040077Y020615D02*
Y020930D01*
X035118Y020143D02*
X035432D01*
X035275D01*
Y019670D01*
X035669D02*
X035826D01*
X035905Y019749D01*
Y019906D01*
X035826Y019985D01*
X035669D01*
X035590Y019906D01*
Y019749D01*
X035669Y019670D01*
X036062Y019513D02*
Y019985D01*
X036298D01*
X036377Y019906D01*
Y019749D01*
X036298Y019670D01*
X036062D01*
X037322Y020064D02*
X037243Y020143D01*
X037085D01*
X037007Y020064D01*
Y019985D01*
X037085Y019906D01*
X037243D01*
X037322Y019828D01*
Y019749D01*
X037243Y019670D01*
X037085D01*
X037007Y019749D01*
X037558Y019670D02*
X037715D01*
X037794Y019749D01*
Y019906D01*
X037715Y019985D01*
X037558D01*
X037479Y019906D01*
Y019749D01*
X037558Y019670D01*
X037951D02*
X038109D01*
X038030D01*
Y020143D01*
X037951D01*
X038660D02*
Y019670D01*
X038424D01*
X038345Y019749D01*
Y019906D01*
X038424Y019985D01*
X038660D01*
X039053Y019670D02*
X038896D01*
X038817Y019749D01*
Y019906D01*
X038896Y019985D01*
X039053D01*
X039132Y019906D01*
Y019828D01*
X038817D01*
X039290Y019985D02*
Y019670D01*
Y019828D01*
X039368Y019906D01*
X039447Y019985D01*
X039526D01*
X035118Y019198D02*
X035432D01*
X035275D01*
Y018725D01*
X035669D02*
X035826D01*
X035905Y018804D01*
Y018962D01*
X035826Y019040D01*
X035669D01*
X035590Y018962D01*
Y018804D01*
X035669Y018725D01*
X036062Y018568D02*
Y019040D01*
X036298D01*
X036377Y018962D01*
Y018804D01*
X036298Y018725D01*
X036062D01*
X037007Y019198D02*
Y018725D01*
X037322D01*
X037558Y019040D02*
X037715D01*
X037794Y018962D01*
Y018725D01*
X037558D01*
X037479Y018804D01*
X037558Y018883D01*
X037794D01*
X037951Y019040D02*
Y018804D01*
X038030Y018725D01*
X038266D01*
Y018647D01*
X038187Y018568D01*
X038109D01*
X038266Y018725D02*
Y019040D01*
X038660Y018725D02*
X038502D01*
X038424Y018804D01*
Y018962D01*
X038502Y019040D01*
X038660D01*
X038738Y018962D01*
Y018883D01*
X038424D01*
X038896Y019040D02*
Y018725D01*
Y018883D01*
X038975Y018962D01*
X039053Y019040D01*
X039132D01*
X035118Y018253D02*
Y017781D01*
X035354D01*
X035432Y017859D01*
Y018174D01*
X035354Y018253D01*
X035118D01*
X035590Y017781D02*
X035747D01*
X035669D01*
Y018095D01*
X035590D01*
X036220Y017781D02*
X036062D01*
X035983Y017859D01*
Y018017D01*
X036062Y018095D01*
X036220D01*
X036298Y018017D01*
Y017938D01*
X035983D01*
X036456Y017781D02*
X036613D01*
X036534D01*
Y018253D01*
X036456D01*
X037085Y017781D02*
X036928D01*
X036849Y017859D01*
Y018017D01*
X036928Y018095D01*
X037085D01*
X037164Y018017D01*
Y017938D01*
X036849D01*
X037636Y018095D02*
X037400D01*
X037322Y018017D01*
Y017859D01*
X037400Y017781D01*
X037636D01*
X037873Y018174D02*
Y018095D01*
X037794D01*
X037951D01*
X037873D01*
Y017859D01*
X037951Y017781D01*
X038187Y018095D02*
Y017781D01*
Y017938D01*
X038266Y018017D01*
X038345Y018095D01*
X038424D01*
X038660Y017781D02*
X038817D01*
X038739D01*
Y018095D01*
X038660D01*
X039368D02*
X039132D01*
X039053Y018017D01*
Y017859D01*
X039132Y017781D01*
X039368D01*
X039998D02*
X040155D01*
X040077D01*
Y018253D01*
X039998Y018174D01*
X035432Y017229D02*
X035354Y017308D01*
X035196D01*
X035118Y017229D01*
Y016914D01*
X035196Y016836D01*
X035354D01*
X035432Y016914D01*
Y017072D01*
X035275D01*
X035590Y017150D02*
Y016836D01*
Y016993D01*
X035669Y017072D01*
X035747Y017150D01*
X035826D01*
X036141Y016836D02*
X036298D01*
X036377Y016914D01*
Y017072D01*
X036298Y017150D01*
X036141D01*
X036062Y017072D01*
Y016914D01*
X036141Y016836D01*
X036534Y017150D02*
Y016914D01*
X036613Y016836D01*
X036849D01*
Y017150D01*
X037007Y016836D02*
Y017150D01*
X037243D01*
X037322Y017072D01*
Y016836D01*
X037794Y017308D02*
Y016836D01*
X037558D01*
X037479Y016914D01*
Y017072D01*
X037558Y017150D01*
X037794D01*
X038424Y016836D02*
Y017308D01*
X038660D01*
X038738Y017229D01*
Y017072D01*
X038660Y016993D01*
X038424D01*
X038896Y016836D02*
X039053D01*
X038975D01*
Y017308D01*
X038896D01*
X039368Y017150D02*
X039526D01*
X039604Y017072D01*
Y016836D01*
X039368D01*
X039290Y016914D01*
X039368Y016993D01*
X039604D01*
X039762Y016836D02*
Y017150D01*
X039998D01*
X040077Y017072D01*
Y016836D01*
X040470D02*
X040313D01*
X040234Y016914D01*
Y017072D01*
X040313Y017150D01*
X040470D01*
X040549Y017072D01*
Y016993D01*
X040234D01*
X041336Y016836D02*
X041179Y016993D01*
Y017150D01*
X041336Y017308D01*
X041572Y016836D02*
Y017308D01*
X041887Y016836D01*
Y017308D01*
X042359D02*
X042045D01*
Y016836D01*
X042359D01*
X042045Y017072D02*
X042202D01*
X042832Y017229D02*
X042753Y017308D01*
X042596D01*
X042517Y017229D01*
Y016914D01*
X042596Y016836D01*
X042753D01*
X042832Y016914D01*
Y017072D01*
X042674D01*
X042989Y016836D02*
Y017150D01*
X043147Y017308D01*
X043304Y017150D01*
Y016836D01*
Y017072D01*
X042989D01*
X043461Y017308D02*
X043776D01*
X043619D01*
Y016836D01*
X043934Y017308D02*
X044091D01*
X044012D01*
Y016836D01*
X043934D01*
X044091D01*
X044327Y017308D02*
Y016993D01*
X044485Y016836D01*
X044642Y016993D01*
Y017308D01*
X045114D02*
X044800D01*
Y016836D01*
X045114D01*
X044800Y017072D02*
X044957D01*
X045272Y016836D02*
X045429Y016993D01*
Y017150D01*
X045272Y017308D01*
X035118Y016363D02*
Y015891D01*
X035354D01*
X035432Y015969D01*
Y016284D01*
X035354Y016363D01*
X035118D01*
X035590Y015891D02*
X035747D01*
X035669D01*
Y016206D01*
X035590D01*
X036220Y015891D02*
X036062D01*
X035983Y015969D01*
Y016127D01*
X036062Y016206D01*
X036220D01*
X036298Y016127D01*
Y016048D01*
X035983D01*
X036456Y015891D02*
X036613D01*
X036534D01*
Y016363D01*
X036456D01*
X037085Y015891D02*
X036928D01*
X036849Y015969D01*
Y016127D01*
X036928Y016206D01*
X037085D01*
X037164Y016127D01*
Y016048D01*
X036849D01*
X037636Y016206D02*
X037400D01*
X037322Y016127D01*
Y015969D01*
X037400Y015891D01*
X037636D01*
X037873Y016284D02*
Y016206D01*
X037794D01*
X037951D01*
X037873D01*
Y015969D01*
X037951Y015891D01*
X038187Y016206D02*
Y015891D01*
Y016048D01*
X038266Y016127D01*
X038345Y016206D01*
X038424D01*
X038660Y015891D02*
X038817D01*
X038739D01*
Y016206D01*
X038660D01*
X039368D02*
X039132D01*
X039053Y016127D01*
Y015969D01*
X039132Y015891D01*
X039368D01*
X039998Y016284D02*
X040077Y016363D01*
X040234D01*
X040313Y016284D01*
Y016206D01*
X040234Y016127D01*
X040155D01*
X040234D01*
X040313Y016048D01*
Y015969D01*
X040234Y015891D01*
X040077D01*
X039998Y015969D01*
X035118Y014946D02*
Y015418D01*
X035354D01*
X035432Y015339D01*
Y015182D01*
X035354Y015103D01*
X035118D01*
X035669Y014946D02*
X035826D01*
X035905Y015025D01*
Y015182D01*
X035826Y015261D01*
X035669D01*
X035590Y015182D01*
Y015025D01*
X035669Y014946D01*
X036062Y015261D02*
Y015025D01*
X036141Y014946D01*
X036220Y015025D01*
X036298Y014946D01*
X036377Y015025D01*
Y015261D01*
X036771Y014946D02*
X036613D01*
X036534Y015025D01*
Y015182D01*
X036613Y015261D01*
X036771D01*
X036849Y015182D01*
Y015103D01*
X036534D01*
X037007Y015261D02*
Y014946D01*
Y015103D01*
X037085Y015182D01*
X037164Y015261D01*
X037243D01*
X037951Y014946D02*
Y015418D01*
X038187D01*
X038266Y015339D01*
Y015182D01*
X038187Y015103D01*
X037951D01*
X038424Y014946D02*
X038581D01*
X038502D01*
Y015418D01*
X038424D01*
X038896Y015261D02*
X039053D01*
X039132Y015182D01*
Y014946D01*
X038896D01*
X038817Y015025D01*
X038896Y015103D01*
X039132D01*
X039290Y014946D02*
Y015261D01*
X039526D01*
X039604Y015182D01*
Y014946D01*
X039998D02*
X039841D01*
X039762Y015025D01*
Y015182D01*
X039841Y015261D01*
X039998D01*
X040077Y015182D01*
Y015103D01*
X039762D01*
X040864Y014946D02*
X040706Y015103D01*
Y015261D01*
X040864Y015418D01*
X041100Y014946D02*
Y015418D01*
X041415Y014946D01*
Y015418D01*
X041887D02*
X041572D01*
Y014946D01*
X041887D01*
X041572Y015182D02*
X041730D01*
X042359Y015339D02*
X042281Y015418D01*
X042123D01*
X042045Y015339D01*
Y015025D01*
X042123Y014946D01*
X042281D01*
X042359Y015025D01*
Y015182D01*
X042202D01*
X042517Y014946D02*
Y015261D01*
X042674Y015418D01*
X042832Y015261D01*
Y014946D01*
Y015182D01*
X042517D01*
X042989Y015418D02*
X043304D01*
X043147D01*
Y014946D01*
X043461Y015418D02*
X043619D01*
X043540D01*
Y014946D01*
X043461D01*
X043619D01*
X043855Y015418D02*
Y015103D01*
X044012Y014946D01*
X044170Y015103D01*
Y015418D01*
X044642D02*
X044327D01*
Y014946D01*
X044642D01*
X044327Y015182D02*
X044485D01*
X044800Y014946D02*
X044957Y015103D01*
Y015261D01*
X044800Y015418D01*
X035118Y014473D02*
Y014001D01*
X035354D01*
X035432Y014080D01*
Y014395D01*
X035354Y014473D01*
X035118D01*
X035590Y014001D02*
X035747D01*
X035669D01*
Y014316D01*
X035590D01*
X036220Y014001D02*
X036062D01*
X035983Y014080D01*
Y014237D01*
X036062Y014316D01*
X036220D01*
X036298Y014237D01*
Y014158D01*
X035983D01*
X036456Y014001D02*
X036613D01*
X036534D01*
Y014473D01*
X036456D01*
X037085Y014001D02*
X036928D01*
X036849Y014080D01*
Y014237D01*
X036928Y014316D01*
X037085D01*
X037164Y014237D01*
Y014158D01*
X036849D01*
X037636Y014316D02*
X037400D01*
X037322Y014237D01*
Y014080D01*
X037400Y014001D01*
X037636D01*
X037873Y014395D02*
Y014316D01*
X037794D01*
X037951D01*
X037873D01*
Y014080D01*
X037951Y014001D01*
X038187Y014316D02*
Y014001D01*
Y014158D01*
X038266Y014237D01*
X038345Y014316D01*
X038424D01*
X038660Y014001D02*
X038817D01*
X038739D01*
Y014316D01*
X038660D01*
X039368D02*
X039132D01*
X039053Y014237D01*
Y014080D01*
X039132Y014001D01*
X039368D01*
X040234D02*
Y014473D01*
X039998Y014237D01*
X040313D01*
X035118Y013528D02*
Y013056D01*
X035354D01*
X035432Y013135D01*
Y013214D01*
X035354Y013292D01*
X035118D01*
X035354D01*
X035432Y013371D01*
Y013450D01*
X035354Y013528D01*
X035118D01*
X035669Y013056D02*
X035826D01*
X035905Y013135D01*
Y013292D01*
X035826Y013371D01*
X035669D01*
X035590Y013292D01*
Y013135D01*
X035669Y013056D01*
X036141Y013450D02*
Y013371D01*
X036062D01*
X036220D01*
X036141D01*
Y013135D01*
X036220Y013056D01*
X036534Y013450D02*
Y013371D01*
X036456D01*
X036613D01*
X036534D01*
Y013135D01*
X036613Y013056D01*
X036928D02*
X037085D01*
X037164Y013135D01*
Y013292D01*
X037085Y013371D01*
X036928D01*
X036849Y013292D01*
Y013135D01*
X036928Y013056D01*
X037322D02*
Y013371D01*
X037400D01*
X037479Y013292D01*
Y013056D01*
Y013292D01*
X037558Y013371D01*
X037636Y013292D01*
Y013056D01*
X038266Y013528D02*
Y013056D01*
X038581D01*
X038817Y013371D02*
X038975D01*
X039053Y013292D01*
Y013056D01*
X038817D01*
X038738Y013135D01*
X038817Y013214D01*
X039053D01*
X039211Y013371D02*
Y013135D01*
X039290Y013056D01*
X039526D01*
Y012977D01*
X039447Y012899D01*
X039368D01*
X039526Y013056D02*
Y013371D01*
X039919Y013056D02*
X039762D01*
X039683Y013135D01*
Y013292D01*
X039762Y013371D01*
X039919D01*
X039998Y013292D01*
Y013214D01*
X039683D01*
X040155Y013371D02*
Y013056D01*
Y013214D01*
X040234Y013292D01*
X040313Y013371D01*
X040392D01*
X035118Y012584D02*
Y012111D01*
X035354D01*
X035432Y012190D01*
Y012269D01*
X035354Y012347D01*
X035118D01*
X035354D01*
X035432Y012426D01*
Y012505D01*
X035354Y012584D01*
X035118D01*
X035669Y012111D02*
X035826D01*
X035905Y012190D01*
Y012347D01*
X035826Y012426D01*
X035669D01*
X035590Y012347D01*
Y012190D01*
X035669Y012111D01*
X036141Y012505D02*
Y012426D01*
X036062D01*
X036220D01*
X036141D01*
Y012190D01*
X036220Y012111D01*
X036534Y012505D02*
Y012426D01*
X036456D01*
X036613D01*
X036534D01*
Y012190D01*
X036613Y012111D01*
X036928D02*
X037085D01*
X037164Y012190D01*
Y012347D01*
X037085Y012426D01*
X036928D01*
X036849Y012347D01*
Y012190D01*
X036928Y012111D01*
X037322D02*
Y012426D01*
X037400D01*
X037479Y012347D01*
Y012111D01*
Y012347D01*
X037558Y012426D01*
X037636Y012347D01*
Y012111D01*
X038581Y012505D02*
X038502Y012584D01*
X038345D01*
X038266Y012505D01*
Y012426D01*
X038345Y012347D01*
X038502D01*
X038581Y012269D01*
Y012190D01*
X038502Y012111D01*
X038345D01*
X038266Y012190D01*
X038817Y012111D02*
X038975D01*
X039053Y012190D01*
Y012347D01*
X038975Y012426D01*
X038817D01*
X038738Y012347D01*
Y012190D01*
X038817Y012111D01*
X039211D02*
X039368D01*
X039290D01*
Y012584D01*
X039211D01*
X039919D02*
Y012111D01*
X039683D01*
X039604Y012190D01*
Y012347D01*
X039683Y012426D01*
X039919D01*
X040313Y012111D02*
X040155D01*
X040077Y012190D01*
Y012347D01*
X040155Y012426D01*
X040313D01*
X040392Y012347D01*
Y012269D01*
X040077D01*
X040549Y012426D02*
Y012111D01*
Y012269D01*
X040628Y012347D01*
X040706Y012426D01*
X040785D01*
X035118Y021560D02*
Y022032D01*
X035432Y021560D01*
Y022032D01*
X035669Y021875D02*
X035826D01*
X035905Y021796D01*
Y021560D01*
X035669D01*
X035590Y021639D01*
X035669Y021717D01*
X035905D01*
X036062Y021560D02*
Y021875D01*
X036141D01*
X036220Y021796D01*
Y021560D01*
Y021796D01*
X036298Y021875D01*
X036377Y021796D01*
Y021560D01*
X036771D02*
X036613D01*
X036534Y021639D01*
Y021796D01*
X036613Y021875D01*
X036771D01*
X036849Y021796D01*
Y021717D01*
X036534D01*
X031847Y020615D02*
X032005D01*
X031926D01*
Y021087D01*
X031847Y021009D01*
X032162Y019670D02*
X031847D01*
X032162Y019985D01*
Y020064D01*
X032084Y020143D01*
X031926D01*
X031847Y020064D01*
Y019119D02*
X031926Y019198D01*
X032084D01*
X032162Y019119D01*
Y019040D01*
X032084Y018962D01*
X032005D01*
X032084D01*
X032162Y018883D01*
Y018804D01*
X032084Y018725D01*
X031926D01*
X031847Y018804D01*
X032084Y017781D02*
Y018253D01*
X031847Y018017D01*
X032162D01*
Y017308D02*
X031847D01*
Y017072D01*
X032005Y017150D01*
X032084D01*
X032162Y017072D01*
Y016914D01*
X032084Y016836D01*
X031926D01*
X031847Y016914D01*
X032162Y016363D02*
X032005Y016284D01*
X031847Y016127D01*
Y015969D01*
X031926Y015891D01*
X032084D01*
X032162Y015969D01*
Y016048D01*
X032084Y016127D01*
X031847D01*
Y015418D02*
X032162D01*
Y015339D01*
X031847Y015025D01*
Y014946D01*
Y014395D02*
X031926Y014473D01*
X032084D01*
X032162Y014395D01*
Y014316D01*
X032084Y014237D01*
X032162Y014158D01*
Y014080D01*
X032084Y014001D01*
X031926D01*
X031847Y014080D01*
Y014158D01*
X031926Y014237D01*
X031847Y014316D01*
Y014395D01*
X031926Y014237D02*
X032084D01*
X031847Y013135D02*
X031926Y013056D01*
X032084D01*
X032162Y013135D01*
Y013450D01*
X032084Y013528D01*
X031926D01*
X031847Y013450D01*
Y013371D01*
X031926Y013292D01*
X032162D01*
X031847Y012111D02*
X032005D01*
X031926D01*
Y012584D01*
X031847Y012505D01*
X032241D02*
X032320Y012584D01*
X032477D01*
X032556Y012505D01*
Y012190D01*
X032477Y012111D01*
X032320D01*
X032241Y012190D01*
Y012505D01*
X031847Y022032D02*
Y021560D01*
X032162D01*
X032398Y021875D02*
X032556D01*
X032635Y021796D01*
Y021560D01*
X032398D01*
X032320Y021639D01*
X032398Y021717D01*
X032635D01*
X032792Y021875D02*
Y021639D01*
X032871Y021560D01*
X033107D01*
Y021481D01*
X033028Y021403D01*
X032949D01*
X033107Y021560D02*
Y021875D01*
X033500Y021560D02*
X033343D01*
X033264Y021639D01*
Y021796D01*
X033343Y021875D01*
X033500D01*
X033579Y021796D01*
Y021717D01*
X033264D01*
X033737Y021875D02*
Y021560D01*
Y021717D01*
X033815Y021796D01*
X033894Y021875D01*
X033973D01*
D37*
X071462Y011875D02*
Y022269D01*
X062603Y020379D02*
X071462D01*
X062603Y019434D02*
X071462D01*
X062603Y018489D02*
X071462D01*
X062603Y017544D02*
X071462D01*
X062603Y016599D02*
X071462D01*
X062603Y015655D02*
X071462D01*
X062603Y014710D02*
X071462D01*
X062603Y013765D02*
X071462D01*
X062603Y012820D02*
X071462D01*
X062603Y011875D02*
X071462D01*
X062603D02*
Y022269D01*
X058073Y020379D02*
X062603D01*
X058073Y019434D02*
X062603D01*
X058073Y018489D02*
X062603D01*
X058073Y017544D02*
X062603D01*
X058073Y016599D02*
X062603D01*
X058073Y015655D02*
X062603D01*
X058073Y014710D02*
X062603D01*
X058073Y013765D02*
X062603D01*
X058073Y012820D02*
X062603D01*
X058073Y011875D02*
X062603D01*
X058073D02*
Y022269D01*
X052914Y020379D02*
X058073D01*
X052914Y019434D02*
X058073D01*
X052914Y018489D02*
X058073D01*
X052914Y017544D02*
X058073D01*
X052914Y016599D02*
X058073D01*
X052914Y015655D02*
X058073D01*
X052914Y014710D02*
X058073D01*
X052914Y013765D02*
X058073D01*
X052914Y012820D02*
X058073D01*
X052914Y011875D02*
X058073D01*
X052914D02*
Y022269D01*
X046102Y020379D02*
X052914D01*
X046102Y019434D02*
X052914D01*
X046102Y018489D02*
X052914D01*
X046102Y017544D02*
X052914D01*
X046102Y016599D02*
X052914D01*
X046102Y015655D02*
X052914D01*
X046102Y014710D02*
X052914D01*
X046102Y013765D02*
X052914D01*
X046102Y012820D02*
X052914D01*
X046102Y011875D02*
X052914D01*
X046102D02*
Y022269D01*
X034645Y020379D02*
X046102D01*
X034645Y019434D02*
X046102D01*
X034645Y018489D02*
X046102D01*
X034645Y017544D02*
X046102D01*
X034645Y016599D02*
X046102D01*
X034645Y015655D02*
X046102D01*
X034645Y014710D02*
X046102D01*
X034645Y013765D02*
X046102D01*
X034645Y012820D02*
X046102D01*
X034645Y011875D02*
X046102D01*
X034645D02*
Y022269D01*
X031375Y020379D02*
X034645D01*
X031375Y019434D02*
X034645D01*
X031375Y018489D02*
X034645D01*
X031375Y017544D02*
X034645D01*
X031375Y016599D02*
X034645D01*
X031375Y015655D02*
X034645D01*
X031375Y014710D02*
X034645D01*
X031375Y013765D02*
X034645D01*
X031375Y012820D02*
X034645D01*
X031375Y011875D02*
X034645D01*
X031375D02*
Y022269D01*
X071462D01*
X031375Y021324D02*
X071462D01*
D84*
X062603Y020969D02*
X062958Y021324D01*
X062603Y020496D02*
X063430Y021324D01*
X062958Y020379D02*
X063903Y021324D01*
X063430Y020379D02*
X064375Y021324D01*
X063903Y020379D02*
X064848Y021324D01*
X064375Y020379D02*
X065320Y021324D01*
X064848Y020379D02*
X065793Y021324D01*
X065320Y020379D02*
X066265Y021324D01*
X065793Y020379D02*
X066737Y021324D01*
X066265Y020379D02*
X067210Y021324D01*
X066737Y020379D02*
X067682Y021324D01*
X067210Y020379D02*
X068155Y021324D01*
X067682Y020379D02*
X068627Y021324D01*
X068155Y020379D02*
X069100Y021324D01*
X068627Y020379D02*
X069572Y021324D01*
X069100Y020379D02*
X070045Y021324D01*
X069572Y020379D02*
X070517Y021324D01*
X070045Y020379D02*
X070989Y021324D01*
X070517Y020379D02*
X071462Y021324D01*
X070989Y020379D02*
X071462Y020851D01*
X062603Y020024D02*
X062958Y020379D01*
X062603Y019552D02*
X063430Y020379D01*
X062958Y019434D02*
X063903Y020379D01*
X063430Y019434D02*
X064375Y020379D01*
X063903Y019434D02*
X064848Y020379D01*
X064375Y019434D02*
X065320Y020379D01*
X064848Y019434D02*
X065793Y020379D01*
X065320Y019434D02*
X066265Y020379D01*
X065793Y019434D02*
X066737Y020379D01*
X066265Y019434D02*
X067210Y020379D01*
X066737Y019434D02*
X067682Y020379D01*
X067210Y019434D02*
X068155Y020379D01*
X067682Y019434D02*
X068627Y020379D01*
X068155Y019434D02*
X069100Y020379D01*
X068627Y019434D02*
X069572Y020379D01*
X069100Y019434D02*
X070045Y020379D01*
X069572Y019434D02*
X070517Y020379D01*
X070045Y019434D02*
X070989Y020379D01*
X070517Y019434D02*
X071462Y020379D01*
X070989Y019434D02*
X071462Y019906D01*
X062603Y019079D02*
X062958Y019434D01*
X062603Y018607D02*
X063430Y019434D01*
X062958Y018489D02*
X063903Y019434D01*
X063430Y018489D02*
X064375Y019434D01*
X063903Y018489D02*
X064848Y019434D01*
X064375Y018489D02*
X065320Y019434D01*
X064848Y018489D02*
X065793Y019434D01*
X065320Y018489D02*
X066265Y019434D01*
X065793Y018489D02*
X066737Y019434D01*
X066265Y018489D02*
X067210Y019434D01*
X066737Y018489D02*
X067682Y019434D01*
X067210Y018489D02*
X068155Y019434D01*
X067682Y018489D02*
X068627Y019434D01*
X068155Y018489D02*
X069100Y019434D01*
X068627Y018489D02*
X069572Y019434D01*
X069100Y018489D02*
X070045Y019434D01*
X069572Y018489D02*
X070517Y019434D01*
X070045Y018489D02*
X070989Y019434D01*
X070517Y018489D02*
X071462Y019434D01*
X070989Y018489D02*
X071462Y018962D01*
X062603Y018134D02*
X062958Y018489D01*
X062603Y017662D02*
X063430Y018489D01*
X062958Y017544D02*
X063903Y018489D01*
X063430Y017544D02*
X064375Y018489D01*
X063903Y017544D02*
X064848Y018489D01*
X064375Y017544D02*
X065320Y018489D01*
X064848Y017544D02*
X065793Y018489D01*
X065320Y017544D02*
X066265Y018489D01*
X065793Y017544D02*
X066737Y018489D01*
X066265Y017544D02*
X067210Y018489D01*
X066737Y017544D02*
X067682Y018489D01*
X067210Y017544D02*
X068155Y018489D01*
X067682Y017544D02*
X068627Y018489D01*
X068155Y017544D02*
X069100Y018489D01*
X068627Y017544D02*
X069572Y018489D01*
X069100Y017544D02*
X070045Y018489D01*
X069572Y017544D02*
X070517Y018489D01*
X070045Y017544D02*
X070989Y018489D01*
X070517Y017544D02*
X071462Y018489D01*
X070989Y017544D02*
X071462Y018017D01*
X062603Y017189D02*
X062958Y017544D01*
X062603Y016717D02*
X063430Y017544D01*
X062958Y016599D02*
X063903Y017544D01*
X063430Y016599D02*
X064375Y017544D01*
X063903Y016599D02*
X064848Y017544D01*
X064375Y016599D02*
X065320Y017544D01*
X064848Y016599D02*
X065793Y017544D01*
X065320Y016599D02*
X066265Y017544D01*
X065793Y016599D02*
X066737Y017544D01*
X066265Y016599D02*
X067210Y017544D01*
X066737Y016599D02*
X067682Y017544D01*
X067210Y016599D02*
X068155Y017544D01*
X067682Y016599D02*
X068627Y017544D01*
X068155Y016599D02*
X069100Y017544D01*
X068627Y016599D02*
X069572Y017544D01*
X069100Y016599D02*
X070045Y017544D01*
X069572Y016599D02*
X070517Y017544D01*
X070045Y016599D02*
X070989Y017544D01*
X070517Y016599D02*
X071462Y017544D01*
X070989Y016599D02*
X071462Y017072D01*
X062603Y016244D02*
X062958Y016599D01*
X062603Y015772D02*
X063430Y016599D01*
X062958Y015655D02*
X063903Y016599D01*
X063430Y015655D02*
X064375Y016599D01*
X063903Y015655D02*
X064848Y016599D01*
X064375Y015655D02*
X065320Y016599D01*
X064848Y015655D02*
X065793Y016599D01*
X065320Y015655D02*
X066265Y016599D01*
X065793Y015655D02*
X066737Y016599D01*
X066265Y015655D02*
X067210Y016599D01*
X066737Y015655D02*
X067682Y016599D01*
X067210Y015655D02*
X068155Y016599D01*
X067682Y015655D02*
X068627Y016599D01*
X068155Y015655D02*
X069100Y016599D01*
X068627Y015655D02*
X069572Y016599D01*
X069100Y015655D02*
X070045Y016599D01*
X069572Y015655D02*
X070517Y016599D01*
X070045Y015655D02*
X070989Y016599D01*
X070517Y015655D02*
X071462Y016599D01*
X070989Y015655D02*
X071462Y016127D01*
X062603Y015300D02*
X062958Y015655D01*
X062603Y014827D02*
X063430Y015655D01*
X062958Y014710D02*
X063903Y015655D01*
X063430Y014710D02*
X064375Y015655D01*
X063903Y014710D02*
X064848Y015655D01*
X064375Y014710D02*
X065320Y015655D01*
X064848Y014710D02*
X065793Y015655D01*
X065320Y014710D02*
X066265Y015655D01*
X065793Y014710D02*
X066737Y015655D01*
X066265Y014710D02*
X067210Y015655D01*
X066737Y014710D02*
X067682Y015655D01*
X067210Y014710D02*
X068155Y015655D01*
X067682Y014710D02*
X068627Y015655D01*
X068155Y014710D02*
X069100Y015655D01*
X068627Y014710D02*
X069572Y015655D01*
X069100Y014710D02*
X070045Y015655D01*
X069572Y014710D02*
X070517Y015655D01*
X070045Y014710D02*
X070989Y015655D01*
X070517Y014710D02*
X071462Y015655D01*
X070989Y014710D02*
X071462Y015182D01*
X062603Y014355D02*
X062958Y014710D01*
X062603Y013882D02*
X063430Y014710D01*
X062958Y013765D02*
X063903Y014710D01*
X063430Y013765D02*
X064375Y014710D01*
X063903Y013765D02*
X064848Y014710D01*
X064375Y013765D02*
X065320Y014710D01*
X064848Y013765D02*
X065793Y014710D01*
X065320Y013765D02*
X066265Y014710D01*
X065793Y013765D02*
X066737Y014710D01*
X066265Y013765D02*
X067210Y014710D01*
X066737Y013765D02*
X067682Y014710D01*
X067210Y013765D02*
X068155Y014710D01*
X067682Y013765D02*
X068627Y014710D01*
X068155Y013765D02*
X069100Y014710D01*
X068627Y013765D02*
X069572Y014710D01*
X069100Y013765D02*
X070045Y014710D01*
X069572Y013765D02*
X070517Y014710D01*
X070045Y013765D02*
X070989Y014710D01*
X070517Y013765D02*
X071462Y014710D01*
X070989Y013765D02*
X071462Y014237D01*
X062603Y013410D02*
X062958Y013765D01*
X062603Y012937D02*
X063430Y013765D01*
X062958Y012820D02*
X063903Y013765D01*
X063430Y012820D02*
X064375Y013765D01*
X063903Y012820D02*
X064848Y013765D01*
X064375Y012820D02*
X065320Y013765D01*
X064848Y012820D02*
X065793Y013765D01*
X065320Y012820D02*
X066265Y013765D01*
X065793Y012820D02*
X066737Y013765D01*
X066265Y012820D02*
X067210Y013765D01*
X066737Y012820D02*
X067682Y013765D01*
X067210Y012820D02*
X068155Y013765D01*
X067682Y012820D02*
X068627Y013765D01*
X068155Y012820D02*
X069100Y013765D01*
X068627Y012820D02*
X069572Y013765D01*
X069100Y012820D02*
X070045Y013765D01*
X069572Y012820D02*
X070517Y013765D01*
X070045Y012820D02*
X070989Y013765D01*
X070517Y012820D02*
X071462Y013765D01*
X070989Y012820D02*
X071462Y013292D01*
X062603Y012465D02*
X062958Y012820D01*
X062603Y011992D02*
X063430Y012820D01*
X062958Y011875D02*
X063903Y012820D01*
X063430Y011875D02*
X064375Y012820D01*
X063903Y011875D02*
X064848Y012820D01*
X064375Y011875D02*
X065320Y012820D01*
X064848Y011875D02*
X065793Y012820D01*
X065320Y011875D02*
X066265Y012820D01*
X065793Y011875D02*
X066737Y012820D01*
X066265Y011875D02*
X067210Y012820D01*
X066737Y011875D02*
X067682Y012820D01*
X067210Y011875D02*
X068155Y012820D01*
X067682Y011875D02*
X068627Y012820D01*
X068155Y011875D02*
X069100Y012820D01*
X068627Y011875D02*
X069572Y012820D01*
X069100Y011875D02*
X070045Y012820D01*
X069572Y011875D02*
X070517Y012820D01*
X070045Y011875D02*
X070989Y012820D01*
X070517Y011875D02*
X071462Y012820D01*
X070989Y011875D02*
X071462Y012347D01*
M02*
