G04 Layer_Physical_Order=4*
G04 Layer_Color=16711680*
%FSAX24Y24*%
%MOIN*%
G70*
G01*
G75*
%ADD33C,0.0070*%
%ADD34C,0.0250*%
%ADD35C,0.0100*%
%ADD39C,0.0354*%
%ADD40C,0.1500*%
%ADD41C,0.0315*%
%ADD42C,0.0394*%
%ADD43C,0.0630*%
D33*
X021040Y016080D02*
X021190D01*
X020580Y017070D02*
Y017095D01*
X021108Y018279D02*
X021786Y017600D01*
X021108Y018279D02*
Y019542D01*
X020310Y020340D02*
X021108Y019542D01*
X016920Y017180D02*
X017360Y017620D01*
X013850Y017000D02*
X017200D01*
X017370Y017170D01*
X012550Y018300D02*
X013850Y017000D01*
X015870Y019900D02*
X016829D01*
X017949Y018780D01*
X020060Y020340D02*
X020310D01*
X021786Y017600D02*
X022020D01*
X021190Y016080D02*
X022367Y017257D01*
Y017264D01*
X022521Y017417D01*
X022527D01*
X022770Y017660D01*
Y018033D01*
X022453Y018350D02*
X022770Y018033D01*
X022453Y017593D02*
Y017850D01*
X021520Y016660D02*
X022453Y017593D01*
X020330Y016660D02*
X021520D01*
X026172Y015112D02*
X027020Y015960D01*
X019538Y015112D02*
X026172D01*
X025050Y015280D02*
X026690Y016920D01*
X019810Y015280D02*
X025050D01*
X019450Y015640D02*
X019810Y015280D01*
X019040Y015610D02*
X019538Y015112D01*
X019450Y015640D02*
Y016630D01*
X019040Y015610D02*
Y016630D01*
X017949Y018780D02*
X018760D01*
X024890Y016740D02*
X025130Y016980D01*
X022620Y016740D02*
X024890D01*
X022630Y017155D02*
Y017220D01*
X022652Y017242D01*
X014345Y017180D02*
X016920D01*
X013297Y018228D02*
X014345Y017180D01*
X012550Y018300D02*
Y018690D01*
X013297Y018228D02*
Y018663D01*
X026690Y016920D02*
X027200D01*
X027020Y015960D02*
Y016630D01*
X026040Y017330D02*
X028370D01*
X025040Y016330D02*
X026040Y017330D01*
X025040Y016310D02*
Y016330D01*
X025392Y017242D02*
X025410Y017260D01*
X025520Y016340D02*
X026310Y017130D01*
X028180D01*
X028370Y016940D01*
X027650Y015880D02*
Y016470D01*
X027200Y016920D02*
X027650Y016470D01*
X022652Y017242D02*
X025392D01*
X018600Y020550D02*
X020378Y018772D01*
X020580Y017863D02*
Y017889D01*
X020098Y017975D02*
X020580Y017492D01*
Y017467D02*
Y017492D01*
X015480Y020510D02*
X015791Y020199D01*
X019958Y017718D02*
X020580Y017095D01*
X020238Y018231D02*
X020580Y017889D01*
X020378Y018462D02*
Y018772D01*
Y018462D02*
X020580Y018260D01*
X015791Y020199D02*
X017010D01*
X018019Y019190D01*
X016100Y020530D02*
X017480D01*
X018480Y019530D01*
X019211Y019190D02*
X019958Y018444D01*
X018019Y019190D02*
X019211D01*
X019958Y017718D02*
Y018444D01*
X018480Y019530D02*
X019110D01*
X020098Y018542D01*
Y017975D02*
Y018542D01*
X018602Y020288D02*
X020238Y018652D01*
Y018231D02*
Y018652D01*
X018040Y020610D02*
X018362Y020288D01*
X018602D01*
D34*
X025078Y021070D02*
X027008Y019140D01*
X020986Y021070D02*
X025078D01*
X027008Y019140D02*
X027390D01*
X020520Y020599D02*
Y020604D01*
X020986Y021070D01*
X013090Y020506D02*
Y020599D01*
X027910Y014680D02*
X029020Y015790D01*
X027910Y013760D02*
Y014680D01*
Y013760D02*
X028540Y013130D01*
X027390Y019140D02*
X029020Y017510D01*
Y015790D02*
Y017510D01*
X027390Y019140D02*
Y020589D01*
X026798Y013108D02*
X028518D01*
X026000Y012310D02*
X026798Y013108D01*
X019810Y012310D02*
X026000D01*
X019140Y012980D02*
X019810Y012310D01*
X016710Y012980D02*
X019140D01*
X028518Y013108D02*
X028540Y013130D01*
X013090Y020506D02*
X014146Y019450D01*
X016110D01*
X017906Y015866D02*
Y017654D01*
X016720Y014680D02*
X017906Y015866D01*
X016110Y019450D02*
X017906Y017654D01*
D35*
X025600Y013460D02*
X026200D01*
X028710Y015970D01*
X018870Y018460D02*
X019220Y018810D01*
X017906Y017654D02*
Y018196D01*
X018170Y018460D02*
X018870D01*
X017906Y018196D02*
X018170Y018460D01*
X018910Y020890D02*
X019310Y020490D01*
X012100Y020790D02*
X012390Y021080D01*
X019250D02*
X019530Y020800D01*
X012690Y020890D02*
X014951D01*
X012590Y020790D02*
X012690Y020890D01*
X014920Y020859D02*
X014951Y020890D01*
X014920Y020160D02*
Y020859D01*
Y020160D02*
X015210Y019870D01*
X026390Y021503D02*
X028147D01*
X020233D02*
X026390D01*
Y020810D02*
Y021503D01*
X025377Y021333D02*
X026250Y020460D01*
X020573Y021333D02*
X025377D01*
X020030Y020790D02*
X020573Y021333D01*
X019530Y020800D02*
X020233Y021503D01*
X028147D02*
X028810Y020840D01*
X014097Y019050D02*
X015190D01*
X012635Y020513D02*
X014097Y019050D01*
X029320Y014990D02*
Y017600D01*
X027796Y019124D02*
X029320Y017600D01*
X027796Y019124D02*
Y019974D01*
X029490Y014700D02*
Y018250D01*
X028340Y019400D02*
X029490Y018250D01*
X028340Y019400D02*
Y020020D01*
X028410Y020090D01*
X025440Y017690D02*
X028402D01*
X028710Y017382D01*
Y015970D02*
Y017382D01*
X028730Y013580D02*
X028870D01*
X028603Y013707D02*
X028730Y013580D01*
X028603Y013707D02*
Y014273D01*
X028880Y014090D02*
X029490Y014700D01*
X028603Y014273D02*
X029320Y014990D01*
X027790Y019980D02*
X027796Y019974D01*
X028810Y020480D02*
Y020840D01*
X028410Y020090D02*
X028420D01*
X028810Y020480D01*
X026890Y020710D02*
Y020800D01*
X026640Y020460D02*
X026890Y020710D01*
X012137Y020513D02*
X012635D01*
X012100Y020550D02*
X012137Y020513D01*
X026250Y020460D02*
X026640D01*
X019730Y020490D02*
X020030Y020790D01*
X019310Y020490D02*
X019730D01*
X012100Y020550D02*
Y020790D01*
X025420Y017670D02*
X025440Y017690D01*
X012390Y021080D02*
X019250D01*
X014951Y020890D02*
X018910D01*
D39*
X022020Y018600D02*
D03*
Y018100D02*
D03*
Y017600D02*
D03*
X022453Y018350D02*
D03*
Y017850D02*
D03*
D40*
X022878Y013430D02*
D03*
X020910D02*
D03*
D41*
X019723Y013340D02*
D03*
X025600Y013460D02*
D03*
X025550Y013900D02*
D03*
X020580Y017070D02*
D03*
X019220Y018810D02*
D03*
X021370Y019570D02*
D03*
X017360Y017620D02*
D03*
X017370Y017170D02*
D03*
X016150Y017570D02*
D03*
X015870Y019900D02*
D03*
X020060Y020340D02*
D03*
X021040Y016060D02*
D03*
X020330Y016660D02*
D03*
X019040Y016630D02*
D03*
X019450D02*
D03*
X023010Y018720D02*
D03*
X016830Y018550D02*
D03*
X018760Y018780D02*
D03*
X016940Y019300D02*
D03*
X017920Y019660D02*
D03*
X022620Y016740D02*
D03*
X022630Y017155D02*
D03*
X023530Y020710D02*
D03*
X025130Y020140D02*
D03*
X015210Y019870D02*
D03*
X015190Y019050D02*
D03*
X028300Y019030D02*
D03*
X016710Y012980D02*
D03*
X027790Y019980D02*
D03*
X013090Y020599D02*
D03*
X012590Y020790D02*
D03*
X026390Y020810D02*
D03*
X026890Y020800D02*
D03*
X015620Y021370D02*
D03*
X019530Y020800D02*
D03*
X012100Y020550D02*
D03*
X020520Y020599D02*
D03*
X020030Y020790D02*
D03*
X027390Y020589D02*
D03*
X017340Y016560D02*
D03*
X013297Y018663D02*
D03*
X012550Y018690D02*
D03*
X015160Y017480D02*
D03*
X012950Y017110D02*
D03*
X017983Y012220D02*
D03*
X018443Y013800D02*
D03*
X017610D02*
D03*
X017193D02*
D03*
X018026D02*
D03*
X019670Y014850D02*
D03*
X028540Y013130D02*
D03*
X028870Y013580D02*
D03*
X028880Y014090D02*
D03*
X025520Y016340D02*
D03*
X028370Y017330D02*
D03*
X027030Y018050D02*
D03*
X026516Y016286D02*
D03*
X027650Y015880D02*
D03*
X027020Y016630D02*
D03*
X025090Y018290D02*
D03*
X028370Y016940D02*
D03*
X025420Y017670D02*
D03*
X028300Y014380D02*
D03*
X025410Y017260D02*
D03*
X025040Y016310D02*
D03*
X025130Y016980D02*
D03*
X025030Y017510D02*
D03*
X023860Y016210D02*
D03*
X022950Y015770D02*
D03*
X020640Y018650D02*
D03*
X018040Y020610D02*
D03*
X018600Y020550D02*
D03*
X016100Y020530D02*
D03*
X015480Y020510D02*
D03*
X020580Y017863D02*
D03*
Y017467D02*
D03*
Y018260D02*
D03*
X018090Y021360D02*
D03*
X016720Y014680D02*
D03*
D42*
X028540Y012110D02*
D03*
Y012610D02*
D03*
X014090Y020560D02*
D03*
X027900Y020550D02*
D03*
X013590Y020560D02*
D03*
X021530D02*
D03*
X021030D02*
D03*
X028390Y020550D02*
D03*
D43*
X012402Y019685D02*
D03*
X029134D02*
D03*
M02*
