G04*
G04 #@! TF.GenerationSoftware,Altium Limited,Altium Designer,18.0.12 (696)*
G04*
G04 Layer_Color=8388736*
%FSAX24Y24*%
%MOIN*%
G70*
G01*
G75*
%ADD18R,0.0434X0.0867*%
%ADD19R,0.0867X0.0434*%
%ADD20R,0.0513X0.0631*%
%ADD21R,0.0316X0.0434*%
%ADD22R,0.0434X0.0316*%
G04:AMPARAMS|DCode=23|XSize=51.2mil|YSize=19.7mil|CornerRadius=7.5mil|HoleSize=0mil|Usage=FLASHONLY|Rotation=0.000|XOffset=0mil|YOffset=0mil|HoleType=Round|Shape=RoundedRectangle|*
%AMROUNDEDRECTD23*
21,1,0.0512,0.0047,0,0,0.0*
21,1,0.0362,0.0197,0,0,0.0*
1,1,0.0150,0.0181,-0.0024*
1,1,0.0150,-0.0181,-0.0024*
1,1,0.0150,-0.0181,0.0024*
1,1,0.0150,0.0181,0.0024*
%
%ADD23ROUNDEDRECTD23*%
%ADD24R,0.0512X0.0197*%
%ADD25R,0.0671X0.0789*%
%ADD26R,0.0252X0.0921*%
%ADD27R,0.0291X0.0449*%
%ADD28R,0.0828X0.0690*%
%ADD29R,0.1143X0.0533*%
%ADD30O,0.0218X0.0789*%
G04:AMPARAMS|DCode=31|XSize=31.6mil|YSize=43.4mil|CornerRadius=0mil|HoleSize=0mil|Usage=FLASHONLY|Rotation=135.000|XOffset=0mil|YOffset=0mil|HoleType=Round|Shape=Rectangle|*
%AMROTATEDRECTD31*
4,1,4,0.0265,0.0042,-0.0042,-0.0265,-0.0265,-0.0042,0.0042,0.0265,0.0265,0.0042,0.0*
%
%ADD31ROTATEDRECTD31*%

%ADD32C,0.0434*%
%ADD33C,0.0710*%
G36*
X019321Y015827D02*
X018100D01*
Y016772D01*
X019321D01*
Y015827D01*
D02*
G37*
D18*
X017986Y018402D02*
D03*
X018486D02*
D03*
X019179Y018404D02*
D03*
X019679D02*
D03*
X021179D02*
D03*
X020679D02*
D03*
X020179D02*
D03*
X019179Y012305D02*
D03*
X019679D02*
D03*
X021179D02*
D03*
X020679D02*
D03*
X020179D02*
D03*
D19*
X012305Y016102D02*
D03*
Y015602D02*
D03*
Y014102D02*
D03*
Y014602D02*
D03*
Y015102D02*
D03*
Y016602D02*
D03*
D20*
X019943Y013096D02*
D03*
X020770D02*
D03*
D21*
X013116Y013447D02*
D03*
X012526D02*
D03*
X017344Y012585D02*
D03*
X016754D02*
D03*
X017341Y012089D02*
D03*
X016750D02*
D03*
X014148Y013437D02*
D03*
X013557D02*
D03*
X013547Y017142D02*
D03*
X014138D02*
D03*
X015996Y014978D02*
D03*
X016587D02*
D03*
X012537Y017142D02*
D03*
X013128D02*
D03*
X019447Y013012D02*
D03*
X018856D02*
D03*
X015134Y013390D02*
D03*
X014543D02*
D03*
X015138Y017140D02*
D03*
X014547D02*
D03*
D22*
X012096Y013039D02*
D03*
Y013630D02*
D03*
X017693Y013014D02*
D03*
Y013604D02*
D03*
X014963Y012994D02*
D03*
Y012404D02*
D03*
X012089Y012030D02*
D03*
Y012620D02*
D03*
X017041Y014421D02*
D03*
Y015012D02*
D03*
X017250Y015612D02*
D03*
Y016203D02*
D03*
X012096Y018077D02*
D03*
Y018667D02*
D03*
X017524Y014140D02*
D03*
Y014730D02*
D03*
X020400Y015195D02*
D03*
Y015785D02*
D03*
X014972Y018089D02*
D03*
Y018679D02*
D03*
X012091Y017075D02*
D03*
Y017665D02*
D03*
D23*
X012596Y012856D02*
D03*
X012614Y018472D02*
D03*
X020732Y013665D02*
D03*
D24*
X012596Y012600D02*
D03*
Y012344D02*
D03*
Y012089D02*
D03*
X014400D02*
D03*
Y012344D02*
D03*
Y012600D02*
D03*
Y012856D02*
D03*
X012614Y018217D02*
D03*
Y017961D02*
D03*
Y017705D02*
D03*
X014417D02*
D03*
Y017961D02*
D03*
Y018217D02*
D03*
Y018472D02*
D03*
X020732Y013921D02*
D03*
Y014177D02*
D03*
Y014433D02*
D03*
X018929D02*
D03*
Y014177D02*
D03*
Y013921D02*
D03*
Y013665D02*
D03*
D25*
X018305Y012291D02*
D03*
Y013374D02*
D03*
D26*
X017961Y015167D02*
D03*
X019461D02*
D03*
X018461D02*
D03*
X018961D02*
D03*
X017961Y017431D02*
D03*
X019461D02*
D03*
X018461D02*
D03*
X018961D02*
D03*
D27*
X016736Y016569D02*
D03*
X016362D02*
D03*
X015988D02*
D03*
X016736Y015506D02*
D03*
X016362D02*
D03*
X015988D02*
D03*
D28*
X017134Y018449D02*
D03*
Y017209D02*
D03*
D29*
X020386Y017614D02*
D03*
Y016433D02*
D03*
D30*
X013156Y014217D02*
D03*
X013411D02*
D03*
X013667D02*
D03*
X013923D02*
D03*
X014179D02*
D03*
X014435D02*
D03*
X014691D02*
D03*
X014947D02*
D03*
X015203D02*
D03*
X015459D02*
D03*
X013156Y016461D02*
D03*
X013411D02*
D03*
X013667D02*
D03*
X013923D02*
D03*
X014179D02*
D03*
X014435D02*
D03*
X014691D02*
D03*
X014947D02*
D03*
X015203D02*
D03*
X015459D02*
D03*
D31*
X015354Y017670D02*
D03*
X015772Y017252D02*
D03*
D32*
X015837Y013470D02*
D03*
X016337D02*
D03*
X016837D02*
D03*
X016087Y013904D02*
D03*
X016587D02*
D03*
D33*
X015945Y012402D02*
D03*
Y018307D02*
D03*
M02*
