M48
;Layer_Color=9474304
;FILE_FORMAT=2:4
INCH
;TYPE=PLATED
T1F00S00C0.0157
T2F00S00C0.0236
T3F00S00C0.0630
%
T01
X012264Y012061
X012582Y012991
X012550Y014101
X012552Y014599
X013667Y014637
X014949Y014705
X014752Y015000
X014431Y015264
X014344Y013431
X015837Y013470
X016337
X016837
X016587Y013904
X016087
X017756Y012561
X017754Y012213
X019000Y013201
X019455Y013209
X020091Y013720
X019994Y014596
X020348Y014449
X019486Y015246
X018984Y014998
X018496Y014789
X018711Y016043
X018199
Y016555
X018711
X019222
Y016043
X018461Y017431
X018459Y017722
X019177Y018154
X019673Y018150
X017388Y018341
X017104Y018352
X016734Y015697
X016319Y015939
X015535Y015837
X014941Y015902
X014108Y015778
X013661Y015799
X013411Y016040
X012555Y016107
X013040Y016721
X013047Y017528
X012261Y017961
X012102Y017227
X014335Y017146
X015142Y017374
X014413Y018563
T02
X018419Y013189
X019864Y012998
X020177Y012522
X020677Y012447
X020681Y012098
Y018270
X020679Y018620
X020175Y018191
T03
X015945Y012402
Y018307
M30
