G04*
G04 #@! TF.GenerationSoftware,Altium Limited,Altium Designer,18.0.12 (696)*
G04*
G04 Layer_Physical_Order=2*
G04 Layer_Color=16711680*
%FSAX24Y24*%
%MOIN*%
G70*
G01*
G75*
%ADD12C,0.0197*%
%ADD50C,0.0070*%
%ADD51C,0.0138*%
%ADD52C,0.0150*%
%ADD53C,0.0300*%
%ADD54C,0.0354*%
%ADD55C,0.0276*%
%ADD56C,0.0630*%
%ADD57C,0.0157*%
G36*
X021354Y011913D02*
X016497D01*
X016475Y011959D01*
X016522Y012016D01*
X016586Y012136D01*
X016626Y012266D01*
X016639Y012402D01*
X016626Y012537D01*
X016586Y012667D01*
X016522Y012787D01*
X016436Y012893D01*
X016331Y012979D01*
X016211Y013043D01*
X016080Y013083D01*
X015945Y013096D01*
X015809Y013083D01*
X015679Y013043D01*
X015559Y012979D01*
X015454Y012893D01*
X015368Y012787D01*
X015303Y012667D01*
X015264Y012537D01*
X015251Y012402D01*
X015264Y012266D01*
X015303Y012136D01*
X015368Y012016D01*
X015415Y011959D01*
X015393Y011913D01*
X011913D01*
Y018795D01*
X014297D01*
X014312Y018745D01*
X014264Y018713D01*
X014218Y018644D01*
X014202Y018563D01*
X014206Y018541D01*
X014204Y018538D01*
X014193Y018484D01*
Y017301D01*
X014185Y017295D01*
X014139Y017227D01*
X014123Y017146D01*
X014139Y017065D01*
X014185Y016996D01*
X014254Y016950D01*
X014335Y016934D01*
X014344Y016936D01*
X014975Y016305D01*
X014956Y016259D01*
X013714D01*
X013252Y016721D01*
X013252Y016721D01*
X013236Y016802D01*
X013190Y016871D01*
X013122Y016917D01*
X013040Y016933D01*
X012959Y016917D01*
X012949Y016910D01*
X012905Y016934D01*
Y017234D01*
X012997Y017326D01*
X013047Y017316D01*
X013128Y017332D01*
X013197Y017378D01*
X013243Y017446D01*
X013259Y017528D01*
X013243Y017609D01*
X013197Y017677D01*
X013128Y017723D01*
X013047Y017739D01*
X012966Y017723D01*
X012897Y017677D01*
X012852Y017609D01*
X012835Y017528D01*
X012845Y017477D01*
X012722Y017354D01*
X012712Y017339D01*
X012662Y017354D01*
Y017667D01*
X012654Y017708D01*
X012630Y017743D01*
X012463Y017910D01*
X012473Y017961D01*
X012457Y018042D01*
X012411Y018110D01*
X012342Y018156D01*
X012261Y018173D01*
X012180Y018156D01*
X012111Y018110D01*
X012066Y018042D01*
X012049Y017961D01*
X012066Y017880D01*
X012111Y017811D01*
X012180Y017765D01*
X012261Y017749D01*
X012312Y017759D01*
X012448Y017623D01*
Y016286D01*
X012405Y016257D01*
X012359Y016188D01*
X012343Y016107D01*
X012359Y016026D01*
X012405Y015957D01*
X012474Y015912D01*
X012555Y015895D01*
X012636Y015912D01*
X012705Y015957D01*
X012751Y016026D01*
X012767Y016107D01*
X012759Y016147D01*
X012805Y016172D01*
X013012Y015964D01*
X013047Y015941D01*
X013088Y015933D01*
X013233D01*
X013262Y015890D01*
X013330Y015844D01*
X013411Y015828D01*
X013452Y015785D01*
X013466Y015718D01*
X013512Y015649D01*
X013580Y015603D01*
X013661Y015587D01*
X013707Y015596D01*
X013848Y015455D01*
X013831Y015407D01*
X013830Y015405D01*
X013703D01*
X013649Y015395D01*
X013603Y015364D01*
X012552Y014313D01*
X012550Y014313D01*
X012469Y014297D01*
X012400Y014251D01*
X012355Y014182D01*
X012338Y014101D01*
X012355Y014020D01*
X012400Y013952D01*
X012469Y013906D01*
X012550Y013889D01*
X012631Y013906D01*
X012700Y013952D01*
X012746Y014020D01*
X012762Y014101D01*
X012759Y014119D01*
X013761Y015122D01*
X014276D01*
X014281Y015114D01*
X014350Y015068D01*
X014431Y015052D01*
X014502Y015066D01*
X014532Y015046D01*
X014546Y015030D01*
X014540Y015000D01*
X014556Y014919D01*
X014602Y014850D01*
X014671Y014804D01*
X014708Y014797D01*
X014751Y014786D01*
X014744Y014742D01*
X014737Y014705D01*
X014753Y014624D01*
X014799Y014555D01*
X014868Y014509D01*
X014949Y014493D01*
X015030Y014509D01*
X015099Y014555D01*
X015127Y014598D01*
X015325D01*
X015386Y014536D01*
X015421Y014513D01*
X015462Y014505D01*
X015462Y014505D01*
X017708D01*
X018568Y013645D01*
X018603Y013622D01*
X018644Y013613D01*
X018644Y013613D01*
X019861D01*
X019864Y013609D01*
X019836Y013559D01*
X019251D01*
X019210Y013550D01*
X019175Y013527D01*
X019050Y013403D01*
X019000Y013413D01*
X018919Y013397D01*
X018850Y013351D01*
X018804Y013282D01*
X018788Y013201D01*
X018804Y013120D01*
X018841Y013065D01*
X018830Y013021D01*
X018822Y013009D01*
X018811Y013007D01*
X018664Y013153D01*
X018671Y013189D01*
X018652Y013285D01*
X018597Y013367D01*
X018516Y013422D01*
X018419Y013441D01*
X018323Y013422D01*
X018241Y013367D01*
X018186Y013285D01*
X018167Y013189D01*
X018186Y013093D01*
X018241Y013011D01*
X018323Y012956D01*
X018419Y012937D01*
X018455Y012944D01*
X018665Y012734D01*
X018713Y012702D01*
X018770Y012691D01*
X019705D01*
X019761Y012702D01*
X019809Y012734D01*
X019828Y012753D01*
X019864Y012746D01*
X019961Y012765D01*
X020042Y012820D01*
X020097Y012902D01*
X020116Y012998D01*
X020097Y013094D01*
X020074Y013129D01*
X020097Y013173D01*
X020538D01*
X020579Y013181D01*
X020614Y013204D01*
X020696Y013287D01*
X020749Y013269D01*
X020752Y013243D01*
X020265Y012756D01*
X020177Y012774D01*
X020081Y012754D01*
X019999Y012700D01*
X019944Y012618D01*
X019925Y012522D01*
X019944Y012425D01*
X019999Y012343D01*
X020081Y012289D01*
X020177Y012270D01*
X020274Y012289D01*
X020355Y012343D01*
X020410Y012425D01*
X020424Y012497D01*
X021016Y013088D01*
X021048Y013136D01*
X021059Y013193D01*
Y017587D01*
X021048Y017643D01*
X021016Y017691D01*
X020655Y018052D01*
X020646Y018058D01*
X020469Y018235D01*
X020463Y018244D01*
X020412Y018295D01*
X020395Y018306D01*
X020353Y018369D01*
X020272Y018424D01*
X020175Y018443D01*
X020079Y018424D01*
X019997Y018369D01*
X019942Y018287D01*
X019926Y018203D01*
X019875D01*
X019869Y018231D01*
X019823Y018299D01*
X019754Y018345D01*
X019673Y018361D01*
X019592Y018345D01*
X019523Y018299D01*
X019477Y018231D01*
X019461Y018150D01*
X019476Y018077D01*
X019454Y018057D01*
X019435Y018048D01*
X019379Y018103D01*
X019389Y018154D01*
X019373Y018235D01*
X019327Y018303D01*
X019258Y018349D01*
X019177Y018365D01*
X019096Y018349D01*
X019027Y018303D01*
X018981Y018235D01*
X018965Y018154D01*
X018981Y018072D01*
X019027Y018004D01*
X019096Y017958D01*
X019177Y017942D01*
X019228Y017952D01*
X019568Y017611D01*
X019603Y017588D01*
X019644Y017580D01*
X020312D01*
X020339Y017552D01*
X020339Y017552D01*
X020348Y017546D01*
X020484Y017410D01*
Y014660D01*
X020440Y014637D01*
X020429Y014644D01*
X020348Y014660D01*
X020267Y014644D01*
X020242Y014628D01*
X020196Y014647D01*
X020190Y014678D01*
X020144Y014746D01*
X020101Y014775D01*
Y015082D01*
X020093Y015123D01*
X020070Y015157D01*
X019662Y015565D01*
X019628Y015588D01*
X019587Y015596D01*
X016972D01*
X016936Y015646D01*
X016946Y015697D01*
X016930Y015778D01*
X016884Y015847D01*
X016876Y015852D01*
Y015941D01*
X016865Y015995D01*
X016834Y016041D01*
X016450Y016426D01*
X016404Y016456D01*
X016350Y016467D01*
X015214D01*
X014545Y017136D01*
X014547Y017146D01*
X014530Y017227D01*
X014484Y017295D01*
X014476Y017301D01*
Y018364D01*
X014494Y018367D01*
X014563Y018413D01*
X014609Y018482D01*
X014625Y018563D01*
X014609Y018644D01*
X014563Y018713D01*
X014515Y018745D01*
X014530Y018795D01*
X015393D01*
X015415Y018750D01*
X015368Y018693D01*
X015303Y018573D01*
X015264Y018443D01*
X015251Y018307D01*
X015264Y018172D01*
X015303Y018041D01*
X015368Y017921D01*
X015454Y017816D01*
X015559Y017730D01*
X015679Y017666D01*
X015809Y017626D01*
X015945Y017613D01*
X016080Y017626D01*
X016211Y017666D01*
X016331Y017730D01*
X016436Y017816D01*
X016522Y017921D01*
X016586Y018041D01*
X016626Y018172D01*
X016639Y018307D01*
X016626Y018443D01*
X016586Y018573D01*
X016522Y018693D01*
X016475Y018750D01*
X016497Y018795D01*
X021354D01*
Y011913D01*
D02*
G37*
%LPC*%
G36*
X017104Y018564D02*
X017023Y018548D01*
X016955Y018502D01*
X016909Y018433D01*
X016892Y018352D01*
X016909Y018271D01*
X016955Y018203D01*
X017023Y018157D01*
X017104Y018140D01*
X017185Y018157D01*
X017204Y018169D01*
X017271D01*
X017307Y018145D01*
X017388Y018129D01*
X017469Y018145D01*
X017505Y018169D01*
X017769D01*
X018254Y017684D01*
X018263Y017641D01*
X018287Y017605D01*
Y017545D01*
X018265Y017512D01*
X018249Y017431D01*
X018265Y017350D01*
X018311Y017281D01*
X018380Y017235D01*
X018461Y017219D01*
X018542Y017235D01*
X018610Y017281D01*
X018656Y017350D01*
X018672Y017431D01*
X018656Y017512D01*
X018630Y017551D01*
Y017605D01*
X018654Y017641D01*
X018671Y017722D01*
X018654Y017804D01*
X018608Y017872D01*
X018540Y017918D01*
X018497Y017927D01*
X017962Y018462D01*
X017906Y018499D01*
X017841Y018512D01*
X017505D01*
X017469Y018536D01*
X017388Y018552D01*
X017307Y018536D01*
X017271Y018512D01*
X017239D01*
X017185Y018548D01*
X017104Y018564D01*
D02*
G37*
G36*
X016587Y014156D02*
X016490Y014136D01*
X016408Y014082D01*
X016364Y014016D01*
X016361Y014015D01*
X016312D01*
X016309Y014016D01*
X016265Y014082D01*
X016183Y014136D01*
X016087Y014156D01*
X015990Y014136D01*
X015908Y014082D01*
X015854Y014000D01*
X015835Y013904D01*
X015854Y013807D01*
X015882Y013764D01*
X015852Y013719D01*
X015837Y013722D01*
X015740Y013703D01*
X015658Y013649D01*
X015604Y013567D01*
X015585Y013470D01*
X015604Y013374D01*
X015658Y013292D01*
X015740Y013238D01*
X015837Y013218D01*
X015933Y013238D01*
X016015Y013292D01*
X016040Y013331D01*
X016079Y013331D01*
X016098Y013326D01*
X016139Y013273D01*
X016197Y013228D01*
X016264Y013200D01*
X016287Y013197D01*
Y013470D01*
X016387D01*
Y013197D01*
X016409Y013200D01*
X016476Y013228D01*
X016534Y013273D01*
X016575Y013326D01*
X016594Y013331D01*
X016633Y013331D01*
X016658Y013292D01*
X016740Y013238D01*
X016837Y013218D01*
X016933Y013238D01*
X017015Y013292D01*
X017069Y013374D01*
X017089Y013470D01*
X017069Y013567D01*
X017015Y013649D01*
X016933Y013703D01*
X016837Y013722D01*
X016821Y013719D01*
X016791Y013764D01*
X016819Y013807D01*
X016839Y013904D01*
X016819Y014000D01*
X016765Y014082D01*
X016683Y014136D01*
X016587Y014156D01*
D02*
G37*
G36*
X013667Y014849D02*
X013586Y014833D01*
X013518Y014787D01*
X013472Y014718D01*
X013455Y014637D01*
X013472Y014556D01*
X013518Y014488D01*
X013560Y014459D01*
Y013840D01*
X012819Y013098D01*
X012760D01*
X012732Y013141D01*
X012663Y013187D01*
X012582Y013203D01*
X012501Y013187D01*
X012432Y013141D01*
X012386Y013072D01*
X012370Y012991D01*
X012386Y012910D01*
X012432Y012841D01*
X012501Y012795D01*
X012582Y012779D01*
X012663Y012795D01*
X012732Y012841D01*
X012760Y012884D01*
X012863D01*
X012904Y012892D01*
X012939Y012915D01*
X013743Y013720D01*
X013743Y013720D01*
X013766Y013754D01*
X013774Y013795D01*
Y014459D01*
X013817Y014488D01*
X013863Y014556D01*
X013879Y014637D01*
X013863Y014718D01*
X013817Y014787D01*
X013748Y014833D01*
X013667Y014849D01*
D02*
G37*
%LPD*%
D12*
X017104Y018352D02*
X017116Y018341D01*
X017388D01*
X017841D02*
X018459Y017722D01*
X017388Y018341D02*
X017841D01*
X018459Y017433D02*
X018461Y017431D01*
X018459Y017433D02*
Y017722D01*
D50*
X015559Y015837D02*
X015942Y015454D01*
X016835D01*
X016870Y015489D02*
X019587D01*
X016835Y015454D02*
X016870Y015489D01*
X016107Y016152D02*
X016319Y015939D01*
X013670Y016152D02*
X016107D01*
X012798Y016330D02*
X013088Y016040D01*
X013100Y016721D02*
X013670Y016152D01*
X013040Y016721D02*
X013100D01*
X013088Y016040D02*
X013411D01*
X014109Y015792D02*
X014243Y015659D01*
X015009D01*
X013936Y015519D02*
X014951D01*
X013710Y015745D02*
X013936Y015519D01*
X015272Y015000D02*
X015520Y014752D01*
X014752Y015000D02*
X015272D01*
X018644Y013720D02*
X020091D01*
X017752Y014612D02*
X018644Y013720D01*
X015462Y014612D02*
X017752D01*
X015369Y014705D02*
X015462Y014612D01*
X014949Y014705D02*
X015369D01*
X020253Y014354D02*
X020348Y014449D01*
X018253Y014354D02*
X020253D01*
X017854Y014752D02*
X018253Y014354D01*
X015520Y014752D02*
X017854D01*
X015578Y014892D02*
X018393D01*
X014951Y015519D02*
X015578Y014892D01*
X015009Y015659D02*
X015562Y015106D01*
X018876D02*
X018984Y014998D01*
X015562Y015106D02*
X018876D01*
X018393Y014892D02*
X018496Y014789D01*
X019587Y015489D02*
X019994Y015082D01*
Y014596D02*
Y015082D01*
X014965Y015902D02*
X015620Y015246D01*
X019486D01*
X020591Y013531D02*
Y017454D01*
X020731Y013473D02*
Y017512D01*
X019177Y018154D02*
X019644Y017687D01*
X020356D01*
X020415Y017628D01*
X020418D01*
X020591Y017454D01*
X019996Y017827D02*
X020414D01*
X020473Y017768D01*
X020511Y013451D02*
X020591Y013531D01*
X019251Y013451D02*
X020511D01*
X019000Y013201D02*
X019251Y013451D01*
X019673Y018150D02*
X019996Y017827D01*
X020473Y017768D02*
X020476D01*
X020731Y017512D01*
X020538Y013280D02*
X020731Y013473D01*
X019526Y013280D02*
X020538D01*
X019455Y013209D02*
X019526Y013280D01*
X012261Y017961D02*
X012555Y017667D01*
Y016107D02*
Y017667D01*
X012798Y017278D02*
X013047Y017528D01*
X012798Y016330D02*
Y017278D01*
X019622Y018098D02*
X019673Y018150D01*
X013667Y013795D02*
Y014637D01*
X012863Y012991D02*
X013667Y013795D01*
X012582Y012991D02*
X012863D01*
D51*
X016734Y015697D02*
Y015941D01*
X016350Y016325D02*
X016734Y015941D01*
X012550Y014101D02*
Y014111D01*
X013703Y015264D01*
X014431D01*
X014335Y018484D02*
X014413Y018563D01*
X014335Y017146D02*
Y018484D01*
Y017146D02*
X015155Y016325D01*
X016350D01*
D52*
X020911Y013193D02*
Y017587D01*
X019705Y012839D02*
X019864Y012998D01*
X018770Y012839D02*
X019705D01*
X018419Y013189D02*
X018770Y012839D01*
X020359Y018136D02*
X020548Y017948D01*
X020551D01*
X020246Y012528D02*
X020911Y013193D01*
X020175Y018191D02*
X020307D01*
X020551Y017948D02*
X020911Y017587D01*
X020359Y018136D02*
Y018139D01*
X020307Y018191D02*
X020359Y018139D01*
D53*
X021206Y012624D02*
Y018093D01*
X020679Y018620D02*
X021206Y018093D01*
X020681Y012098D02*
X021206Y012624D01*
X020677Y012102D02*
Y012447D01*
Y012102D02*
X020681Y012098D01*
X020679Y018272D02*
X020681Y018270D01*
X020679Y018272D02*
Y018620D01*
D54*
X015837Y013470D02*
D03*
X016337D02*
D03*
X016837D02*
D03*
X016087Y013904D02*
D03*
X016587D02*
D03*
X018419Y013189D02*
D03*
X019864Y012998D02*
D03*
X020175Y018191D02*
D03*
X020177Y012522D02*
D03*
X020677Y012447D02*
D03*
X020681Y012098D02*
D03*
Y018270D02*
D03*
X020679Y018620D02*
D03*
D55*
X017104Y018352D02*
D03*
X017388Y018341D02*
D03*
X018461Y017431D02*
D03*
X015142Y017374D02*
D03*
X017754Y012213D02*
D03*
X017756Y012561D02*
D03*
X012264Y012061D02*
D03*
X016734Y015697D02*
D03*
X014431Y015264D02*
D03*
X014344Y013431D02*
D03*
X014413Y018563D02*
D03*
X014335Y017146D02*
D03*
X016319Y015939D02*
D03*
X013411Y016040D02*
D03*
X014108Y015778D02*
D03*
X013661Y015799D02*
D03*
X014752Y015000D02*
D03*
X014949Y014705D02*
D03*
X014941Y015902D02*
D03*
X015535Y015837D02*
D03*
X019486Y015246D02*
D03*
X018984Y014998D02*
D03*
X018496Y014789D02*
D03*
X019994Y014596D02*
D03*
X020348Y014449D02*
D03*
X020091Y013720D02*
D03*
X018459Y017722D02*
D03*
X019000Y013201D02*
D03*
X019455Y013209D02*
D03*
X012102Y017227D02*
D03*
X012550Y014101D02*
D03*
X019673Y018150D02*
D03*
X019177Y018154D02*
D03*
X013047Y017528D02*
D03*
X013040Y016721D02*
D03*
X012261Y017961D02*
D03*
X013667Y014637D02*
D03*
X012582Y012991D02*
D03*
X012552Y014599D02*
D03*
X012555Y016107D02*
D03*
D56*
X015945Y012402D02*
D03*
Y018307D02*
D03*
D57*
X018199Y016043D02*
D03*
X018711D02*
D03*
X019222D02*
D03*
X018711Y016555D02*
D03*
X018199D02*
D03*
X019222D02*
D03*
M02*
