G04 Layer_Color=65535*
%FSAX24Y24*%
%MOIN*%
G70*
G01*
G75*
%ADD24C,0.0197*%
%ADD27C,0.0100*%
%ADD34C,0.0039*%
%ADD35C,0.0118*%
%ADD36C,0.0059*%
%ADD37C,0.0098*%
%ADD38C,0.0236*%
%ADD39C,0.0050*%
%ADD40C,0.0079*%
G36*
X017310Y015241D02*
X017355D01*
Y015180D01*
X017310D01*
Y015103D01*
Y015102D01*
Y015101D01*
Y015098D01*
X017310Y015095D01*
X017311Y015090D01*
X017311Y015087D01*
X017312Y015085D01*
X017312Y015084D01*
X017315Y015082D01*
X017320Y015079D01*
X017323Y015079D01*
X017326Y015078D01*
X017328D01*
X017330Y015079D01*
X017333D01*
X017337Y015079D01*
X017341Y015080D01*
X017346Y015082D01*
X017352Y015083D01*
X017358Y015026D01*
X017357D01*
X017356Y015025D01*
X017353Y015025D01*
X017347Y015024D01*
X017339Y015023D01*
X017331Y015022D01*
X017321Y015021D01*
X017311Y015020D01*
X017300Y015019D01*
X017295D01*
X017290Y015020D01*
X017283Y015021D01*
X017276Y015021D01*
X017268Y015023D01*
X017261Y015025D01*
X017254Y015027D01*
X017254Y015027D01*
X017252Y015029D01*
X017249Y015030D01*
X017246Y015033D01*
X017243Y015036D01*
X017239Y015041D01*
X017236Y015045D01*
X017233Y015051D01*
Y015052D01*
X017232Y015054D01*
X017231Y015058D01*
X017229Y015064D01*
X017228Y015071D01*
X017227Y015080D01*
X017227Y015091D01*
X017226Y015104D01*
Y015180D01*
X017195D01*
Y015241D01*
X017226D01*
Y015281D01*
X017310Y015324D01*
Y015241D01*
D02*
G37*
G36*
X017483Y015025D02*
X017395D01*
Y015108D01*
X017483D01*
Y015025D01*
D02*
G37*
G36*
X018110D02*
X018025D01*
Y015224D01*
X018024Y015223D01*
X018022Y015222D01*
X018018Y015219D01*
X018013Y015215D01*
X018007Y015211D01*
X018000Y015207D01*
X017986Y015199D01*
X017985Y015198D01*
X017982Y015197D01*
X017978Y015195D01*
X017973Y015193D01*
X017966Y015190D01*
X017958Y015187D01*
X017948Y015184D01*
X017938Y015181D01*
Y015249D01*
X017939D01*
X017940Y015249D01*
X017942Y015250D01*
X017945Y015251D01*
X017948Y015252D01*
X017952Y015254D01*
X017962Y015258D01*
X017973Y015263D01*
X017983Y015268D01*
X017994Y015274D01*
X018004Y015281D01*
X018005Y015282D01*
X018008Y015284D01*
X018012Y015288D01*
X018017Y015294D01*
X018023Y015301D01*
X018029Y015310D01*
X018035Y015319D01*
X018040Y015329D01*
X018110D01*
Y015025D01*
D02*
G37*
G36*
X017054Y015246D02*
X017060Y015245D01*
X017066Y015245D01*
X017073Y015243D01*
X017080Y015242D01*
X017096Y015237D01*
X017104Y015234D01*
X017113Y015230D01*
X017121Y015226D01*
X017128Y015221D01*
X017136Y015215D01*
X017142Y015208D01*
X017142Y015208D01*
X017143Y015207D01*
X017144Y015205D01*
X017146Y015203D01*
X017148Y015200D01*
X017151Y015196D01*
X017156Y015188D01*
X017160Y015177D01*
X017165Y015164D01*
X017168Y015150D01*
X017169Y015142D01*
Y015133D01*
Y015133D01*
Y015131D01*
Y015129D01*
X017168Y015125D01*
X017168Y015121D01*
X017167Y015116D01*
X017166Y015110D01*
X017165Y015105D01*
X017161Y015091D01*
X017158Y015085D01*
X017155Y015078D01*
X017151Y015071D01*
X017147Y015064D01*
X017141Y015057D01*
X017136Y015051D01*
X017135Y015051D01*
X017134Y015050D01*
X017132Y015048D01*
X017129Y015046D01*
X017126Y015044D01*
X017122Y015041D01*
X017117Y015038D01*
X017111Y015036D01*
X017106Y015032D01*
X017099Y015029D01*
X017091Y015027D01*
X017083Y015025D01*
X017074Y015022D01*
X017065Y015021D01*
X017054Y015020D01*
X017044Y015019D01*
X017039D01*
X017035Y015020D01*
X017031D01*
X017026Y015021D01*
X017020Y015022D01*
X017014Y015023D01*
X017000Y015026D01*
X016986Y015030D01*
X016972Y015037D01*
X016966Y015041D01*
X016959Y015046D01*
X016959Y015046D01*
X016958Y015048D01*
X016956Y015049D01*
X016953Y015052D01*
X016950Y015055D01*
X016947Y015059D01*
X016943Y015064D01*
X016940Y015069D01*
X016936Y015075D01*
X016933Y015081D01*
X016929Y015089D01*
X016926Y015096D01*
X016924Y015104D01*
X016922Y015113D01*
X016921Y015122D01*
X016920Y015132D01*
Y015132D01*
Y015134D01*
Y015136D01*
X016921Y015140D01*
X016921Y015144D01*
X016922Y015150D01*
X016923Y015155D01*
X016924Y015161D01*
X016928Y015174D01*
X016931Y015181D01*
X016935Y015188D01*
X016938Y015195D01*
X016943Y015201D01*
X016948Y015208D01*
X016954Y015214D01*
X016954Y015215D01*
X016955Y015215D01*
X016957Y015217D01*
X016960Y015219D01*
X016963Y015222D01*
X016967Y015224D01*
X016972Y015227D01*
X016977Y015230D01*
X016984Y015233D01*
X016990Y015236D01*
X016997Y015239D01*
X017005Y015241D01*
X017014Y015243D01*
X017023Y015245D01*
X017033Y015246D01*
X017043Y015246D01*
X017050D01*
X017054Y015246D01*
D02*
G37*
G36*
X017262Y014734D02*
X017406D01*
Y014660D01*
X017170D01*
Y014960D01*
X017262D01*
Y014734D01*
D02*
G37*
G36*
X017545Y014660D02*
X017452D01*
Y014960D01*
X017545D01*
Y014660D01*
D02*
G37*
G36*
X017898D02*
X017811D01*
X017699Y014825D01*
Y014660D01*
X017612D01*
Y014960D01*
X017698D01*
X017811Y014793D01*
Y014960D01*
X017898D01*
Y014660D01*
D02*
G37*
G36*
X016877Y015025D02*
X016801D01*
Y015253D01*
X016743Y015025D01*
X016674D01*
X016616Y015253D01*
Y015025D01*
X016540D01*
Y015324D01*
X016662D01*
X016708Y015142D01*
X016755Y015324D01*
X016877D01*
Y015025D01*
D02*
G37*
G36*
X015546Y012703D02*
X015675Y012833D01*
Y012537D01*
X015546Y012667D01*
Y012542D01*
X015526D01*
Y012838D01*
X015546D01*
Y012703D01*
D02*
G37*
G36*
X020066Y017233D02*
X020196Y017363D01*
Y017067D01*
X020066Y017197D01*
Y017072D01*
X020047D01*
Y017368D01*
X020066D01*
Y017233D01*
D02*
G37*
G36*
X017812Y015025D02*
X017739D01*
X017649Y015241D01*
X017735D01*
X017777Y015104D01*
X017821Y015241D01*
X017905D01*
X017812Y015025D01*
D02*
G37*
G36*
X018297D02*
X018208D01*
Y015108D01*
X018297D01*
Y015025D01*
D02*
G37*
G36*
X018528D02*
X018444D01*
Y015224D01*
X018443Y015223D01*
X018440Y015222D01*
X018436Y015219D01*
X018431Y015215D01*
X018425Y015211D01*
X018418Y015207D01*
X018404Y015199D01*
X018403Y015198D01*
X018400Y015197D01*
X018396Y015195D01*
X018391Y015193D01*
X018384Y015190D01*
X018376Y015187D01*
X018367Y015184D01*
X018356Y015181D01*
Y015249D01*
X018357D01*
X018358Y015249D01*
X018360Y015250D01*
X018363Y015251D01*
X018367Y015252D01*
X018371Y015254D01*
X018380Y015258D01*
X018391Y015263D01*
X018402Y015268D01*
X018412Y015274D01*
X018422Y015281D01*
X018423Y015282D01*
X018426Y015284D01*
X018430Y015288D01*
X018435Y015294D01*
X018441Y015301D01*
X018447Y015310D01*
X018453Y015319D01*
X018459Y015329D01*
X018528D01*
Y015025D01*
D02*
G37*
%LPC*%
G36*
X017045Y015189D02*
X017042D01*
X017039Y015189D01*
X017035Y015188D01*
X017030Y015186D01*
X017025Y015183D01*
X017020Y015180D01*
X017015Y015175D01*
X017015Y015174D01*
X017013Y015173D01*
X017012Y015169D01*
X017009Y015165D01*
X017007Y015158D01*
X017005Y015151D01*
X017004Y015143D01*
X017004Y015132D01*
Y015132D01*
Y015131D01*
Y015128D01*
X017004Y015123D01*
X017005Y015116D01*
X017007Y015109D01*
X017008Y015102D01*
X017011Y015095D01*
X017015Y015089D01*
X017016Y015089D01*
X017018Y015087D01*
X017020Y015085D01*
X017023Y015082D01*
X017027Y015080D01*
X017032Y015078D01*
X017038Y015076D01*
X017045Y015075D01*
X017047D01*
X017051Y015076D01*
X017055Y015077D01*
X017060Y015079D01*
X017065Y015081D01*
X017069Y015084D01*
X017074Y015089D01*
X017075Y015089D01*
X017076Y015091D01*
X017077Y015094D01*
X017080Y015099D01*
X017082Y015105D01*
X017084Y015113D01*
X017085Y015123D01*
X017085Y015133D01*
Y015133D01*
Y015134D01*
Y015137D01*
X017085Y015143D01*
X017084Y015149D01*
X017083Y015155D01*
X017080Y015163D01*
X017077Y015169D01*
X017073Y015175D01*
X017073Y015176D01*
X017071Y015177D01*
X017069Y015180D01*
X017065Y015182D01*
X017061Y015185D01*
X017057Y015187D01*
X017051Y015189D01*
X017045Y015189D01*
D02*
G37*
%LPD*%
D24*
X013000Y012882D02*
G03*
X013000Y012882I-000100J000000D01*
G01*
D27*
X013119Y018306D02*
G03*
X013119Y018306I-000033J000000D01*
G01*
D34*
X019557Y014581D02*
G03*
X019562Y015177I-000648J000303D01*
G01*
X013403Y018254D02*
G03*
X013631Y018254I000114J000000D01*
G01*
X019700Y014580D02*
Y015180D01*
X019540Y014880D02*
X019620D01*
X019700D02*
X019760D01*
X020510Y015200D02*
X020610D01*
X020560Y015140D02*
Y015260D01*
X015467Y012867D02*
X015757D01*
X015457Y012513D02*
X015748D01*
X019988Y017397D02*
X020278D01*
X019978Y017043D02*
X020268D01*
X018755Y013010D02*
X019025D01*
X018760Y012475D02*
X019025D01*
X017348Y014403D02*
X018569D01*
X017348Y013221D02*
X018569D01*
X017348D02*
Y014403D01*
X018569Y013221D02*
Y014403D01*
X018640Y015576D02*
Y017541D01*
X017420Y015576D02*
Y017541D01*
Y015576D02*
X018640D01*
X017420Y017541D02*
X018640D01*
X013274Y017466D02*
X013746D01*
X013631Y018254D02*
X013746D01*
X013274D02*
X013403D01*
D35*
X014775Y017807D02*
G03*
X014775Y017804I-000038J-000003D01*
G01*
X017267Y014496D02*
G03*
X017267Y014496I-000059J000000D01*
G01*
D36*
X015009Y017701D02*
G03*
X015196Y017701I000093J000000D01*
G01*
X016302Y014325D02*
Y014916D01*
X015278Y014325D02*
Y014916D01*
X015100Y013082D02*
Y014682D01*
X013100Y013082D02*
X013200D01*
X013100D02*
Y014682D01*
X013200D01*
X015000Y013082D02*
X015100D01*
X015000Y014682D02*
X015100D01*
X015196Y017701D02*
X015300D01*
X014910D02*
X015010D01*
X015300Y016579D02*
Y017701D01*
X014910Y016579D02*
X015300D01*
X014910D02*
Y017701D01*
D37*
X018928Y015536D02*
G03*
X018928Y015536I-000049J000000D01*
G01*
D38*
X018416Y015881D02*
G03*
X018416Y015881I-000118J000000D01*
G01*
D39*
X020042Y016267D02*
X020258D01*
X020042Y015943D02*
X020258D01*
X017712Y012693D02*
X017801Y012693D01*
X017712Y012592D02*
Y012811D01*
X017633Y012592D02*
Y012811D01*
X017545Y012693D02*
X017633Y012693D01*
X014862Y018573D02*
X014951Y018573D01*
X014862Y018472D02*
Y018691D01*
X014783Y018472D02*
Y018691D01*
X014695Y018573D02*
X014783Y018573D01*
X015667Y018451D02*
X015667Y018362D01*
X015549D02*
X015768D01*
X015549Y018283D02*
X015768D01*
X015667D02*
X015667Y018195D01*
X015549Y013417D02*
X015638Y013417D01*
Y013299D02*
Y013518D01*
X015717Y013299D02*
Y013518D01*
Y013417D02*
X015805Y013417D01*
X020019Y015537D02*
X020108Y015537D01*
Y015419D02*
Y015638D01*
X020187Y015419D02*
Y015638D01*
Y015537D02*
X020275Y015537D01*
X015861Y016248D02*
X015950Y016248D01*
Y016130D02*
Y016350D01*
X016029Y016130D02*
Y016350D01*
Y016248D02*
X016117Y016248D01*
X015859Y015757D02*
X015948Y015757D01*
Y015639D02*
Y015858D01*
X016027Y015639D02*
Y015858D01*
Y015757D02*
X016115Y015757D01*
X016512Y012847D02*
X016728D01*
X016512Y012523D02*
X016728D01*
X014726Y017913D02*
X014943D01*
X014726Y018237D02*
X014943D01*
X019273Y013742D02*
Y013958D01*
X019597Y013742D02*
Y013958D01*
X016367Y018212D02*
Y018428D01*
X016043Y018212D02*
Y018428D01*
X020032Y016503D02*
X020248D01*
X020032Y016827D02*
X020248D01*
X012382Y017053D02*
X012471Y017053D01*
X012382Y016952D02*
Y017171D01*
X012303Y016952D02*
Y017171D01*
X012215Y017053D02*
X012303Y017053D01*
X013372Y018623D02*
X013461Y018623D01*
X013372Y018522D02*
Y018741D01*
X013293Y018522D02*
Y018741D01*
X013205Y018623D02*
X013293Y018623D01*
X013382Y017053D02*
X013471Y017053D01*
X013382Y016952D02*
Y017171D01*
X013303Y016952D02*
Y017171D01*
X013215Y017053D02*
X013303Y017053D01*
D40*
X014193Y015675D02*
X014507D01*
X014193Y016345D02*
X014507D01*
M02*
