M48
;Layer_Color=9474304
;FILE_FORMAT=2:4
INCH
;TYPE=PLATED
T1F00S00C0.0157
T2F00S00C0.0197
T3F00S00C0.0236
T4F00S00C0.0630
%
T01
X012960Y012920
X012920Y013620
X013588Y013626
X014100
X014612
Y014138
X014100
X013588
X013850Y013090
X014350
X016310Y013200
X017510Y013730
X017570Y014120
X017930Y013450
X019350Y013410
X019420Y014000
X019900Y014620
X018600Y012640
X016700Y015490
X017330Y016050
X017880Y016520
X018190Y016280
X018440Y016810
X018700Y017070
X018490Y017967
X017990
X017490
X017740Y018400
X018240
X016720Y017960
X016500Y017580
X015430Y018430
X014120Y018110
X014110Y017600
X013820Y018620
X014820Y016760
X013360Y015950
X012250Y017053
T02
X019950Y013090
T03
X012090Y012590
X012430
X012520Y013090
X019950Y012590
X015100Y015810
Y016210
T04
X012402Y014961
X020079Y018307
M30
